<ttFont>
<head>
    <!-- Most of this table will be recalculated by the compiler -->
    <tableVersion value="1.0"/>
    <fontRevision value="1.0"/>
    <checkSumAdjustment value="0x3c90b542"/>
    <magicNumber value="0x5f0f3cf5"/>
    <flags value="00000000 00001011"/>
    <unitsPerEm value="2048"/>
    <created value="Thu Mar 24 10:30:57 2011"/>
    <modified value="Thu Mar 24 10:30:57 2011"/>
    <xMin value="-205"/>
    <yMin value="-730"/>
    <xMax value="2997"/>
    <yMax value="5088"/>
    <macStyle value="00000000 00000000"/>
    <lowestRecPPEM value="8"/>
    <fontDirectionHint value="2"/>
    <indexToLocFormat value="0"/>
    <glyphDataFormat value="0"/>
  </head>
    <TTGlyph name="A" xMin="75" yMin="0" xMax="1158" yMax="1536">
      <contour>
        <pt x="409" y="329" on="1"/>
        <pt x="342" y="0" on="1"/>
        <pt x="75" y="0" on="1"/>
        <pt x="399" y="1518" on="1"/>
        <pt x="826" y="1536" on="1"/>
        <pt x="1158" y="12" on="1"/>
        <pt x="831" y="0" on="1"/>
        <pt x="774" y="329" on="1"/>
      </contour>
      <contour>
        <pt x="720" y="575" on="1"/>
        <pt x="579" y="1310" on="1"/>
        <pt x="463" y="575" on="1"/>
      </contour>
    </TTGlyph>
    <TTGlyph name="AE" xMin="-116" yMin="0" xMax="1421" yMax="1536">
      <contour>
        <pt x="660" y="0" on="1"/>
        <pt x="676" y="329" on="1"/>
        <pt x="341" y="329" on="1"/>
        <pt x="211" y="0" on="1"/>
        <pt x="-116" y="0" on="1"/>
        <pt x="545" y="1518" on="1"/>
        <pt x="749" y="1536" on="1"/>
        <pt x="1405" y="1536" on="1"/>
        <pt x="1381" y="1296" on="1"/>
        <pt x="995" y="1296" on="1"/>
        <pt x="995" y="930" on="1"/>
        <pt x="1248" y="930" on="1"/>
        <pt x="1247" y="672" on="1"/>
        <pt x="995" y="672" on="1"/>
        <pt x="995" y="240" on="1"/>
        <pt x="1421" y="240" on="1"/>
        <pt x="1397" y="0" on="1"/>
      </contour>
      <contour>
        <pt x="677" y="575" on="1"/>
        <pt x="699" y="1310" on="1"/>
        <pt x="440" y="575" on="1"/>
      </contour>
    </TTGlyph>
    <TTGlyph name="AEacute" xMin="-116" yMin="0" xMax="1605" yMax="2074">
      <component glyphName="acute" x="837" y="442" flags="0x1004"/>
      <component glyphName="AE" x="0" y="0" flags="0x1204"/>
    </TTGlyph>
    <TTGlyph name="AEmacron" xMin="-116" yMin="0" xMax="1421" yMax="1882">
      <component glyphName="macron" x="597" y="442" flags="0x1004"/>
      <component glyphName="AE" x="0" y="0" flags="0x1204"/>
    </TTGlyph>
    <TTGlyph name="Aacute" xMin="75" yMin="0" xMax="1158" yMax="2016">
      <component glyphName="A" x="0" y="0" flags="0x1204"/>
      <component glyphName="acute" x="137" y="384" flags="0x1004"/>
    </TTGlyph>
    <TTGlyph name="Abreve" xMin="75" yMin="0" xMax="1258" yMax="2170">
      <component glyphName="breve" x="298" y="442" flags="0x1004"/>
      <component glyphName="A" x="0" y="0" flags="0x1204"/>
    </TTGlyph>
    <TTGlyph name="Acircumflex" xMin="75" yMin="0" xMax="1158" yMax="2112">
      <component glyphName="A" x="0" y="0" flags="0x1204"/>
      <component glyphName="circumflex" x="89" y="384" flags="0x1004"/>
    </TTGlyph>
    <TTGlyph name="Adieresis" xMin="75" yMin="0" xMax="1158" yMax="1920">
      <component glyphName="A" x="0" y="0" flags="0x1204"/>
      <component glyphName="dieresis" x="233" y="384" flags="0x1004"/>
    </TTGlyph>
    <TTGlyph name="Agrave" xMin="75" yMin="0" xMax="1158" yMax="2016">
      <component glyphName="A" x="0" y="0" flags="0x1204"/>
      <component glyphName="grave" x="137" y="384" flags="0x1004"/>
    </TTGlyph>
    <TTGlyph name="Amacron" xMin="75" yMin="0" xMax="1158" yMax="1882">
      <component glyphName="macron" x="346" y="442" flags="0x1004"/>
      <component glyphName="A" x="0" y="0" flags="0x1204"/>
    </TTGlyph>
    <TTGlyph name="Aogonek" xMin="75" yMin="-392" xMax="1158" yMax="1536">
      <component glyphName="ogonek" x="183" y="-6" flags="0x1004"/>
      <component glyphName="A" x="0" y="0" flags="0x1004"/>
    </TTGlyph>
    <TTGlyph name="Aring" xMin="75" yMin="0" xMax="1158" yMax="2176">
      <component glyphName="A" x="0" y="0" flags="0x1004"/>
      <component glyphName="ring" x="205" y="384" flags="0x1004"/>
    </TTGlyph>
    <TTGlyph name="Atilde" xMin="75" yMin="0" xMax="1158" yMax="1921">
      <component glyphName="A" x="0" y="0" flags="0x1204"/>
      <component glyphName="tilde" x="173" y="384" flags="0x1004"/>
    </TTGlyph>
    <TTGlyph name="B" xMin="143" yMin="0" xMax="1066" yMax="1536">
      <contour>
        <pt x="852" y="818" on="1"/>
        <pt x="958" y="764" on="0"/>
        <pt x="1066" y="582" on="0"/>
        <pt x="1066" y="431" on="1"/>
        <pt x="1066" y="328" on="0"/>
        <pt x="991" y="173" on="0"/>
        <pt x="869" y="79" on="0"/>
        <pt x="688" y="21" on="0"/>
        <pt x="503" y="0" on="0"/>
        <pt x="389" y="0" on="1"/>
        <pt x="143" y="0" on="1"/>
        <pt x="143" y="1536" on="1"/>
        <pt x="487" y="1536" on="1"/>
        <pt x="766" y="1536" on="0"/>
        <pt x="901" y="1420" on="1"/>
        <pt x="1019" y="1320" on="0"/>
        <pt x="1019" y="1140" on="1"/>
        <pt x="1019" y="1025" on="0"/>
        <pt x="931" y="857" on="0"/>
      </contour>
      <contour>
        <pt x="778" y="471" on="1"/>
        <pt x="778" y="595" on="0"/>
        <pt x="645" y="693" on="0"/>
        <pt x="509" y="693" on="1"/>
        <pt x="443" y="693" on="1"/>
        <pt x="443" y="240" on="1"/>
        <pt x="498" y="240" on="1"/>
        <pt x="602" y="240" on="0"/>
        <pt x="741" y="322" on="0"/>
        <pt x="765" y="397" on="1"/>
        <pt x="778" y="436" on="0"/>
      </contour>
      <contour>
        <pt x="740" y="1111" on="1"/>
        <pt x="740" y="1214" on="0"/>
        <pt x="611" y="1296" on="0"/>
        <pt x="492" y="1296" on="1"/>
        <pt x="433" y="1296" on="1"/>
        <pt x="433" y="911" on="1"/>
        <pt x="505" y="911" on="1"/>
        <pt x="628" y="911" on="0"/>
        <pt x="740" y="997" on="0"/>
      </contour>
    </TTGlyph>
    <TTGlyph name="C" xMin="105" yMin="-32" xMax="1021" yMax="1568">
      <contour>
        <pt x="1021" y="523" on="1"/>
        <pt x="1021" y="345" on="0"/>
        <pt x="894" y="80" on="0"/>
        <pt x="778" y="14" on="1"/>
        <pt x="696" y="-32" on="0"/>
        <pt x="585" y="-32" on="1"/>
        <pt x="504" y="-32" on="0"/>
        <pt x="371" y="18" on="0"/>
        <pt x="279" y="99" on="0"/>
        <pt x="206" y="218" on="0"/>
        <pt x="161" y="339" on="0"/>
        <pt x="144" y="412" on="1"/>
        <pt x="105" y="578" on="0"/>
        <pt x="105" y="800" on="1"/>
        <pt x="105" y="1006" on="0"/>
        <pt x="207" y="1343" on="0"/>
        <pt x="306" y="1446" on="1"/>
        <pt x="423" y="1568" on="0"/>
        <pt x="592" y="1568" on="1"/>
        <pt x="785" y="1568" on="0"/>
        <pt x="906" y="1392" on="1"/>
        <pt x="1019" y="1229" on="0"/>
        <pt x="1019" y="1014" on="1"/>
        <pt x="729" y="999" on="1"/>
        <pt x="729" y="1099" on="0"/>
        <pt x="685" y="1266" on="0"/>
        <pt x="638" y="1306" on="1"/>
        <pt x="613" y="1328" on="0"/>
        <pt x="575" y="1328" on="1"/>
        <pt x="507" y="1328" on="0"/>
        <pt x="467" y="1242" on="1"/>
        <pt x="405" y="1112" on="0"/>
        <pt x="405" y="800" on="1"/>
        <pt x="405" y="545" on="0"/>
        <pt x="440" y="404" on="1"/>
        <pt x="467" y="293" on="0"/>
        <pt x="530" y="248" on="1"/>
        <pt x="562" y="225" on="0"/>
        <pt x="604" y="225" on="1"/>
        <pt x="636" y="225" on="0"/>
        <pt x="687" y="253" on="0"/>
        <pt x="721" y="310" on="0"/>
        <pt x="743" y="365" on="0"/>
        <pt x="757" y="452" on="0"/>
        <pt x="763" y="504" on="0"/>
        <pt x="766" y="547" on="1"/>
      </contour>
    </TTGlyph>
    <TTGlyph name="Cacute" xMin="105" yMin="-32" xMax="1120" yMax="2074">
      <component glyphName="acute" x="352" y="442" flags="0x1004"/>
      <component glyphName="C" x="0" y="0" flags="0x1204"/>
    </TTGlyph>
    <TTGlyph name="Ccaron" xMin="105" yMin="-32" xMax="1021" yMax="2170">
      <component glyphName="caron" x="64" y="442" flags="0x1004"/>
      <component glyphName="C" x="0" y="0" flags="0x1204"/>
    </TTGlyph>
    <TTGlyph name="Ccedilla" xMin="105" yMin="-556" xMax="1021" yMax="1568">
      <component glyphName="C" x="0" y="0" flags="0x1204"/>
      <component glyphName="cedilla" x="329" y="0" flags="0x1004"/>
    </TTGlyph>
    <TTGlyph name="Ccircumflex" xMin="105" yMin="-32" xMax="1021" yMax="2170">
      <component glyphName="circumflex" x="64" y="442" flags="0x1004"/>
      <component glyphName="C" x="0" y="0" flags="0x1204"/>
    </TTGlyph>
    <TTGlyph name="Cdotaccent" xMin="105" yMin="-32" xMax="1021" yMax="1978">
      <component glyphName="dotaccent" x="448" y="442" flags="0x1004"/>
      <component glyphName="C" x="0" y="0" flags="0x1204"/>
    </TTGlyph>
    <TTGlyph name="D" xMin="143" yMin="0" xMax="1060" yMax="1536">
      <contour>
        <pt x="457" y="1536" on="1"/>
        <pt x="588" y="1536" on="0"/>
        <pt x="792" y="1465" on="0"/>
        <pt x="931" y="1335" on="0"/>
        <pt x="1020" y="1141" on="0"/>
        <pt x="1060" y="907" on="0"/>
        <pt x="1060" y="762" on="1"/>
        <pt x="1060" y="581" on="0"/>
        <pt x="985" y="292" on="0"/>
        <pt x="817" y="77" on="0"/>
        <pt x="691" y="30" on="1"/>
        <pt x="612" y="0" on="0"/>
        <pt x="510" y="0" on="1"/>
        <pt x="143" y="0" on="1"/>
        <pt x="143" y="1536" on="1"/>
      </contour>
      <contour>
        <pt x="760" y="817" on="1"/>
        <pt x="760" y="896" on="0"/>
        <pt x="748" y="1023" on="0"/>
        <pt x="711" y="1153" on="0"/>
        <pt x="650" y="1241" on="0"/>
        <pt x="547" y="1296" on="0"/>
        <pt x="477" y="1296" on="1"/>
        <pt x="442" y="1296" on="1"/>
        <pt x="442" y="240" on="1"/>
        <pt x="485" y="240" on="1"/>
        <pt x="552" y="240" on="0"/>
        <pt x="652" y="294" on="0"/>
        <pt x="711" y="380" on="0"/>
        <pt x="747" y="506" on="0"/>
        <pt x="760" y="630" on="0"/>
        <pt x="760" y="705" on="1"/>
      </contour>
    </TTGlyph>
    <TTGlyph name="Dcaron" xMin="143" yMin="0" xMax="1060" yMax="2170">
      <component glyphName="caron" x="74" y="442" flags="0x1004"/>
      <component glyphName="D" x="0" y="0" flags="0x1204"/>
    </TTGlyph>
    <TTGlyph name="Dcroat" xMin="143" yMin="0" xMax="1060" yMax="1824">
      <component glyphName="D" x="0" y="0" flags="0x1204"/>
      <component glyphName="macron" x="99" y="384" flags="0x1004"/>
    </TTGlyph>
    <TTGlyph name="Delta" xMin="48" yMin="0" xMax="1008" yMax="1322">
      <contour>
        <pt x="389" y="1322" on="1"/>
        <pt x="654" y="1322" on="1"/>
        <pt x="1008" y="0" on="1"/>
        <pt x="48" y="0" on="1"/>
      </contour>
      <contour>
        <pt x="416" y="192" on="1"/>
        <pt x="723" y="192" on="1"/>
        <pt x="557" y="907" on="1"/>
      </contour>
    </TTGlyph>
    <TTGlyph name="E" xMin="146" yMin="0" xMax="942" yMax="1536">
      <contour>
        <pt x="146" y="1536" on="1"/>
        <pt x="926" y="1536" on="1"/>
        <pt x="902" y="1296" on="1"/>
        <pt x="446" y="1296" on="1"/>
        <pt x="446" y="930" on="1"/>
        <pt x="769" y="930" on="1"/>
        <pt x="768" y="672" on="1"/>
        <pt x="446" y="672" on="1"/>
        <pt x="446" y="240" on="1"/>
        <pt x="942" y="240" on="1"/>
        <pt x="918" y="0" on="1"/>
        <pt x="146" y="0" on="1"/>
      </contour>
    </TTGlyph>
    <TTGlyph name="Eacute" xMin="146" yMin="0" xMax="942" yMax="2016">
      <component glyphName="E" x="0" y="0" flags="0x1204"/>
      <component glyphName="acute" x="67" y="384" flags="0x1004"/>
    </TTGlyph>
    <TTGlyph name="Ebreve" xMin="104" yMin="0" xMax="968" yMax="2170">
      <component glyphName="breve" x="8" y="442" flags="0x1004"/>
      <component glyphName="E" x="0" y="0" flags="0x1204"/>
    </TTGlyph>
    <TTGlyph name="Ecaron" xMin="146" yMin="0" xMax="942" yMax="2170">
      <component glyphName="caron" x="8" y="442" flags="0x1004"/>
      <component glyphName="E" x="0" y="0" flags="0x1204"/>
    </TTGlyph>
    <TTGlyph name="Ecircumflex" xMin="146" yMin="0" xMax="942" yMax="2112">
      <component glyphName="E" x="0" y="0" flags="0x1204"/>
      <component glyphName="circumflex" x="19" y="384" flags="0x1004"/>
    </TTGlyph>
    <TTGlyph name="Edieresis" xMin="146" yMin="0" xMax="942" yMax="1920">
      <component glyphName="E" x="0" y="0" flags="0x1204"/>
      <component glyphName="dieresis" x="163" y="384" flags="0x1004"/>
    </TTGlyph>
    <TTGlyph name="Edotaccent" xMin="146" yMin="0" xMax="942" yMax="1978">
      <component glyphName="dotaccent" x="392" y="442" flags="0x1004"/>
      <component glyphName="E" x="0" y="0" flags="0x1204"/>
    </TTGlyph>
    <TTGlyph name="Egrave" xMin="146" yMin="0" xMax="942" yMax="2016">
      <component glyphName="E" x="0" y="0" flags="0x1204"/>
      <component glyphName="grave" x="67" y="384" flags="0x1004"/>
    </TTGlyph>
    <TTGlyph name="Emacron" xMin="146" yMin="0" xMax="942" yMax="1882">
      <component glyphName="macron" x="56" y="442" flags="0x1004"/>
      <component glyphName="E" x="0" y="0" flags="0x1204"/>
    </TTGlyph>
    <TTGlyph name="Eng" xMin="143" yMin="-317" xMax="1106" yMax="1536">
      <contour>
        <pt x="630" y="-84" on="1"/>
        <pt x="672" y="-98" on="0"/>
        <pt x="748" y="-98" on="0"/>
        <pt x="801" y="-76" on="0"/>
        <pt x="831" y="-41" on="0"/>
        <pt x="847" y="19" on="0"/>
        <pt x="852" y="76" on="0"/>
        <pt x="852" y="120" on="1"/>
        <pt x="852" y="143" on="1"/>
        <pt x="411" y="998" on="1"/>
        <pt x="411" y="12" on="1"/>
        <pt x="143" y="0" on="1"/>
        <pt x="143" y="1524" on="1"/>
        <pt x="456" y="1536" on="1"/>
        <pt x="852" y="722" on="1"/>
        <pt x="852" y="1512" on="1"/>
        <pt x="1106" y="1536" on="1"/>
        <pt x="1106" y="95" on="1"/>
        <pt x="1106" y="23" on="0"/>
        <pt x="1091" y="-94" on="0"/>
        <pt x="1051" y="-201" on="0"/>
        <pt x="988" y="-274" on="0"/>
        <pt x="888" y="-317" on="0"/>
        <pt x="822" y="-317" on="1"/>
        <pt x="741" y="-317" on="0"/>
        <pt x="630" y="-287" on="1"/>
      </contour>
    </TTGlyph>
    <TTGlyph name="Eogonek" xMin="146" yMin="-392" xMax="942" yMax="1536">
      <component glyphName="ogonek" x="262" y="-6" flags="0x1004"/>
      <component glyphName="E" x="0" y="0" flags="0x1004"/>
    </TTGlyph>
    <TTGlyph name="Eth" xMin="0" yMin="0" xMax="1060" yMax="1536">
      <contour>
        <pt x="760" y="817" on="1"/>
        <pt x="760" y="896" on="0"/>
        <pt x="748" y="1023" on="0"/>
        <pt x="711" y="1153" on="0"/>
        <pt x="650" y="1241" on="0"/>
        <pt x="547" y="1296" on="0"/>
        <pt x="477" y="1296" on="1"/>
        <pt x="442" y="1296" on="1"/>
        <pt x="442" y="864" on="1"/>
        <pt x="576" y="864" on="1"/>
        <pt x="576" y="672" on="1"/>
        <pt x="442" y="672" on="1"/>
        <pt x="442" y="240" on="1"/>
        <pt x="485" y="240" on="1"/>
        <pt x="552" y="240" on="0"/>
        <pt x="652" y="294" on="0"/>
        <pt x="711" y="380" on="0"/>
        <pt x="747" y="506" on="0"/>
        <pt x="760" y="630" on="0"/>
        <pt x="760" y="705" on="1"/>
      </contour>
      <contour>
        <pt x="457" y="1536" on="1"/>
        <pt x="588" y="1536" on="0"/>
        <pt x="792" y="1465" on="0"/>
        <pt x="931" y="1335" on="0"/>
        <pt x="1020" y="1141" on="0"/>
        <pt x="1060" y="907" on="0"/>
        <pt x="1060" y="762" on="1"/>
        <pt x="1060" y="581" on="0"/>
        <pt x="985" y="292" on="0"/>
        <pt x="817" y="77" on="0"/>
        <pt x="691" y="30" on="1"/>
        <pt x="612" y="0" on="0"/>
        <pt x="510" y="0" on="1"/>
        <pt x="143" y="0" on="1"/>
        <pt x="143" y="672" on="1"/>
        <pt x="0" y="672" on="1"/>
        <pt x="0" y="864" on="1"/>
        <pt x="143" y="864" on="1"/>
        <pt x="143" y="1536" on="1"/>
      </contour>
    </TTGlyph>
    <TTGlyph name="Euro" xMin="0" yMin="-32" xMax="1021" yMax="1568">
      <contour>
        <pt x="0" y="960" on="1"/>
        <pt x="114" y="960" on="1"/>
        <pt x="162" y="1372" on="0"/>
        <pt x="393" y="1516" on="1"/>
        <pt x="476" y="1568" on="0"/>
        <pt x="592" y="1568" on="1"/>
        <pt x="730" y="1568" on="0"/>
        <pt x="916" y="1424" on="0"/>
        <pt x="968" y="1309" on="1"/>
        <pt x="1019" y="1197" on="0"/>
        <pt x="1019" y="1074" on="1"/>
        <pt x="729" y="1059" on="1"/>
        <pt x="729" y="1142" on="0"/>
        <pt x="683" y="1279" on="0"/>
        <pt x="638" y="1310" on="1"/>
        <pt x="612" y="1328" on="0"/>
        <pt x="575" y="1328" on="1"/>
        <pt x="497" y="1328" on="0"/>
        <pt x="455" y="1214" on="1"/>
        <pt x="418" y="1113" on="0"/>
        <pt x="410" y="960" on="1"/>
        <pt x="864" y="960" on="1"/>
        <pt x="864" y="816" on="1"/>
        <pt x="405" y="816" on="1"/>
        <pt x="405" y="760" on="1"/>
        <pt x="405" y="733" on="0"/>
        <pt x="406" y="720" on="1"/>
        <pt x="864" y="720" on="1"/>
        <pt x="864" y="576" on="1"/>
        <pt x="413" y="576" on="1"/>
        <pt x="423" y="457" on="0"/>
        <pt x="470" y="294" on="0"/>
        <pt x="522" y="252" on="1"/>
        <pt x="555" y="225" on="0"/>
        <pt x="604" y="225" on="1"/>
        <pt x="640" y="225" on="0"/>
        <pt x="695" y="255" on="0"/>
        <pt x="728" y="299" on="0"/>
        <pt x="751" y="369" on="0"/>
        <pt x="762" y="427" on="0"/>
        <pt x="766" y="467" on="1"/>
        <pt x="1021" y="443" on="1"/>
        <pt x="1021" y="286" on="0"/>
        <pt x="892" y="63" on="0"/>
        <pt x="778" y="8" on="1"/>
        <pt x="693" y="-32" on="0"/>
        <pt x="585" y="-32" on="1"/>
        <pt x="503" y="-32" on="0"/>
        <pt x="370" y="17" on="0"/>
        <pt x="275" y="107" on="0"/>
        <pt x="210" y="211" on="0"/>
        <pt x="184" y="278" on="1"/>
        <pt x="136" y="402" on="0"/>
        <pt x="116" y="576" on="1"/>
        <pt x="0" y="576" on="1"/>
        <pt x="0" y="720" on="1"/>
        <pt x="106" y="720" on="1"/>
        <pt x="105" y="733" on="0"/>
        <pt x="105" y="760" on="1"/>
        <pt x="105" y="816" on="1"/>
        <pt x="0" y="816" on="1"/>
      </contour>
    </TTGlyph>
    <TTGlyph name="F" xMin="146" yMin="-12" xMax="926" yMax="1536">
      <contour>
        <pt x="146" y="1536" on="1"/>
        <pt x="926" y="1536" on="1"/>
        <pt x="902" y="1295" on="1"/>
        <pt x="446" y="1295" on="1"/>
        <pt x="446" y="893" on="1"/>
        <pt x="768" y="893" on="1"/>
        <pt x="768" y="638" on="1"/>
        <pt x="446" y="638" on="1"/>
        <pt x="446" y="12" on="1"/>
        <pt x="146" y="-12" on="1"/>
      </contour>
    </TTGlyph>
    <TTGlyph name="G" xMin="104" yMin="-32" xMax="1054" yMax="1568">
      <contour>
        <pt x="869" y="285" on="1"/>
        <pt x="857" y="138" on="0"/>
        <pt x="693" y="-32" on="0"/>
        <pt x="544" y="-32" on="1"/>
        <pt x="314" y="-32" on="0"/>
        <pt x="202" y="214" on="1"/>
        <pt x="104" y="429" on="0"/>
        <pt x="104" y="774" on="1"/>
        <pt x="104" y="986" on="0"/>
        <pt x="209" y="1334" on="0"/>
        <pt x="310" y="1441" on="1"/>
        <pt x="430" y="1568" on="0"/>
        <pt x="603" y="1568" on="1"/>
        <pt x="772" y="1568" on="0"/>
        <pt x="981" y="1386" on="0"/>
        <pt x="1022" y="1234" on="1"/>
        <pt x="1048" y="1136" on="0"/>
        <pt x="1048" y="1034" on="1"/>
        <pt x="762" y="1015" on="1"/>
        <pt x="761" y="1026" on="0"/>
        <pt x="749" y="1120" on="0"/>
        <pt x="744" y="1152" on="0"/>
        <pt x="727" y="1226" on="0"/>
        <pt x="710" y="1261" on="0"/>
        <pt x="679" y="1304" on="0"/>
        <pt x="659" y="1316" on="1"/>
        <pt x="632" y="1332" on="0"/>
        <pt x="599" y="1332" on="1"/>
        <pt x="527" y="1332" on="0"/>
        <pt x="477" y="1235" on="1"/>
        <pt x="404" y="1088" on="0"/>
        <pt x="404" y="758" on="1"/>
        <pt x="404" y="669" on="0"/>
        <pt x="405" y="592" on="0"/>
        <pt x="416" y="436" on="0"/>
        <pt x="438" y="352" on="0"/>
        <pt x="484" y="259" on="0"/>
        <pt x="552" y="209" on="0"/>
        <pt x="601" y="209" on="1"/>
        <pt x="648" y="209" on="0"/>
        <pt x="716" y="263" on="0"/>
        <pt x="750" y="355" on="0"/>
        <pt x="765" y="452" on="0"/>
        <pt x="765" y="508" on="1"/>
        <pt x="613" y="508" on="1"/>
        <pt x="637" y="768" on="1"/>
        <pt x="1054" y="768" on="1"/>
        <pt x="1054" y="12" on="1"/>
        <pt x="939" y="0" on="1"/>
        <pt x="923" y="63" on="0"/>
      </contour>
    </TTGlyph>
    <TTGlyph name="Gbreve" xMin="104" yMin="-32" xMax="1054" yMax="2170">
      <component glyphName="breve" x="75" y="442" flags="0x1004"/>
      <component glyphName="G" x="0" y="0" flags="0x1204"/>
    </TTGlyph>
    <TTGlyph name="Gcircumflex" xMin="104" yMin="-32" xMax="1054" yMax="2170">
      <component glyphName="circumflex" x="75" y="442" flags="0x1004"/>
      <component glyphName="G" x="0" y="0" flags="0x1204"/>
    </TTGlyph>
    <TTGlyph name="Gcommaaccent" xMin="104" yMin="-730" xMax="1054" yMax="1568">
      <component glyphName="comma" x="304" y="-442" flags="0x1004"/>
      <component glyphName="G" x="0" y="0" flags="0x1204"/>
    </TTGlyph>
    <TTGlyph name="Gdotaccent" xMin="104" yMin="-32" xMax="1054" yMax="1978">
      <component glyphName="dotaccent" x="459" y="442" flags="0x1004"/>
      <component glyphName="G" x="0" y="0" flags="0x1204"/>
    </TTGlyph>
    <TTGlyph name="H" xMin="143" yMin="-12" xMax="1031" yMax="1536">
      <contour>
        <pt x="731" y="639" on="1"/>
        <pt x="443" y="639" on="1"/>
        <pt x="443" y="12" on="1"/>
        <pt x="143" y="-12" on="1"/>
        <pt x="143" y="1512" on="1"/>
        <pt x="443" y="1536" on="1"/>
        <pt x="443" y="913" on="1"/>
        <pt x="731" y="913" on="1"/>
        <pt x="731" y="1512" on="1"/>
        <pt x="1031" y="1536" on="1"/>
        <pt x="1031" y="12" on="1"/>
        <pt x="731" y="-12" on="1"/>
      </contour>
    </TTGlyph>
    <TTGlyph name="Hbar" xMin="143" yMin="-12" xMax="1031" yMax="1824">
      <component glyphName="H" x="0" y="0" flags="0x1204"/>
      <component glyphName="macron" x="106" y="384" flags="0x1004"/>
    </TTGlyph>
    <TTGlyph name="Hcircumflex" xMin="143" yMin="-12" xMax="1073" yMax="2170">
      <component glyphName="circumflex" x="209" y="442" flags="0x1004"/>
      <component glyphName="H" x="0" y="0" flags="0x1204"/>
    </TTGlyph>
    <TTGlyph name="I" xMin="145" yMin="-12" xMax="445" yMax="1536">
      <contour>
        <pt x="145" y="1512" on="1"/>
        <pt x="445" y="1536" on="1"/>
        <pt x="445" y="12" on="1"/>
        <pt x="145" y="-12" on="1"/>
      </contour>
    </TTGlyph>
    <TTGlyph name="IJ" xMin="145" yMin="-28" xMax="1136" yMax="1536">
      <component glyphName="I" x="0" y="0" flags="0x1004"/>
      <component glyphName="J" x="588" y="0" flags="0x1004"/>
    </TTGlyph>
    <TTGlyph name="Iacute" xMin="7" yMin="-12" xMax="583" yMax="2016">
      <component glyphName="I" x="0" y="0" flags="0x1204"/>
      <component glyphName="acute" x="-185" y="384" flags="0x1004"/>
    </TTGlyph>
    <TTGlyph name="Iacute_Jacute" xMin="7" yMin="-12" xMax="583" yMax="2016">
      <component glyphName="I" x="0" y="0" flags="0x1204"/>
      <component glyphName="acute" x="-185" y="384" flags="0x1004"/>
    </TTGlyph>
    <TTGlyph name="Ibreve" xMin="13" yMin="-12" xMax="877" yMax="2170">
      <component glyphName="breve" x="-83" y="442" flags="0x1004"/>
      <component glyphName="I" x="0" y="0" flags="0x1204"/>
    </TTGlyph>
    <TTGlyph name="Icircumflex" xMin="-41" yMin="-12" xMax="631" yMax="2112">
      <component glyphName="I" x="0" y="0" flags="0x1204"/>
      <component glyphName="circumflex" x="-233" y="384" flags="0x1004"/>
    </TTGlyph>
    <TTGlyph name="Idieresis" xMin="-89" yMin="-12" xMax="679" yMax="1920">
      <component glyphName="I" x="0" y="0" flags="0x1204"/>
      <component glyphName="dieresis" x="-89" y="384" flags="0x1004"/>
    </TTGlyph>
    <TTGlyph name="Idotaccent" xMin="145" yMin="-12" xMax="589" yMax="1978">
      <component glyphName="dotaccent" x="301" y="442" flags="0x1004"/>
      <component glyphName="I" x="0" y="0" flags="0x1204"/>
    </TTGlyph>
    <TTGlyph name="Igrave" xMin="7" yMin="-12" xMax="583" yMax="2016">
      <component glyphName="I" x="0" y="0" flags="0x1204"/>
      <component glyphName="grave" x="-185" y="384" flags="0x1004"/>
    </TTGlyph>
    <TTGlyph name="Imacron" xMin="145" yMin="-12" xMax="733" yMax="1882">
      <component glyphName="macron" x="-35" y="442" flags="0x1004"/>
      <component glyphName="I" x="0" y="0" flags="0x1204"/>
    </TTGlyph>
    <TTGlyph name="Iogonek" xMin="-15" yMin="-404" xMax="445" yMax="1536">
      <component glyphName="ogonek" x="-206" y="-18" flags="0x1004"/>
      <component glyphName="I" x="0" y="0" flags="0x1204"/>
    </TTGlyph>
    <TTGlyph name="Itilde" xMin="126" yMin="-12" xMax="764" yMax="1997">
      <component glyphName="tilde" x="0" y="460" flags="0x1004"/>
      <component glyphName="I" x="0" y="0" flags="0x1204"/>
    </TTGlyph>
    <TTGlyph name="J" xMin="56" yMin="-28" xMax="548" yMax="1536">
      <contour>
        <pt x="56" y="205" on="1"/>
        <pt x="98" y="191" on="0"/>
        <pt x="136" y="191" on="1"/>
        <pt x="163" y="191" on="0"/>
        <pt x="202" y="207" on="0"/>
        <pt x="226" y="241" on="0"/>
        <pt x="240" y="275" on="0"/>
        <pt x="247" y="334" on="0"/>
        <pt x="248" y="374" on="0"/>
        <pt x="248" y="409" on="1"/>
        <pt x="248" y="1512" on="1"/>
        <pt x="548" y="1536" on="1"/>
        <pt x="548" y="384" on="1"/>
        <pt x="548" y="290" on="0"/>
        <pt x="519" y="148" on="0"/>
        <pt x="454" y="33" on="0"/>
        <pt x="334" y="-28" on="0"/>
        <pt x="248" y="-28" on="1"/>
        <pt x="167" y="-28" on="0"/>
        <pt x="56" y="2" on="1"/>
      </contour>
    </TTGlyph>
    <TTGlyph name="Jcircumflex" xMin="56" yMin="-28" xMax="884" yMax="2170">
      <component glyphName="circumflex" x="20" y="442" flags="0x1004"/>
      <component glyphName="J" x="0" y="0" flags="0x1204"/>
    </TTGlyph>
    <TTGlyph name="K" xMin="141" yMin="-27" xMax="1130" yMax="1536">
      <contour>
        <pt x="589" y="666" on="1"/>
        <pt x="441" y="401" on="1"/>
        <pt x="441" y="0" on="1"/>
        <pt x="141" y="0" on="1"/>
        <pt x="141" y="1512" on="1"/>
        <pt x="441" y="1536" on="1"/>
        <pt x="441" y="864" on="1"/>
        <pt x="805" y="1536" on="1"/>
        <pt x="1125" y="1536" on="1"/>
        <pt x="796" y="902" on="1"/>
        <pt x="1130" y="43" on="1"/>
        <pt x="825" y="-27" on="1"/>
      </contour>
    </TTGlyph>
    <TTGlyph name="Kcommaaccent" xMin="141" yMin="-725" xMax="1130" yMax="1536">
      <component glyphName="comma" x="585" y="-437" flags="0x1004"/>
      <component glyphName="K" x="0" y="0" flags="0x1204"/>
    </TTGlyph>
    <TTGlyph name="L" xMin="145" yMin="0" xMax="964" yMax="1536">
      <contour>
        <pt x="444" y="1536" on="1"/>
        <pt x="444" y="240" on="1"/>
        <pt x="964" y="240" on="1"/>
        <pt x="916" y="0" on="1"/>
        <pt x="145" y="0" on="1"/>
        <pt x="145" y="1512" on="1"/>
      </contour>
    </TTGlyph>
    <TTGlyph name="Lacute" xMin="145" yMin="0" xMax="1083" yMax="2074">
      <component glyphName="acute" x="314" y="442" flags="0x1004"/>
      <component glyphName="L" x="0" y="0" flags="0x1204"/>
    </TTGlyph>
    <TTGlyph name="Lcaron" xMin="145" yMin="0" xMax="1435" yMax="1568">
      <component glyphName="comma" x="1051" y="1280" flags="0x1004"/>
      <component glyphName="L" x="0" y="0" flags="0x1004"/>
    </TTGlyph>
    <TTGlyph name="Lcommaaccent" xMin="145" yMin="-698" xMax="964" yMax="1536">
      <component glyphName="comma" x="290" y="-410" flags="0x1004"/>
      <component glyphName="L" x="0" y="0" flags="0x1204"/>
    </TTGlyph>
    <TTGlyph name="Ldot" xMin="145" yMin="0" xMax="964" yMax="1536">
      <component glyphName="periodcentered" x="410" y="160" flags="0x1004"/>
      <component glyphName="L" x="0" y="0" flags="0x1204"/>
    </TTGlyph>
    <TTGlyph name="Lslash" xMin="0" yMin="0" xMax="964" yMax="1536">
      <contour>
        <pt x="0" y="910" on="1"/>
        <pt x="672" y="1006" on="1"/>
        <pt x="672" y="768" on="1"/>
        <pt x="0" y="672" on="1"/>
      </contour>
      <contour>
        <pt x="444" y="1536" on="1"/>
        <pt x="444" y="240" on="1"/>
        <pt x="964" y="240" on="1"/>
        <pt x="916" y="0" on="1"/>
        <pt x="145" y="0" on="1"/>
        <pt x="145" y="1512" on="1"/>
      </contour>
    </TTGlyph>
    <TTGlyph name="M" xMin="143" yMin="-12" xMax="1481" yMax="1534">
      <contour>
        <pt x="391" y="1144" on="1"/>
        <pt x="391" y="12" on="1"/>
        <pt x="143" y="0" on="1"/>
        <pt x="143" y="1522" on="1"/>
        <pt x="582" y="1534" on="1"/>
        <pt x="836" y="584" on="1"/>
        <pt x="1080" y="1500" on="1"/>
        <pt x="1481" y="1524" on="1"/>
        <pt x="1481" y="12" on="1"/>
        <pt x="1171" y="-12" on="1"/>
        <pt x="1171" y="1140" on="1"/>
        <pt x="884" y="0" on="1"/>
        <pt x="699" y="0" on="1"/>
      </contour>
    </TTGlyph>
    <TTGlyph name="N" xMin="143" yMin="-12" xMax="1106" yMax="1536">
      <contour>
        <pt x="411" y="948" on="1"/>
        <pt x="411" y="12" on="1"/>
        <pt x="143" y="0" on="1"/>
        <pt x="143" y="1524" on="1"/>
        <pt x="456" y="1536" on="1"/>
        <pt x="852" y="622" on="1"/>
        <pt x="852" y="1512" on="1"/>
        <pt x="1106" y="1536" on="1"/>
        <pt x="1106" y="12" on="1"/>
        <pt x="860" y="-12" on="1"/>
      </contour>
    </TTGlyph>
    <TTGlyph name="Nacute" xMin="143" yMin="-12" xMax="1309" yMax="2074">
      <component glyphName="acute" x="541" y="442" flags="0x1004"/>
      <component glyphName="N" x="0" y="0" flags="0x1204"/>
    </TTGlyph>
    <TTGlyph name="Ncaron" xMin="143" yMin="-12" xMax="1117" yMax="2170">
      <component glyphName="caron" x="253" y="442" flags="0x1004"/>
      <component glyphName="N" x="0" y="0" flags="0x1204"/>
    </TTGlyph>
    <TTGlyph name="Ncommaaccent" xMin="143" yMin="-710" xMax="1106" yMax="1536">
      <component glyphName="comma" x="620" y="-422" flags="0x1004"/>
      <component glyphName="N" x="0" y="0" flags="0x1204"/>
    </TTGlyph>
    <TTGlyph name="Ntilde" xMin="143" yMin="-12" xMax="1106" yMax="1921">
      <component glyphName="N" x="0" y="0" flags="0x1204"/>
      <component glyphName="tilde" x="179" y="384" flags="0x1004"/>
    </TTGlyph>
    <TTGlyph name="O" xMin="108" yMin="-32" xMax="1061" yMax="1568">
      <contour>
        <pt x="583" y="-32" on="1"/>
        <pt x="501" y="-32" on="0"/>
        <pt x="367" y="16" on="0"/>
        <pt x="275" y="94" on="0"/>
        <pt x="203" y="211" on="0"/>
        <pt x="160" y="333" on="0"/>
        <pt x="144" y="408" on="1"/>
        <pt x="108" y="577" on="0"/>
        <pt x="108" y="820" on="1"/>
        <pt x="108" y="1359" on="0"/>
        <pt x="368" y="1514" on="1"/>
        <pt x="458" y="1568" on="0"/>
        <pt x="583" y="1568" on="1"/>
        <pt x="826" y="1568" on="0"/>
        <pt x="948" y="1363" on="1"/>
        <pt x="1061" y="1174" on="0"/>
        <pt x="1061" y="820" on="1"/>
        <pt x="1061" y="703" on="0"/>
        <pt x="1046" y="507" on="0"/>
        <pt x="1005" y="308" on="0"/>
        <pt x="938" y="156" on="0"/>
        <pt x="828" y="34" on="0"/>
        <pt x="682" y="-32" on="0"/>
      </contour>
      <contour>
        <pt x="583" y="223" on="1"/>
        <pt x="647" y="223" on="0"/>
        <pt x="714" y="309" on="0"/>
        <pt x="732" y="384" on="1"/>
        <pt x="746" y="441" on="0"/>
        <pt x="759" y="600" on="0"/>
        <pt x="761" y="713" on="0"/>
        <pt x="761" y="820" on="1"/>
        <pt x="761" y="907" on="0"/>
        <pt x="756" y="1023" on="0"/>
        <pt x="737" y="1170" on="0"/>
        <pt x="690" y="1274" on="0"/>
        <pt x="654" y="1304" on="1"/>
        <pt x="623" y="1329" on="0"/>
        <pt x="583" y="1329" on="1"/>
        <pt x="552" y="1329" on="0"/>
        <pt x="502" y="1304" on="0"/>
        <pt x="468" y="1254" on="0"/>
        <pt x="444" y="1202" on="0"/>
        <pt x="428" y="1126" on="0"/>
        <pt x="420" y="1073" on="0"/>
        <pt x="416" y="1036" on="1"/>
        <pt x="407" y="949" on="0"/>
        <pt x="407" y="820" on="1"/>
        <pt x="407" y="714" on="0"/>
        <pt x="409" y="601" on="0"/>
        <pt x="422" y="441" on="0"/>
        <pt x="435" y="384" on="1"/>
        <pt x="453" y="309" on="0"/>
        <pt x="519" y="223" on="0"/>
      </contour>
    </TTGlyph>
    <TTGlyph name="OE" xMin="120" yMin="-27" xMax="1592" yMax="1546">
      <contour>
        <pt x="595" y="1546" on="1"/>
        <pt x="722" y="1546" on="0"/>
        <pt x="802" y="1424" on="1"/>
        <pt x="802" y="1536" on="1"/>
        <pt x="1576" y="1536" on="1"/>
        <pt x="1576" y="1296" on="1"/>
        <pt x="1102" y="1296" on="1"/>
        <pt x="1102" y="930" on="1"/>
        <pt x="1401" y="930" on="1"/>
        <pt x="1401" y="672" on="1"/>
        <pt x="1102" y="672" on="1"/>
        <pt x="1102" y="240" on="1"/>
        <pt x="1592" y="240" on="1"/>
        <pt x="1592" y="0" on="1"/>
        <pt x="802" y="0" on="1"/>
        <pt x="802" y="96" on="1"/>
        <pt x="724" y="-27" on="0"/>
        <pt x="595" y="-27" on="1"/>
        <pt x="514" y="-27" on="0"/>
        <pt x="381" y="19" on="0"/>
        <pt x="288" y="96" on="0"/>
        <pt x="216" y="210" on="0"/>
        <pt x="172" y="330" on="0"/>
        <pt x="156" y="404" on="1"/>
        <pt x="120" y="570" on="0"/>
        <pt x="120" y="810" on="1"/>
        <pt x="120" y="1336" on="0"/>
        <pt x="380" y="1492" on="1"/>
        <pt x="470" y="1546" on="0"/>
      </contour>
      <contour>
        <pt x="595" y="228" on="1"/>
        <pt x="636" y="228" on="0"/>
        <pt x="701" y="258" on="0"/>
        <pt x="742" y="305" on="0"/>
        <pt x="772" y="376" on="0"/>
        <pt x="787" y="446" on="0"/>
        <pt x="792" y="490" on="1"/>
        <pt x="802" y="583" on="0"/>
        <pt x="802" y="681" on="1"/>
        <pt x="802" y="884" on="1"/>
        <pt x="802" y="1212" on="0"/>
        <pt x="669" y="1288" on="1"/>
        <pt x="636" y="1307" on="0"/>
        <pt x="595" y="1307" on="1"/>
        <pt x="558" y="1307" on="0"/>
        <pt x="501" y="1268" on="0"/>
        <pt x="468" y="1214" on="0"/>
        <pt x="443" y="1128" on="0"/>
        <pt x="433" y="1064" on="0"/>
        <pt x="428" y="1020" on="1"/>
        <pt x="419" y="935" on="0"/>
        <pt x="419" y="810" on="1"/>
        <pt x="419" y="706" on="0"/>
        <pt x="421" y="596" on="0"/>
        <pt x="434" y="440" on="0"/>
        <pt x="447" y="384" on="1"/>
        <pt x="464" y="311" on="0"/>
        <pt x="531" y="228" on="0"/>
      </contour>
    </TTGlyph>
    <TTGlyph name="Oacute" xMin="108" yMin="-32" xMax="1061" yMax="2016">
      <component glyphName="O" x="0" y="0" flags="0x1204"/>
      <component glyphName="acute" x="104" y="384" flags="0x1004"/>
    </TTGlyph>
    <TTGlyph name="Obreve" xMin="108" yMin="-32" xMax="1061" yMax="2170">
      <component glyphName="breve" x="55" y="442" flags="0x1004"/>
      <component glyphName="O" x="0" y="0" flags="0x1204"/>
    </TTGlyph>
    <TTGlyph name="Ocircumflex" xMin="108" yMin="-32" xMax="1061" yMax="2112">
      <component glyphName="O" x="0" y="0" flags="0x1204"/>
      <component glyphName="circumflex" x="56" y="384" flags="0x1004"/>
    </TTGlyph>
    <TTGlyph name="Odieresis" xMin="108" yMin="-32" xMax="1061" yMax="1920">
      <component glyphName="O" x="0" y="0" flags="0x1204"/>
      <component glyphName="dieresis" x="200" y="384" flags="0x1004"/>
    </TTGlyph>
    <TTGlyph name="Ograve" xMin="108" yMin="-32" xMax="1061" yMax="2016">
      <component glyphName="O" x="0" y="0" flags="0x1204"/>
      <component glyphName="grave" x="104" y="384" flags="0x1004"/>
    </TTGlyph>
    <TTGlyph name="Ohungarumlaut" xMin="108" yMin="-32" xMax="1219" yMax="2268">
      <component glyphName="hungarumlaut" x="124" y="540" flags="0x1004"/>
      <component glyphName="O" x="0" y="0" flags="0x1204"/>
    </TTGlyph>
    <TTGlyph name="Omacron" xMin="108" yMin="-32" xMax="1061" yMax="1882">
      <component glyphName="macron" x="103" y="442" flags="0x1004"/>
      <component glyphName="O" x="0" y="0" flags="0x1204"/>
    </TTGlyph>
    <TTGlyph name="Omega" xMin="0" yMin="0" xMax="0" yMax="0">
      <component glyphName="uni03A9" x="0" y="0" flags="0x1204"/>
    </TTGlyph>
    <TTGlyph name="Oslash" xMin="50" yMin="-32" xMax="1151" yMax="1568">
      <contour>
        <pt x="583" y="1568" on="1"/>
        <pt x="852" y="1568" on="0"/>
        <pt x="972" y="1317" on="1"/>
        <pt x="1056" y="1419" on="1"/>
        <pt x="1151" y="1327" on="1"/>
        <pt x="1023" y="1171" on="1"/>
        <pt x="1061" y="1014" on="0"/>
        <pt x="1061" y="820" on="1"/>
        <pt x="1061" y="703" on="0"/>
        <pt x="1046" y="507" on="0"/>
        <pt x="1005" y="308" on="0"/>
        <pt x="938" y="156" on="0"/>
        <pt x="828" y="34" on="0"/>
        <pt x="682" y="-32" on="0"/>
        <pt x="583" y="-32" on="1"/>
        <pt x="447" y="-32" on="0"/>
        <pt x="273" y="87" on="0"/>
        <pt x="217" y="193" on="1"/>
        <pt x="145" y="106" on="1"/>
        <pt x="50" y="198" on="1"/>
        <pt x="162" y="334" on="1"/>
        <pt x="108" y="523" on="0"/>
        <pt x="108" y="820" on="1"/>
        <pt x="108" y="1359" on="0"/>
        <pt x="368" y="1514" on="1"/>
        <pt x="458" y="1568" on="0"/>
      </contour>
      <contour>
        <pt x="407" y="820" on="1"/>
        <pt x="407" y="723" on="1"/>
        <pt x="407" y="692" on="0"/>
        <pt x="409" y="634" on="1"/>
        <pt x="750" y="1048" on="1"/>
        <pt x="729" y="1244" on="0"/>
        <pt x="652" y="1306" on="1"/>
        <pt x="625" y="1329" on="0"/>
        <pt x="583" y="1329" on="1"/>
        <pt x="552" y="1329" on="0"/>
        <pt x="502" y="1304" on="0"/>
        <pt x="468" y="1254" on="0"/>
        <pt x="444" y="1202" on="0"/>
        <pt x="428" y="1126" on="0"/>
        <pt x="420" y="1073" on="0"/>
        <pt x="416" y="1036" on="1"/>
        <pt x="407" y="949" on="0"/>
      </contour>
      <contour>
        <pt x="424" y="444" on="1"/>
        <pt x="431" y="396" on="0"/>
        <pt x="450" y="326" on="0"/>
        <pt x="484" y="259" on="0"/>
        <pt x="543" y="223" on="0"/>
        <pt x="583" y="223" on="1"/>
        <pt x="647" y="223" on="0"/>
        <pt x="714" y="309" on="0"/>
        <pt x="732" y="384" on="1"/>
        <pt x="746" y="441" on="0"/>
        <pt x="759" y="600" on="0"/>
        <pt x="761" y="713" on="0"/>
        <pt x="761" y="820" on="1"/>
        <pt x="761" y="853" on="1"/>
      </contour>
    </TTGlyph>
    <TTGlyph name="Oslashacute" xMin="50" yMin="-32" xMax="1151" yMax="2074">
      <component glyphName="acute" x="360" y="442" flags="0x1004"/>
      <component glyphName="Oslash" x="0" y="0" flags="0x1204"/>
    </TTGlyph>
    <TTGlyph name="Otilde" xMin="108" yMin="-32" xMax="1061" yMax="1921">
      <component glyphName="O" x="0" y="0" flags="0x1204"/>
      <component glyphName="tilde" x="140" y="384" flags="0x1004"/>
    </TTGlyph>
    <TTGlyph name="P" xMin="145" yMin="-12" xMax="1053" yMax="1536">
      <contour>
        <pt x="145" y="1536" on="1"/>
        <pt x="337" y="1536" on="1"/>
        <pt x="447" y="1536" on="0"/>
        <pt x="593" y="1529" on="0"/>
        <pt x="764" y="1505" on="0"/>
        <pt x="891" y="1449" on="0"/>
        <pt x="936" y="1406" on="1"/>
        <pt x="1053" y="1294" on="0"/>
        <pt x="1053" y="1075" on="1"/>
        <pt x="1053" y="848" on="0"/>
        <pt x="811" y="625" on="0"/>
        <pt x="584" y="609" on="1"/>
        <pt x="504" y="604" on="0"/>
        <pt x="445" y="604" on="1"/>
        <pt x="445" y="12" on="1"/>
        <pt x="145" y="-12" on="1"/>
      </contour>
      <contour>
        <pt x="498" y="847" on="1"/>
        <pt x="625" y="847" on="0"/>
        <pt x="754" y="956" on="0"/>
        <pt x="754" y="1077" on="1"/>
        <pt x="754" y="1203" on="0"/>
        <pt x="628" y="1296" on="0"/>
        <pt x="490" y="1296" on="1"/>
        <pt x="447" y="1296" on="1"/>
        <pt x="447" y="847" on="1"/>
      </contour>
    </TTGlyph>
    <TTGlyph name="Q" xMin="73" yMin="-295" xMax="1031" yMax="1568">
      <contour>
        <pt x="638" y="-24" on="1"/>
        <pt x="638" y="-26" on="0"/>
        <pt x="560" y="-32" on="0"/>
        <pt x="548" y="-32" on="1"/>
        <pt x="466" y="-32" on="0"/>
        <pt x="332" y="18" on="0"/>
        <pt x="240" y="100" on="0"/>
        <pt x="168" y="221" on="0"/>
        <pt x="125" y="344" on="0"/>
        <pt x="109" y="420" on="1"/>
        <pt x="73" y="591" on="0"/>
        <pt x="73" y="820" on="1"/>
        <pt x="73" y="1270" on="0"/>
        <pt x="278" y="1464" on="1"/>
        <pt x="387" y="1568" on="0"/>
        <pt x="548" y="1568" on="1"/>
        <pt x="860" y="1568" on="0"/>
        <pt x="976" y="1194" on="1"/>
        <pt x="1026" y="1032" on="0"/>
        <pt x="1026" y="820" on="1"/>
        <pt x="1026" y="284" on="0"/>
        <pt x="830" y="84" on="1"/>
        <pt x="842" y="12" on="0"/>
        <pt x="942" y="-50" on="0"/>
        <pt x="1031" y="-63" on="1"/>
        <pt x="1031" y="-293" on="1"/>
        <pt x="1024" y="-293" on="0"/>
        <pt x="998" y="-295" on="0"/>
        <pt x="992" y="-295" on="1"/>
        <pt x="715" y="-295" on="0"/>
      </contour>
      <contour>
        <pt x="548" y="223" on="1"/>
        <pt x="616" y="223" on="0"/>
        <pt x="685" y="315" on="0"/>
        <pt x="702" y="393" on="1"/>
        <pt x="713" y="445" on="0"/>
        <pt x="725" y="592" on="0"/>
        <pt x="726" y="693" on="0"/>
        <pt x="726" y="789" on="1"/>
        <pt x="726" y="810" on="0"/>
        <pt x="726" y="820" on="1"/>
        <pt x="726" y="909" on="0"/>
        <pt x="721" y="1021" on="0"/>
        <pt x="703" y="1170" on="0"/>
        <pt x="658" y="1273" on="0"/>
        <pt x="622" y="1304" on="1"/>
        <pt x="591" y="1330" on="0"/>
        <pt x="548" y="1330" on="1"/>
        <pt x="522" y="1330" on="0"/>
        <pt x="478" y="1315" on="0"/>
        <pt x="445" y="1279" on="0"/>
        <pt x="419" y="1244" on="0"/>
        <pt x="400" y="1181" on="0"/>
        <pt x="387" y="1136" on="0"/>
        <pt x="379" y="1055" on="0"/>
        <pt x="374" y="1010" on="0"/>
        <pt x="372" y="922" on="0"/>
        <pt x="372" y="887" on="0"/>
        <pt x="372" y="845" on="1"/>
        <pt x="372" y="828" on="0"/>
        <pt x="372" y="820" on="1"/>
        <pt x="372" y="710" on="0"/>
        <pt x="373" y="611" on="0"/>
        <pt x="384" y="449" on="0"/>
        <pt x="396" y="393" on="1"/>
        <pt x="413" y="314" on="0"/>
        <pt x="480" y="223" on="0"/>
      </contour>
    </TTGlyph>
    <TTGlyph name="R" xMin="142" yMin="-27" xMax="1127" yMax="1536">
      <contour>
        <pt x="1070" y="1108" on="1"/>
        <pt x="1070" y="964" on="0"/>
        <pt x="955" y="779" on="0"/>
        <pt x="850" y="719" on="1"/>
        <pt x="850" y="718" on="0"/>
        <pt x="862" y="689" on="1"/>
        <pt x="1082" y="158" on="0"/>
        <pt x="1127" y="53" on="1"/>
        <pt x="832" y="-27" on="1"/>
        <pt x="558" y="673" on="1"/>
        <pt x="441" y="673" on="1"/>
        <pt x="441" y="12" on="1"/>
        <pt x="142" y="-12" on="1"/>
        <pt x="142" y="1524" on="1"/>
        <pt x="506" y="1536" on="1"/>
        <pt x="912" y="1536" on="0"/>
        <pt x="1030" y="1301" on="1"/>
        <pt x="1070" y="1221" on="0"/>
      </contour>
      <contour>
        <pt x="770" y="1105" on="1"/>
        <pt x="770" y="1296" on="0"/>
        <pt x="581" y="1296" on="1"/>
        <pt x="441" y="1296" on="1"/>
        <pt x="441" y="895" on="1"/>
        <pt x="543" y="895" on="1"/>
        <pt x="659" y="895" on="0"/>
        <pt x="770" y="993" on="0"/>
      </contour>
    </TTGlyph>
    <TTGlyph name="Racute" xMin="142" yMin="-27" xMax="1127" yMax="2074">
      <component glyphName="acute" x="266" y="442" flags="0x1004"/>
      <component glyphName="R" x="0" y="0" flags="0x1204"/>
    </TTGlyph>
    <TTGlyph name="Rcaron" xMin="142" yMin="-27" xMax="1127" yMax="2170">
      <component glyphName="caron" x="-22" y="442" flags="0x1004"/>
      <component glyphName="R" x="0" y="0" flags="0x1204"/>
    </TTGlyph>
    <TTGlyph name="Rcommaaccent" xMin="142" yMin="-725" xMax="1127" yMax="1536">
      <component glyphName="comma" x="592" y="-437" flags="0x1004"/>
      <component glyphName="R" x="0" y="0" flags="0x1204"/>
    </TTGlyph>
    <TTGlyph name="S" xMin="88" yMin="-32" xMax="1078" yMax="1568">
      <contour>
        <pt x="779" y="1141" on="1"/>
        <pt x="774" y="1152" on="0"/>
        <pt x="751" y="1205" on="0"/>
        <pt x="738" y="1229" on="0"/>
        <pt x="714" y="1272" on="0"/>
        <pt x="690" y="1294" on="0"/>
        <pt x="656" y="1319" on="0"/>
        <pt x="612" y="1329" on="0"/>
        <pt x="586" y="1329" on="1"/>
        <pt x="519" y="1329" on="0"/>
        <pt x="447" y="1241" on="0"/>
        <pt x="447" y="1169" on="1"/>
        <pt x="447" y="1074" on="0"/>
        <pt x="541" y="1018" on="1"/>
        <pt x="789" y="873" on="1"/>
        <pt x="948" y="782" on="0"/>
        <pt x="1020" y="659" on="1"/>
        <pt x="1072" y="570" on="0"/>
        <pt x="1078" y="463" on="1"/>
        <pt x="1078" y="293" on="0"/>
        <pt x="917" y="58" on="0"/>
        <pt x="782" y="4" on="1"/>
        <pt x="692" y="-32" on="0"/>
        <pt x="588" y="-32" on="1"/>
        <pt x="311" y="-32" on="0"/>
        <pt x="162" y="200" on="1"/>
        <pt x="115" y="273" on="0"/>
        <pt x="88" y="352" on="1"/>
        <pt x="342" y="471" on="1"/>
        <pt x="345" y="467" on="0"/>
        <pt x="380" y="407" on="0"/>
        <pt x="391" y="391" on="0"/>
        <pt x="423" y="341" on="0"/>
        <pt x="442" y="319" on="0"/>
        <pt x="474" y="283" on="0"/>
        <pt x="504" y="258" on="0"/>
        <pt x="521" y="248" on="1"/>
        <pt x="561" y="223" on="0"/>
        <pt x="616" y="223" on="1"/>
        <pt x="700" y="223" on="0"/>
        <pt x="740" y="318" on="1"/>
        <pt x="752" y="345" on="0"/>
        <pt x="752" y="376" on="1"/>
        <pt x="752" y="490" on="0"/>
        <pt x="650" y="557" on="1"/>
        <pt x="381" y="716" on="1"/>
        <pt x="199" y="820" on="0"/>
        <pt x="144" y="986" on="1"/>
        <pt x="125" y="1042" on="0"/>
        <pt x="125" y="1108" on="1"/>
        <pt x="125" y="1266" on="0"/>
        <pt x="283" y="1485" on="0"/>
        <pt x="412" y="1534" on="1"/>
        <pt x="502" y="1568" on="0"/>
        <pt x="602" y="1568" on="1"/>
        <pt x="768" y="1568" on="0"/>
        <pt x="983" y="1401" on="0"/>
        <pt x="1033" y="1256" on="1"/>
      </contour>
    </TTGlyph>
    <TTGlyph name="Sacute" xMin="88" yMin="-32" xMax="1130" yMax="2074">
      <component glyphName="acute" x="362" y="442" flags="0x1004"/>
      <component glyphName="S" x="0" y="0" flags="0x1204"/>
    </TTGlyph>
    <TTGlyph name="Scaron" xMin="88" yMin="-32" xMax="1078" yMax="5088">
      <component glyphName="S" x="0" y="0" flags="0x1204"/>
      <component glyphName="circumflex" x="58" y="3360" flags="0x1004"/>
    </TTGlyph>
    <TTGlyph name="Scedilla" xMin="88" yMin="-616" xMax="1078" yMax="1568">
      <component glyphName="cedilla" x="313" y="-60" flags="0x1004"/>
      <component glyphName="S" x="0" y="0" flags="0x1204"/>
    </TTGlyph>
    <TTGlyph name="Scircumflex" xMin="88" yMin="-32" xMax="1078" yMax="2170">
      <component glyphName="circumflex" x="74" y="442" flags="0x1004"/>
      <component glyphName="S" x="0" y="0" flags="0x1204"/>
    </TTGlyph>
    <TTGlyph name="Scommaaccent" xMin="88" yMin="-32" xMax="1078" yMax="1568">
      <component glyphName="S" x="0" y="0" flags="0x1204"/>
    </TTGlyph>
    <TTGlyph name="Sigma" xMin="126" yMin="0" xMax="1024" yMax="1536">
      <contour>
        <pt x="656" y="1296" on="1"/>
        <pt x="173" y="1296" on="1"/>
        <pt x="197" y="1536" on="1"/>
        <pt x="1010" y="1536" on="1"/>
        <pt x="1010" y="1337" on="1"/>
        <pt x="496" y="240" on="1"/>
        <pt x="1024" y="240" on="1"/>
        <pt x="976" y="0" on="1"/>
        <pt x="126" y="0" on="1"/>
        <pt x="126" y="190" on="1"/>
      </contour>
    </TTGlyph>
    <TTGlyph name="T" xMin="68" yMin="-12" xMax="992" yMax="1536">
      <contour>
        <pt x="68" y="1296" on="1"/>
        <pt x="92" y="1536" on="1"/>
        <pt x="992" y="1536" on="1"/>
        <pt x="968" y="1296" on="1"/>
        <pt x="681" y="1296" on="1"/>
        <pt x="681" y="12" on="1"/>
        <pt x="381" y="-12" on="1"/>
        <pt x="381" y="1296" on="1"/>
      </contour>
    </TTGlyph>
    <TTGlyph name="Tbar" xMin="68" yMin="-12" xMax="992" yMax="1824">
      <component glyphName="T" x="0" y="0" flags="0x1204"/>
      <component glyphName="macron" x="55" y="384" flags="0x1004"/>
    </TTGlyph>
    <TTGlyph name="Tcaron" xMin="68" yMin="-12" xMax="992" yMax="2170">
      <component glyphName="caron" x="14" y="442" flags="0x1004"/>
      <component glyphName="T" x="0" y="0" flags="0x1204"/>
    </TTGlyph>
    <TTGlyph name="Tcommaaccent" xMin="68" yMin="-596" xMax="992" yMax="1536">
      <component glyphName="cedilla" x="106" y="-40" flags="0x1004"/>
      <component glyphName="T" x="0" y="0" flags="0x1204"/>
    </TTGlyph>
    <TTGlyph name="Thorn" xMin="145" yMin="-92" xMax="1053" yMax="1536">
      <contour>
        <pt x="1053" y="716" on="1"/>
        <pt x="1053" y="610" on="0"/>
        <pt x="994" y="452" on="0"/>
        <pt x="891" y="351" on="0"/>
        <pt x="734" y="289" on="0"/>
        <pt x="558" y="265" on="0"/>
        <pt x="445" y="265" on="1"/>
        <pt x="445" y="-68" on="1"/>
        <pt x="145" y="-92" on="1"/>
        <pt x="145" y="1536" on="1"/>
        <pt x="447" y="1536" on="1"/>
        <pt x="447" y="1167" on="1"/>
        <pt x="541" y="1166" on="0"/>
        <pt x="691" y="1148" on="0"/>
        <pt x="833" y="1110" on="0"/>
        <pt x="936" y="1043" on="0"/>
        <pt x="1014" y="946" on="0"/>
        <pt x="1053" y="806" on="0"/>
      </contour>
      <contour>
        <pt x="498" y="488" on="1"/>
        <pt x="625" y="488" on="0"/>
        <pt x="754" y="597" on="0"/>
        <pt x="754" y="718" on="1"/>
        <pt x="754" y="844" on="0"/>
        <pt x="628" y="937" on="0"/>
        <pt x="490" y="937" on="1"/>
        <pt x="447" y="937" on="1"/>
        <pt x="447" y="488" on="1"/>
      </contour>
    </TTGlyph>
    <TTGlyph name="U" xMin="133" yMin="-32" xMax="1032" yMax="1536">
      <contour>
        <pt x="601" y="223" on="1"/>
        <pt x="643" y="223" on="0"/>
        <pt x="702" y="252" on="0"/>
        <pt x="734" y="295" on="0"/>
        <pt x="752" y="369" on="0"/>
        <pt x="757" y="436" on="0"/>
        <pt x="757" y="485" on="1"/>
        <pt x="757" y="1512" on="1"/>
        <pt x="1032" y="1536" on="1"/>
        <pt x="1032" y="541" on="1"/>
        <pt x="1032" y="379" on="0"/>
        <pt x="969" y="147" on="0"/>
        <pt x="894" y="77" on="1"/>
        <pt x="777" y="-32" on="0"/>
        <pt x="560" y="-32" on="1"/>
        <pt x="396" y="-32" on="0"/>
        <pt x="196" y="150" on="0"/>
        <pt x="158" y="300" on="1"/>
        <pt x="133" y="396" on="0"/>
        <pt x="133" y="506" on="1"/>
        <pt x="133" y="1524" on="1"/>
        <pt x="433" y="1536" on="1"/>
        <pt x="433" y="482" on="1"/>
        <pt x="433" y="433" on="0"/>
        <pt x="439" y="363" on="0"/>
        <pt x="459" y="293" on="0"/>
        <pt x="495" y="250" on="0"/>
        <pt x="557" y="223" on="0"/>
      </contour>
    </TTGlyph>
    <TTGlyph name="Uacute" xMin="133" yMin="-32" xMax="1032" yMax="2016">
      <component glyphName="U" x="0" y="0" flags="0x1204"/>
      <component glyphName="acute" x="104" y="384" flags="0x1004"/>
    </TTGlyph>
    <TTGlyph name="Ubreve" xMin="133" yMin="-32" xMax="1165" yMax="2170">
      <component glyphName="breve" x="204" y="442" flags="0x1004"/>
      <component glyphName="U" x="0" y="0" flags="0x1204"/>
    </TTGlyph>
    <TTGlyph name="Ucircumflex" xMin="133" yMin="-32" xMax="1032" yMax="2112">
      <component glyphName="U" x="0" y="0" flags="0x1204"/>
      <component glyphName="circumflex" x="56" y="384" flags="0x1004"/>
    </TTGlyph>
    <TTGlyph name="Udieresis" xMin="133" yMin="-32" xMax="1032" yMax="1920">
      <component glyphName="U" x="0" y="0" flags="0x1204"/>
      <component glyphName="dieresis" x="200" y="384" flags="0x1004"/>
    </TTGlyph>
    <TTGlyph name="Ugrave" xMin="133" yMin="-32" xMax="1032" yMax="2016">
      <component glyphName="U" x="0" y="0" flags="0x1204"/>
      <component glyphName="grave" x="104" y="384" flags="0x1004"/>
    </TTGlyph>
    <TTGlyph name="Uhungarumlaut" xMin="133" yMin="-32" xMax="1368" yMax="2268">
      <component glyphName="hungarumlaut" x="274" y="540" flags="0x1004"/>
      <component glyphName="U" x="0" y="0" flags="0x1204"/>
    </TTGlyph>
    <TTGlyph name="Umacron" xMin="133" yMin="-32" xMax="1032" yMax="1882">
      <component glyphName="macron" x="252" y="442" flags="0x1004"/>
      <component glyphName="U" x="0" y="0" flags="0x1204"/>
    </TTGlyph>
    <TTGlyph name="Uogonek" xMin="133" yMin="-424" xMax="1032" yMax="1536">
      <component glyphName="ogonek" x="209" y="-38" flags="0x1004"/>
      <component glyphName="U" x="0" y="0" flags="0x1204"/>
    </TTGlyph>
    <TTGlyph name="Uring" xMin="133" yMin="-32" xMax="1045" yMax="2234">
      <component glyphName="ring" x="319" y="442" flags="0x1004"/>
      <component glyphName="U" x="0" y="0" flags="0x1204"/>
    </TTGlyph>
    <TTGlyph name="Utilde" xMin="133" yMin="-32" xMax="1051" yMax="1997">
      <component glyphName="tilde" x="288" y="460" flags="0x1004"/>
      <component glyphName="U" x="0" y="0" flags="0x1204"/>
    </TTGlyph>
    <TTGlyph name="V" xMin="71" yMin="0" xMax="1132" yMax="1536">
      <contour>
        <pt x="71" y="1524" on="1"/>
        <pt x="426" y="1536" on="1"/>
        <pt x="630" y="476" on="1"/>
        <pt x="843" y="1524" on="1"/>
        <pt x="1132" y="1536" on="1"/>
        <pt x="762" y="0" on="1"/>
        <pt x="433" y="0" on="1"/>
      </contour>
    </TTGlyph>
    <TTGlyph name="W" xMin="114" yMin="0" xMax="1655" yMax="1536">
      <contour>
        <pt x="701" y="0" on="1"/>
        <pt x="426" y="0" on="1"/>
        <pt x="114" y="1524" on="1"/>
        <pt x="442" y="1536" on="1"/>
        <pt x="604" y="616" on="1"/>
        <pt x="777" y="1524" on="1"/>
        <pt x="1022" y="1536" on="1"/>
        <pt x="1184" y="606" on="1"/>
        <pt x="1380" y="1524" on="1"/>
        <pt x="1655" y="1536" on="1"/>
        <pt x="1327" y="0" on="1"/>
        <pt x="1030" y="0" on="1"/>
        <pt x="867" y="938" on="1"/>
      </contour>
    </TTGlyph>
    <TTGlyph name="Wacute" xMin="114" yMin="0" xMax="1655" yMax="2074">
      <component glyphName="acute" x="808" y="442" flags="0x1004"/>
      <component glyphName="W" x="0" y="0" flags="0x1204"/>
    </TTGlyph>
    <TTGlyph name="Wcircumflex" xMin="114" yMin="0" xMax="1655" yMax="2170">
      <component glyphName="circumflex" x="520" y="442" flags="0x1004"/>
      <component glyphName="W" x="0" y="0" flags="0x1204"/>
    </TTGlyph>
    <TTGlyph name="Wdieresis" xMin="114" yMin="0" xMax="1655" yMax="1978">
      <component glyphName="dieresis" x="664" y="442" flags="0x1004"/>
      <component glyphName="W" x="0" y="0" flags="0x1204"/>
    </TTGlyph>
    <TTGlyph name="Wgrave" xMin="114" yMin="0" xMax="1655" yMax="2074">
      <component glyphName="grave" x="328" y="442" flags="0x1004"/>
      <component glyphName="W" x="0" y="0" flags="0x1204"/>
    </TTGlyph>
    <TTGlyph name="X" xMin="64" yMin="0" xMax="1139" yMax="1536">
      <contour>
        <pt x="565" y="481" on="1"/>
        <pt x="348" y="0" on="1"/>
        <pt x="64" y="0" on="1"/>
        <pt x="445" y="780" on="1"/>
        <pt x="79" y="1536" on="1"/>
        <pt x="438" y="1536" on="1"/>
        <pt x="616" y="1137" on="1"/>
        <pt x="800" y="1536" on="1"/>
        <pt x="1086" y="1536" on="1"/>
        <pt x="740" y="838" on="1"/>
        <pt x="1139" y="0" on="1"/>
        <pt x="782" y="0" on="1"/>
      </contour>
    </TTGlyph>
    <TTGlyph name="Y" xMin="57" yMin="-12" xMax="1085" yMax="1536">
      <contour>
        <pt x="427" y="608" on="1"/>
        <pt x="57" y="1536" on="1"/>
        <pt x="387" y="1536" on="1"/>
        <pt x="598" y="896" on="1"/>
        <pt x="826" y="1536" on="1"/>
        <pt x="1085" y="1536" on="1"/>
        <pt x="730" y="643" on="1"/>
        <pt x="730" y="12" on="1"/>
        <pt x="427" y="-12" on="1"/>
      </contour>
    </TTGlyph>
    <TTGlyph name="Yacute" xMin="57" yMin="-12" xMax="1085" yMax="2016">
      <component glyphName="Y" x="0" y="0" flags="0x1204"/>
      <component glyphName="acute" x="91" y="384" flags="0x1004"/>
    </TTGlyph>
    <TTGlyph name="Ycircumflex" xMin="57" yMin="-12" xMax="1085" yMax="2170">
      <component glyphName="circumflex" x="43" y="442" flags="0x1004"/>
      <component glyphName="Y" x="0" y="0" flags="0x1204"/>
    </TTGlyph>
    <TTGlyph name="Ydieresis" xMin="57" yMin="-12" xMax="1085" yMax="1920">
      <component glyphName="Y" x="0" y="0" flags="0x1204"/>
      <component glyphName="dieresis" x="187" y="384" flags="0x1004"/>
    </TTGlyph>
    <TTGlyph name="Ygrave" xMin="43" yMin="-12" xMax="1085" yMax="2074">
      <component glyphName="grave" x="-149" y="442" flags="0x1004"/>
      <component glyphName="Y" x="0" y="0" flags="0x1204"/>
    </TTGlyph>
    <TTGlyph name="Z" xMin="126" yMin="0" xMax="1024" yMax="1536">
      <contour>
        <pt x="656" y="1296" on="1"/>
        <pt x="173" y="1296" on="1"/>
        <pt x="197" y="1536" on="1"/>
        <pt x="1010" y="1536" on="1"/>
        <pt x="1010" y="1337" on="1"/>
        <pt x="496" y="240" on="1"/>
        <pt x="1024" y="240" on="1"/>
        <pt x="976" y="0" on="1"/>
        <pt x="126" y="0" on="1"/>
        <pt x="126" y="190" on="1"/>
      </contour>
    </TTGlyph>
    <TTGlyph name="Zacute" xMin="126" yMin="0" xMax="1132" yMax="2074">
      <component glyphName="acute" x="364" y="442" flags="0x1004"/>
      <component glyphName="Z" x="0" y="0" flags="0x1204"/>
    </TTGlyph>
    <TTGlyph name="Zcaron" xMin="126" yMin="0" xMax="1024" yMax="5088">
      <component glyphName="Z" x="0" y="0" flags="0x1204"/>
      <component glyphName="circumflex" x="51" y="3360" flags="0x1004"/>
    </TTGlyph>
    <TTGlyph name="Zdotaccent" xMin="126" yMin="0" xMax="1024" yMax="1978">
      <component glyphName="dotaccent" x="460" y="442" flags="0x1004"/>
      <component glyphName="Z" x="0" y="0" flags="0x1204"/>
    </TTGlyph>
    <TTGlyph name="a" xMin="101" yMin="-27" xMax="927" yMax="1167">
      <contour>
        <pt x="896" y="217" on="1"/>
        <pt x="896" y="130" on="0"/>
        <pt x="927" y="12" on="1"/>
        <pt x="647" y="-12" on="1"/>
        <pt x="615" y="129" on="1"/>
        <pt x="559" y="28" on="0"/>
        <pt x="437" y="-14" on="1"/>
        <pt x="401" y="-27" on="0"/>
        <pt x="362" y="-27" on="1"/>
        <pt x="267" y="-27" on="0"/>
        <pt x="147" y="93" on="0"/>
        <pt x="120" y="186" on="1"/>
        <pt x="101" y="254" on="0"/>
        <pt x="101" y="327" on="1"/>
        <pt x="101" y="412" on="0"/>
        <pt x="155" y="548" on="0"/>
        <pt x="246" y="640" on="0"/>
        <pt x="378" y="703" on="0"/>
        <pt x="523" y="735" on="0"/>
        <pt x="608" y="740" on="1"/>
        <pt x="608" y="852" on="0"/>
        <pt x="599" y="887" on="1"/>
        <pt x="582" y="956" on="0"/>
        <pt x="525" y="956" on="1"/>
        <pt x="437" y="956" on="0"/>
        <pt x="421" y="826" on="1"/>
        <pt x="141" y="875" on="1"/>
        <pt x="159" y="1019" on="0"/>
        <pt x="360" y="1167" on="0"/>
        <pt x="525" y="1167" on="1"/>
        <pt x="701" y="1167" on="0"/>
        <pt x="896" y="984" on="0"/>
        <pt x="896" y="813" on="1"/>
      </contour>
      <contour>
        <pt x="608" y="568" on="1"/>
        <pt x="383" y="568" on="0"/>
        <pt x="383" y="331" on="1"/>
        <pt x="383" y="262" on="0"/>
        <pt x="438" y="179" on="0"/>
        <pt x="497" y="179" on="1"/>
        <pt x="519" y="179" on="0"/>
        <pt x="567" y="206" on="0"/>
        <pt x="586" y="224" on="0"/>
        <pt x="608" y="247" on="1"/>
      </contour>
    </TTGlyph>
    <TTGlyph name="aacute" xMin="101" yMin="-27" xMax="927" yMax="1632">
      <component glyphName="a" x="0" y="0" flags="0x1204"/>
      <component glyphName="acute" x="42" y="0" flags="0x1004"/>
    </TTGlyph>
    <TTGlyph name="abreve" xMin="91" yMin="-27" xMax="955" yMax="1728">
      <component glyphName="a" x="0" y="0" flags="0x1204"/>
      <component glyphName="breve" x="-5" y="0" flags="0x1004"/>
    </TTGlyph>
    <TTGlyph name="acircumflex" xMin="101" yMin="-27" xMax="927" yMax="1728">
      <component glyphName="a" x="0" y="0" flags="0x1204"/>
      <component glyphName="circumflex" x="-5" y="0" flags="0x1004"/>
    </TTGlyph>
    <TTGlyph name="acute" xMin="192" yMin="1248" xMax="768" yMax="1632">
      <contour>
        <pt x="192" y="1392" on="1"/>
        <pt x="672" y="1632" on="1"/>
        <pt x="768" y="1344" on="1"/>
        <pt x="240" y="1248" on="1"/>
      </contour>
    </TTGlyph>
    <TTGlyph name="adieresis" xMin="101" yMin="-27" xMax="927" yMax="1536">
      <component glyphName="a" x="0" y="0" flags="0x1204"/>
      <component glyphName="dieresis" x="138" y="0" flags="0x1004"/>
    </TTGlyph>
    <TTGlyph name="ae" xMin="115" yMin="-27" xMax="1468" yMax="1167">
      <contour>
        <pt x="1468" y="570" on="1"/>
        <pt x="1460" y="543" on="0"/>
        <pt x="1460" y="536" on="1"/>
        <pt x="910" y="536" on="1"/>
        <pt x="910" y="315" on="0"/>
        <pt x="984" y="220" on="1"/>
        <pt x="1011" y="185" on="0"/>
        <pt x="1050" y="185" on="1"/>
        <pt x="1107" y="185" on="0"/>
        <pt x="1161" y="273" on="1"/>
        <pt x="1165" y="279" on="0"/>
        <pt x="1210" y="373" on="1"/>
        <pt x="1428" y="290" on="1"/>
        <pt x="1337" y="-27" on="0"/>
        <pt x="1045" y="-27" on="1"/>
        <pt x="879" y="-27" on="0"/>
        <pt x="774" y="144" on="1"/>
        <pt x="685" y="-27" on="0"/>
        <pt x="426" y="-27" on="1"/>
        <pt x="315" y="-27" on="0"/>
        <pt x="171" y="90" on="0"/>
        <pt x="138" y="186" on="1"/>
        <pt x="115" y="252" on="0"/>
        <pt x="115" y="327" on="1"/>
        <pt x="115" y="412" on="0"/>
        <pt x="169" y="548" on="0"/>
        <pt x="260" y="640" on="0"/>
        <pt x="392" y="703" on="0"/>
        <pt x="537" y="735" on="0"/>
        <pt x="622" y="740" on="1"/>
        <pt x="622" y="852" on="0"/>
        <pt x="613" y="887" on="1"/>
        <pt x="596" y="956" on="0"/>
        <pt x="539" y="956" on="1"/>
        <pt x="451" y="956" on="0"/>
        <pt x="435" y="826" on="1"/>
        <pt x="155" y="875" on="1"/>
        <pt x="173" y="1019" on="0"/>
        <pt x="374" y="1167" on="0"/>
        <pt x="539" y="1167" on="1"/>
        <pt x="693" y="1167" on="0"/>
        <pt x="784" y="1032" on="1"/>
        <pt x="901" y="1167" on="0"/>
        <pt x="1055" y="1167" on="1"/>
        <pt x="1254" y="1167" on="0"/>
        <pt x="1364" y="1001" on="1"/>
        <pt x="1468" y="843" on="0"/>
      </contour>
      <contour>
        <pt x="622" y="568" on="1"/>
        <pt x="397" y="568" on="0"/>
        <pt x="397" y="331" on="1"/>
        <pt x="397" y="262" on="0"/>
        <pt x="452" y="179" on="0"/>
        <pt x="511" y="179" on="1"/>
        <pt x="548" y="179" on="0"/>
        <pt x="601" y="249" on="0"/>
        <pt x="622" y="337" on="0"/>
        <pt x="622" y="382" on="1"/>
      </contour>
      <contour>
        <pt x="1185" y="702" on="1"/>
        <pt x="1185" y="889" on="0"/>
        <pt x="1112" y="948" on="1"/>
        <pt x="1086" y="969" on="0"/>
        <pt x="1050" y="969" on="1"/>
        <pt x="997" y="969" on="0"/>
        <pt x="956" y="896" on="1"/>
        <pt x="911" y="817" on="0"/>
        <pt x="910" y="713" on="1"/>
        <pt x="910" y="702" on="1"/>
      </contour>
    </TTGlyph>
    <TTGlyph name="aeacute" xMin="115" yMin="-27" xMax="1468" yMax="1632">
      <component glyphName="ae" x="0" y="0" flags="0x1204"/>
      <component glyphName="acute" x="308" y="0" flags="0x1004"/>
    </TTGlyph>
    <TTGlyph name="aemacron" xMin="115" yMin="-27" xMax="1468" yMax="1481">
      <component glyphName="macron" x="317" y="41" flags="0x1004"/>
      <component glyphName="ae" x="0" y="0" flags="0x1204"/>
    </TTGlyph>
    <TTGlyph name="agrave" xMin="101" yMin="-27" xMax="927" yMax="1632">
      <component glyphName="a" x="0" y="0" flags="0x1204"/>
      <component glyphName="grave" x="42" y="0" flags="0x1004"/>
    </TTGlyph>
    <TTGlyph name="amacron" xMin="101" yMin="-27" xMax="927" yMax="1440">
      <component glyphName="a" x="0" y="0" flags="0x1204"/>
      <component glyphName="macron" x="42" y="0" flags="0x1004"/>
    </TTGlyph>
    <TTGlyph name="ampersand" xMin="93" yMin="-28" xMax="1281" yMax="1546">
      <contour>
        <pt x="894" y="153" on="1"/>
        <pt x="802" y="70" on="0"/>
        <pt x="597" y="-28" on="0"/>
        <pt x="463" y="-28" on="1"/>
        <pt x="338" y="-28" on="0"/>
        <pt x="163" y="107" on="0"/>
        <pt x="122" y="213" on="1"/>
        <pt x="93" y="288" on="0"/>
        <pt x="93" y="375" on="1"/>
        <pt x="93" y="513" on="0"/>
        <pt x="188" y="638" on="1"/>
        <pt x="257" y="728" on="0"/>
        <pt x="386" y="815" on="1"/>
        <pt x="309" y="923" on="0"/>
        <pt x="268" y="1054" on="1"/>
        <pt x="247" y="1121" on="0"/>
        <pt x="247" y="1196" on="1"/>
        <pt x="247" y="1320" on="0"/>
        <pt x="373" y="1486" on="0"/>
        <pt x="476" y="1522" on="1"/>
        <pt x="545" y="1546" on="0"/>
        <pt x="623" y="1546" on="1"/>
        <pt x="744" y="1546" on="0"/>
        <pt x="914" y="1446" on="0"/>
        <pt x="954" y="1357" on="1"/>
        <pt x="982" y="1297" on="0"/>
        <pt x="982" y="1214" on="1"/>
        <pt x="982" y="1100" on="0"/>
        <pt x="894" y="984" on="1"/>
        <pt x="827" y="896" on="0"/>
        <pt x="717" y="819" on="1"/>
        <pt x="904" y="531" on="1"/>
        <pt x="974" y="688" on="0"/>
        <pt x="1002" y="825" on="1"/>
        <pt x="1229" y="754" on="1"/>
        <pt x="1187" y="561" on="0"/>
        <pt x="1057" y="353" on="1"/>
        <pt x="1104" y="306" on="0"/>
        <pt x="1208" y="253" on="0"/>
        <pt x="1281" y="244" on="1"/>
        <pt x="1281" y="-14" on="1"/>
        <pt x="1167" y="-14" on="0"/>
        <pt x="1021" y="30" on="0"/>
        <pt x="966" y="82" on="1"/>
        <pt x="944" y="103" on="0"/>
      </contour>
      <contour>
        <pt x="368" y="411" on="1"/>
        <pt x="368" y="329" on="0"/>
        <pt x="465" y="236" on="0"/>
        <pt x="549" y="236" on="1"/>
        <pt x="654" y="236" on="0"/>
        <pt x="753" y="309" on="1"/>
        <pt x="742" y="323" on="0"/>
        <pt x="536" y="594" on="1"/>
        <pt x="497" y="646" on="1"/>
        <pt x="441" y="609" on="0"/>
        <pt x="368" y="488" on="0"/>
      </contour>
      <contour>
        <pt x="619" y="1346" on="1"/>
        <pt x="575" y="1346" on="0"/>
        <pt x="508" y="1279" on="0"/>
        <pt x="508" y="1235" on="1"/>
        <pt x="508" y="1201" on="0"/>
        <pt x="526" y="1133" on="0"/>
        <pt x="542" y="1101" on="0"/>
        <pt x="562" y="1062" on="1"/>
        <pt x="580" y="1027" on="0"/>
        <pt x="609" y="971" on="1"/>
        <pt x="609" y="972" on="0"/>
        <pt x="618" y="984" on="1"/>
        <pt x="699" y="1087" on="0"/>
        <pt x="728" y="1172" on="1"/>
        <pt x="737" y="1200" on="0"/>
        <pt x="737" y="1227" on="1"/>
        <pt x="737" y="1279" on="0"/>
        <pt x="671" y="1346" on="0"/>
      </contour>
    </TTGlyph>
    <TTGlyph name="aogonek" xMin="101" yMin="-385" xMax="927" yMax="1167">
      <component glyphName="a" x="0" y="0" flags="0x1204"/>
      <component glyphName="ogonek" x="302" y="0" flags="0x1004"/>
    </TTGlyph>
    <TTGlyph name="approxequal" xMin="112" yMin="757" xMax="763" yMax="1074">
      <component glyphName="asciitilde" x="0" y="0" flags="0x1204"/>
      <component glyphName="asciitilde" x="-13" y="0" flags="0x1004"/>
    </TTGlyph>
    <TTGlyph name="aring" xMin="101" yMin="-27" xMax="927" yMax="1792">
      <component glyphName="a" x="0" y="0" flags="0x1204"/>
      <component glyphName="ring" x="108" y="0" flags="0x1004"/>
    </TTGlyph>
    <TTGlyph name="asciicircum" xMin="10" yMin="636" xMax="985" yMax="1440">
      <contour>
        <pt x="985" y="644" on="1"/>
        <pt x="642" y="636" on="1"/>
        <pt x="467" y="1119" on="1"/>
        <pt x="271" y="644" on="1"/>
        <pt x="10" y="642" on="1"/>
        <pt x="370" y="1440" on="1"/>
        <pt x="635" y="1440" on="1"/>
      </contour>
    </TTGlyph>
    <TTGlyph name="asciitilde" xMin="125" yMin="757" xMax="763" yMax="1074">
      <contour>
        <pt x="580" y="964" on="1"/>
        <pt x="645" y="964" on="0"/>
        <pt x="737" y="1025" on="0"/>
        <pt x="763" y="1074" on="1"/>
        <pt x="763" y="892" on="1"/>
        <pt x="763" y="890" on="0"/>
        <pt x="750" y="870" on="1"/>
        <pt x="719" y="816" on="0"/>
        <pt x="652" y="778" on="1"/>
        <pt x="616" y="757" on="0"/>
        <pt x="572" y="757" on="1"/>
        <pt x="560" y="757" on="0"/>
        <pt x="535" y="763" on="0"/>
        <pt x="517" y="770" on="0"/>
        <pt x="492" y="787" on="0"/>
        <pt x="481" y="795" on="0"/>
        <pt x="455" y="816" on="0"/>
        <pt x="452" y="818" on="1"/>
        <pt x="426" y="838" on="0"/>
        <pt x="400" y="856" on="0"/>
        <pt x="345" y="878" on="0"/>
        <pt x="318" y="878" on="1"/>
        <pt x="258" y="878" on="0"/>
        <pt x="185" y="823" on="1"/>
        <pt x="151" y="796" on="0"/>
        <pt x="125" y="768" on="1"/>
        <pt x="126" y="932" on="1"/>
        <pt x="161" y="973" on="0"/>
        <pt x="195" y="1003" on="1"/>
        <pt x="281" y="1074" on="0"/>
        <pt x="339" y="1074" on="1"/>
        <pt x="365" y="1074" on="0"/>
        <pt x="416" y="1055" on="0"/>
        <pt x="444" y="1036" on="0"/>
        <pt x="467" y="1019" on="1"/>
        <pt x="471" y="1016" on="0"/>
        <pt x="494" y="998" on="0"/>
        <pt x="505" y="990" on="0"/>
        <pt x="528" y="976" on="0"/>
        <pt x="545" y="970" on="0"/>
        <pt x="568" y="964" on="0"/>
      </contour>
    </TTGlyph>
    <TTGlyph name="asterisk" xMin="61" yMin="428" xMax="1013" yMax="1392">
      <contour>
        <pt x="668" y="1392" on="1"/>
        <pt x="617" y="1030" on="1"/>
        <pt x="933" y="1182" on="1"/>
        <pt x="1013" y="909" on="1"/>
        <pt x="663" y="855" on="1"/>
        <pt x="925" y="595" on="1"/>
        <pt x="698" y="428" on="1"/>
        <pt x="537" y="748" on="1"/>
        <pt x="376" y="428" on="1"/>
        <pt x="149" y="595" on="1"/>
        <pt x="411" y="855" on="1"/>
        <pt x="61" y="909" on="1"/>
        <pt x="141" y="1182" on="1"/>
        <pt x="457" y="1030" on="1"/>
        <pt x="406" y="1392" on="1"/>
      </contour>
    </TTGlyph>
    <TTGlyph name="at" xMin="83" yMin="-32" xMax="1554" yMax="1452">
      <contour>
        <pt x="1175" y="581" on="1"/>
        <pt x="1175" y="469" on="0"/>
        <pt x="1238" y="469" on="1"/>
        <pt x="1268" y="469" on="0"/>
        <pt x="1312" y="496" on="0"/>
        <pt x="1339" y="549" on="0"/>
        <pt x="1355" y="602" on="0"/>
        <pt x="1362" y="683" on="0"/>
        <pt x="1364" y="735" on="0"/>
        <pt x="1364" y="775" on="1"/>
        <pt x="1364" y="1009" on="0"/>
        <pt x="1088" y="1258" on="0"/>
        <pt x="846" y="1258" on="1"/>
        <pt x="755" y="1258" on="0"/>
        <pt x="600" y="1211" on="0"/>
        <pt x="485" y="1125" on="0"/>
        <pt x="399" y="1017" on="0"/>
        <pt x="368" y="950" on="1"/>
        <pt x="307" y="818" on="0"/>
        <pt x="307" y="671" on="1"/>
        <pt x="307" y="499" on="0"/>
        <pt x="451" y="255" on="0"/>
        <pt x="578" y="195" on="1"/>
        <pt x="672" y="151" on="0"/>
        <pt x="797" y="151" on="1"/>
        <pt x="894" y="151" on="0"/>
        <pt x="997" y="180" on="1"/>
        <pt x="1104" y="210" on="0"/>
        <pt x="1233" y="274" on="1"/>
        <pt x="1305" y="124" on="1"/>
        <pt x="1161" y="45" on="0"/>
        <pt x="1028" y="6" on="1"/>
        <pt x="897" y="-32" on="0"/>
        <pt x="781" y="-32" on="1"/>
        <pt x="444" y="-32" on="0"/>
        <pt x="253" y="184" on="1"/>
        <pt x="83" y="378" on="0"/>
        <pt x="83" y="666" on="1"/>
        <pt x="83" y="975" on="0"/>
        <pt x="280" y="1204" on="1"/>
        <pt x="493" y="1452" on="0"/>
        <pt x="847" y="1452" on="1"/>
        <pt x="1130" y="1452" on="0"/>
        <pt x="1333" y="1282" on="1"/>
        <pt x="1554" y="1096" on="0"/>
        <pt x="1554" y="775" on="1"/>
        <pt x="1554" y="469" on="0"/>
        <pt x="1366" y="378" on="1"/>
        <pt x="1306" y="348" on="0"/>
        <pt x="1148" y="348" on="0"/>
        <pt x="1044" y="436" on="0"/>
        <pt x="1022" y="510" on="1"/>
        <pt x="972" y="417" on="0"/>
        <pt x="905" y="370" on="1"/>
        <pt x="840" y="324" on="0"/>
        <pt x="767" y="324" on="1"/>
        <pt x="668" y="324" on="0"/>
        <pt x="538" y="441" on="0"/>
        <pt x="506" y="534" on="1"/>
        <pt x="482" y="604" on="0"/>
        <pt x="482" y="699" on="1"/>
        <pt x="482" y="829" on="0"/>
        <pt x="573" y="1012" on="0"/>
        <pt x="660" y="1048" on="1"/>
        <pt x="707" y="1068" on="0"/>
        <pt x="759" y="1068" on="1"/>
        <pt x="837" y="1068" on="0"/>
        <pt x="954" y="998" on="0"/>
        <pt x="982" y="941" on="1"/>
        <pt x="1018" y="1050" on="1"/>
        <pt x="1175" y="1050" on="1"/>
      </contour>
      <contour>
        <pt x="831" y="511" on="1"/>
        <pt x="908" y="511" on="0"/>
        <pt x="952" y="625" on="1"/>
        <pt x="952" y="844" on="1"/>
        <pt x="886" y="911" on="0"/>
        <pt x="834" y="911" on="1"/>
        <pt x="771" y="911" on="0"/>
        <pt x="716" y="786" on="0"/>
        <pt x="716" y="699" on="1"/>
        <pt x="716" y="562" on="0"/>
        <pt x="788" y="522" on="1"/>
        <pt x="807" y="511" on="0"/>
      </contour>
    </TTGlyph>
    <TTGlyph name="atilde" xMin="101" yMin="-27" xMax="927" yMax="1537">
      <component glyphName="a" x="0" y="0" flags="0x1204"/>
      <component glyphName="tilde" x="77" y="0" flags="0x1004"/>
    </TTGlyph>
    <TTGlyph name="b" xMin="142" yMin="-27" xMax="1008" yMax="1536">
      <contour>
        <pt x="677" y="-27" on="1"/>
        <pt x="578" y="-27" on="0"/>
        <pt x="452" y="64" on="0"/>
        <pt x="430" y="144" on="1"/>
        <pt x="360" y="-12" on="1"/>
        <pt x="142" y="12" on="1"/>
        <pt x="142" y="1500" on="1"/>
        <pt x="430" y="1536" on="1"/>
        <pt x="430" y="1005" on="1"/>
        <pt x="535" y="1119" on="0"/>
        <pt x="652" y="1155" on="1"/>
        <pt x="691" y="1167" on="0"/>
        <pt x="728" y="1167" on="1"/>
        <pt x="853" y="1167" on="0"/>
        <pt x="925" y="1036" on="1"/>
        <pt x="1008" y="884" on="0"/>
        <pt x="1008" y="576" on="1"/>
        <pt x="1008" y="270" on="0"/>
        <pt x="922" y="118" on="1"/>
        <pt x="839" y="-27" on="0"/>
      </contour>
      <contour>
        <pt x="430" y="480" on="1"/>
        <pt x="430" y="314" on="0"/>
        <pt x="474" y="240" on="1"/>
        <pt x="511" y="179" on="0"/>
        <pt x="570" y="179" on="1"/>
        <pt x="598" y="179" on="0"/>
        <pt x="642" y="197" on="0"/>
        <pt x="673" y="230" on="0"/>
        <pt x="696" y="275" on="0"/>
        <pt x="708" y="329" on="0"/>
        <pt x="717" y="390" on="0"/>
        <pt x="719" y="452" on="0"/>
        <pt x="721" y="516" on="0"/>
        <pt x="720" y="546" on="1"/>
        <pt x="720" y="553" on="0"/>
        <pt x="720" y="560" on="0"/>
        <pt x="720" y="571" on="0"/>
        <pt x="720" y="576" on="1"/>
        <pt x="720" y="583" on="0"/>
        <pt x="720" y="647" on="0"/>
        <pt x="720" y="667" on="0"/>
        <pt x="719" y="724" on="0"/>
        <pt x="717" y="749" on="0"/>
        <pt x="713" y="797" on="0"/>
        <pt x="706" y="823" on="0"/>
        <pt x="697" y="859" on="0"/>
        <pt x="684" y="884" on="0"/>
        <pt x="676" y="895" on="1"/>
        <pt x="656" y="922" on="0"/>
        <pt x="620" y="922" on="1"/>
        <pt x="574" y="922" on="0"/>
        <pt x="499" y="882" on="1"/>
        <pt x="464" y="864" on="0"/>
        <pt x="430" y="843" on="1"/>
      </contour>
    </TTGlyph>
    <TTGlyph name="backslash" xMin="61" yMin="0" xMax="562" yMax="1536">
      <contour>
        <pt x="562" y="0" on="1"/>
        <pt x="262" y="0" on="1"/>
        <pt x="61" y="1536" on="1"/>
        <pt x="361" y="1536" on="1"/>
      </contour>
    </TTGlyph>
    <TTGlyph name="bar" xMin="145" yMin="-96" xMax="445" yMax="1632">
      <contour>
        <pt x="145" y="1632" on="1"/>
        <pt x="445" y="1632" on="1"/>
        <pt x="445" y="-96" on="1"/>
        <pt x="145" y="-96" on="1"/>
      </contour>
    </TTGlyph>
    <TTGlyph name="braceleft" xMin="192" yMin="-87" xMax="768" yMax="1632">
      <contour>
        <pt x="192" y="882" on="1"/>
        <pt x="251" y="882" on="0"/>
        <pt x="288" y="952" on="0"/>
        <pt x="288" y="1024" on="1"/>
        <pt x="288" y="1253" on="0"/>
        <pt x="394" y="1533" on="0"/>
        <pt x="531" y="1592" on="1"/>
        <pt x="623" y="1632" on="0"/>
        <pt x="768" y="1632" on="1"/>
        <pt x="768" y="1470" on="1"/>
        <pt x="662" y="1470" on="0"/>
        <pt x="583" y="1346" on="0"/>
        <pt x="579" y="1221" on="1"/>
        <pt x="576" y="1137" on="0"/>
        <pt x="576" y="1024" on="1"/>
        <pt x="576" y="952" on="0"/>
        <pt x="526" y="858" on="0"/>
        <pt x="450" y="810" on="0"/>
        <pt x="384" y="787" on="1"/>
        <pt x="447" y="766" on="0"/>
        <pt x="529" y="714" on="0"/>
        <pt x="552" y="675" on="1"/>
        <pt x="576" y="634" on="0"/>
        <pt x="576" y="551" on="1"/>
        <pt x="576" y="532" on="0"/>
        <pt x="575" y="438" on="0"/>
        <pt x="576" y="396" on="0"/>
        <pt x="578" y="320" on="0"/>
        <pt x="583" y="273" on="0"/>
        <pt x="593" y="215" on="0"/>
        <pt x="600" y="192" on="1"/>
        <pt x="618" y="132" on="0"/>
        <pt x="696" y="75" on="0"/>
        <pt x="768" y="75" on="1"/>
        <pt x="768" y="-87" on="1"/>
        <pt x="561" y="-87" on="0"/>
        <pt x="341" y="95" on="0"/>
        <pt x="309" y="278" on="1"/>
        <pt x="288" y="396" on="0"/>
        <pt x="288" y="551" on="1"/>
        <pt x="288" y="623" on="0"/>
        <pt x="251" y="693" on="0"/>
        <pt x="192" y="693" on="1"/>
      </contour>
    </TTGlyph>
    <TTGlyph name="braceright" xMin="192" yMin="-87" xMax="768" yMax="1632">
      <contour>
        <pt x="768" y="693" on="1"/>
        <pt x="709" y="693" on="0"/>
        <pt x="672" y="623" on="0"/>
        <pt x="672" y="551" on="1"/>
        <pt x="672" y="312" on="0"/>
        <pt x="567" y="18" on="0"/>
        <pt x="429" y="-45" on="1"/>
        <pt x="336" y="-87" on="0"/>
        <pt x="192" y="-87" on="1"/>
        <pt x="192" y="75" on="1"/>
        <pt x="238" y="75" on="0"/>
        <pt x="304" y="102" on="0"/>
        <pt x="345" y="145" on="0"/>
        <pt x="370" y="216" on="0"/>
        <pt x="379" y="289" on="0"/>
        <pt x="381" y="340" on="1"/>
        <pt x="384" y="430" on="0"/>
        <pt x="384" y="551" on="1"/>
        <pt x="384" y="622" on="0"/>
        <pt x="434" y="717" on="0"/>
        <pt x="511" y="765" on="0"/>
        <pt x="576" y="787" on="1"/>
        <pt x="512" y="809" on="0"/>
        <pt x="431" y="861" on="0"/>
        <pt x="408" y="900" on="1"/>
        <pt x="384" y="941" on="0"/>
        <pt x="384" y="1024" on="1"/>
        <pt x="384" y="1044" on="0"/>
        <pt x="385" y="1146" on="0"/>
        <pt x="384" y="1193" on="0"/>
        <pt x="381" y="1280" on="0"/>
        <pt x="370" y="1328" on="0"/>
        <pt x="353" y="1389" on="0"/>
        <pt x="323" y="1429" on="0"/>
        <pt x="303" y="1443" on="1"/>
        <pt x="264" y="1470" on="0"/>
        <pt x="192" y="1470" on="1"/>
        <pt x="192" y="1632" on="1"/>
        <pt x="397" y="1632" on="0"/>
        <pt x="618" y="1460" on="0"/>
        <pt x="651" y="1284" on="1"/>
        <pt x="672" y="1170" on="0"/>
        <pt x="672" y="1024" on="1"/>
        <pt x="672" y="952" on="0"/>
        <pt x="709" y="882" on="0"/>
        <pt x="768" y="882" on="1"/>
      </contour>
    </TTGlyph>
    <TTGlyph name="bracketleft" xMin="180" yMin="-96" xMax="672" yMax="1632">
      <contour>
        <pt x="180" y="1632" on="1"/>
        <pt x="672" y="1632" on="1"/>
        <pt x="672" y="1440" on="1"/>
        <pt x="480" y="1440" on="1"/>
        <pt x="480" y="95" on="1"/>
        <pt x="672" y="95" on="1"/>
        <pt x="672" y="-96" on="1"/>
        <pt x="180" y="-96" on="1"/>
      </contour>
    </TTGlyph>
    <TTGlyph name="bracketright" xMin="180" yMin="-96" xMax="672" yMax="1632">
      <contour>
        <pt x="672" y="-96" on="1"/>
        <pt x="180" y="-96" on="1"/>
        <pt x="180" y="95" on="1"/>
        <pt x="372" y="95" on="1"/>
        <pt x="372" y="1440" on="1"/>
        <pt x="180" y="1440" on="1"/>
        <pt x="180" y="1632" on="1"/>
        <pt x="672" y="1632" on="1"/>
      </contour>
    </TTGlyph>
    <TTGlyph name="breve" xMin="96" yMin="1248" xMax="960" yMax="1728">
      <contour>
        <pt x="336" y="1728" on="1"/>
        <pt x="336" y="1607" on="0"/>
        <pt x="419" y="1488" on="0"/>
        <pt x="528" y="1488" on="1"/>
        <pt x="705" y="1488" on="0"/>
        <pt x="717" y="1650" on="1"/>
        <pt x="720" y="1692" on="0"/>
        <pt x="720" y="1728" on="1"/>
        <pt x="960" y="1728" on="1"/>
        <pt x="960" y="1557" on="0"/>
        <pt x="808" y="1318" on="0"/>
        <pt x="676" y="1271" on="1"/>
        <pt x="610" y="1248" on="0"/>
        <pt x="528" y="1248" on="1"/>
        <pt x="375" y="1248" on="0"/>
        <pt x="180" y="1396" on="0"/>
        <pt x="133" y="1522" on="1"/>
        <pt x="96" y="1619" on="0"/>
        <pt x="96" y="1728" on="1"/>
      </contour>
    </TTGlyph>
    <TTGlyph name="brokenbar" xMin="145" yMin="-96" xMax="445" yMax="1632">
      <contour>
        <pt x="145" y="576" on="1"/>
        <pt x="445" y="576" on="1"/>
        <pt x="445" y="-96" on="1"/>
        <pt x="145" y="-96" on="1"/>
      </contour>
      <contour>
        <pt x="145" y="1632" on="1"/>
        <pt x="445" y="1632" on="1"/>
        <pt x="445" y="960" on="1"/>
        <pt x="145" y="960" on="1"/>
      </contour>
    </TTGlyph>
    <TTGlyph name="bullet" xMin="136" yMin="385" xMax="809" yMax="1056">
      <contour>
        <pt x="136" y="720" on="1"/>
        <pt x="136" y="879" on="0"/>
        <pt x="319" y="1056" on="0"/>
        <pt x="480" y="1056" on="1"/>
        <pt x="634" y="1056" on="0"/>
        <pt x="809" y="875" on="0"/>
        <pt x="809" y="720" on="1"/>
        <pt x="809" y="604" on="0"/>
        <pt x="710" y="446" on="0"/>
        <pt x="622" y="410" on="1"/>
        <pt x="562" y="385" on="0"/>
        <pt x="480" y="385" on="1"/>
        <pt x="318" y="385" on="0"/>
        <pt x="136" y="561" on="0"/>
      </contour>
    </TTGlyph>
    <TTGlyph name="c" xMin="99" yMin="-27" xMax="885" yMax="1167">
      <contour>
        <pt x="878" y="405" on="1"/>
        <pt x="868" y="327" on="0"/>
        <pt x="840" y="209" on="0"/>
        <pt x="785" y="93" on="0"/>
        <pt x="709" y="19" on="0"/>
        <pt x="589" y="-27" on="0"/>
        <pt x="511" y="-27" on="1"/>
        <pt x="250" y="-27" on="0"/>
        <pt x="145" y="277" on="1"/>
        <pt x="99" y="407" on="0"/>
        <pt x="99" y="566" on="1"/>
        <pt x="99" y="753" on="0"/>
        <pt x="218" y="1040" on="0"/>
        <pt x="329" y="1114" on="1"/>
        <pt x="409" y="1167" on="0"/>
        <pt x="517" y="1167" on="1"/>
        <pt x="644" y="1167" on="0"/>
        <pt x="813" y="1031" on="0"/>
        <pt x="854" y="921" on="1"/>
        <pt x="882" y="846" on="0"/>
        <pt x="885" y="754" on="1"/>
        <pt x="612" y="742" on="1"/>
        <pt x="600" y="843" on="0"/>
        <pt x="588" y="875" on="1"/>
        <pt x="564" y="938" on="0"/>
        <pt x="514" y="939" on="1"/>
        <pt x="491" y="939" on="0"/>
        <pt x="454" y="921" on="0"/>
        <pt x="428" y="882" on="0"/>
        <pt x="409" y="843" on="0"/>
        <pt x="398" y="779" on="0"/>
        <pt x="391" y="733" on="0"/>
        <pt x="389" y="659" on="0"/>
        <pt x="388" y="622" on="0"/>
        <pt x="388" y="587" on="1"/>
        <pt x="388" y="580" on="0"/>
        <pt x="388" y="576" on="1"/>
        <pt x="388" y="451" on="0"/>
        <pt x="418" y="278" on="0"/>
        <pt x="466" y="236" on="1"/>
        <pt x="489" y="216" on="0"/>
        <pt x="523" y="216" on="1"/>
        <pt x="592" y="216" on="0"/>
        <pt x="623" y="324" on="1"/>
        <pt x="636" y="372" on="0"/>
        <pt x="638" y="432" on="1"/>
      </contour>
    </TTGlyph>
    <TTGlyph name="cacute" xMin="99" yMin="-27" xMax="885" yMax="1632">
      <component glyphName="c" x="0" y="0" flags="0x1204"/>
      <component glyphName="acute" x="7" y="0" flags="0x1004"/>
    </TTGlyph>
    <TTGlyph name="caron" xMin="192" yMin="1248" xMax="864" yMax="1729">
      <component glyphName="circumflex" x="0" y="2976" scalex="1.0" scaley="-1.0" flags="0x1004"/>
    </TTGlyph>
    <TTGlyph name="ccaron" xMin="99" yMin="-27" xMax="885" yMax="4704">
      <component glyphName="c" x="0" y="0" flags="0x1204"/>
      <component glyphName="circumflex" x="-39" y="2976" flags="0x1004"/>
    </TTGlyph>
    <TTGlyph name="ccedilla" xMin="99" yMin="-556" xMax="885" yMax="1167">
      <component glyphName="c" x="0" y="0" flags="0x1204"/>
      <component glyphName="cedilla" x="238" y="0" flags="0x1004"/>
    </TTGlyph>
    <TTGlyph name="ccircumflex" xMin="99" yMin="-27" xMax="885" yMax="1728">
      <component glyphName="c" x="0" y="0" flags="0x1204"/>
      <component glyphName="circumflex" x="-39" y="0" flags="0x1004"/>
    </TTGlyph>
    <TTGlyph name="cdotaccent" xMin="99" yMin="-27" xMax="885" yMax="1536">
      <component glyphName="c" x="0" y="0" flags="0x1204"/>
      <component glyphName="dotaccent" x="343" y="0" flags="0x1004"/>
    </TTGlyph>
    <TTGlyph name="cedilla" xMin="111" yMin="-556" xMax="557" yMax="48">
      <contour>
        <pt x="255" y="-363" on="1"/>
        <pt x="299" y="-363" on="0"/>
        <pt x="351" y="-325" on="0"/>
        <pt x="351" y="-289" on="1"/>
        <pt x="351" y="-230" on="0"/>
        <pt x="236" y="-171" on="0"/>
        <pt x="159" y="-171" on="1"/>
        <pt x="199" y="48" on="1"/>
        <pt x="351" y="48" on="1"/>
        <pt x="321" y="-76" on="1"/>
        <pt x="511" y="-130" on="0"/>
        <pt x="550" y="-282" on="1"/>
        <pt x="557" y="-311" on="0"/>
        <pt x="557" y="-339" on="1"/>
        <pt x="557" y="-443" on="0"/>
        <pt x="443" y="-556" on="0"/>
        <pt x="341" y="-556" on="1"/>
        <pt x="276" y="-556" on="0"/>
        <pt x="152" y="-521" on="0"/>
        <pt x="111" y="-492" on="1"/>
        <pt x="111" y="-327" on="1"/>
        <pt x="190" y="-363" on="0"/>
      </contour>
    </TTGlyph>
    <TTGlyph name="cent" xMin="68" yMin="-192" xMax="944" yMax="1344">
      <contour>
        <pt x="937" y="405" on="1"/>
        <pt x="927" y="330" on="0"/>
        <pt x="899" y="215" on="0"/>
        <pt x="848" y="103" on="0"/>
        <pt x="776" y="29" on="0"/>
        <pt x="666" y="-20" on="0"/>
        <pt x="594" y="-25" on="1"/>
        <pt x="594" y="-192" on="1"/>
        <pt x="455" y="-192" on="1"/>
        <pt x="455" y="-16" on="1"/>
        <pt x="313" y="13" on="0"/>
        <pt x="130" y="218" on="0"/>
        <pt x="92" y="368" on="1"/>
        <pt x="68" y="464" on="0"/>
        <pt x="68" y="566" on="1"/>
        <pt x="68" y="741" on="0"/>
        <pt x="179" y="1014" on="0"/>
        <pt x="281" y="1092" on="1"/>
        <pt x="356" y="1149" on="0"/>
        <pt x="455" y="1162" on="1"/>
        <pt x="455" y="1344" on="1"/>
        <pt x="594" y="1344" on="1"/>
        <pt x="594" y="1161" on="1"/>
        <pt x="711" y="1143" on="0"/>
        <pt x="876" y="1008" on="0"/>
        <pt x="915" y="904" on="1"/>
        <pt x="941" y="833" on="0"/>
        <pt x="944" y="754" on="1"/>
        <pt x="671" y="742" on="1"/>
        <pt x="650" y="878" on="0"/>
        <pt x="594" y="918" on="1"/>
        <pt x="594" y="218" on="1"/>
        <pt x="686" y="238" on="0"/>
        <pt x="697" y="432" on="1"/>
      </contour>
      <contour>
        <pt x="455" y="920" on="1"/>
        <pt x="396" y="882" on="0"/>
        <pt x="357" y="706" on="0"/>
        <pt x="357" y="576" on="1"/>
        <pt x="357" y="326" on="0"/>
        <pt x="455" y="252" on="1"/>
      </contour>
    </TTGlyph>
    <TTGlyph name="circumflex" xMin="192" yMin="1248" xMax="864" yMax="1728">
      <contour>
        <pt x="192" y="1248" on="1"/>
        <pt x="432" y="1728" on="1"/>
        <pt x="634" y="1728" on="1"/>
        <pt x="864" y="1248" on="1"/>
        <pt x="614" y="1248" on="1"/>
        <pt x="518" y="1538" on="1"/>
        <pt x="402" y="1248" on="1"/>
      </contour>
    </TTGlyph>
    <TTGlyph name="colon" xMin="96" yMin="-12" xMax="384" yMax="864">
      <contour>
        <pt x="384" y="288" on="1"/>
        <pt x="384" y="0" on="1"/>
        <pt x="96" y="-12" on="1"/>
        <pt x="96" y="288" on="1"/>
      </contour>
      <contour>
        <pt x="384" y="864" on="1"/>
        <pt x="384" y="576" on="1"/>
        <pt x="96" y="576" on="1"/>
        <pt x="96" y="864" on="1"/>
      </contour>
    </TTGlyph>
    <TTGlyph name="comma" xMin="96" yMin="-288" xMax="384" yMax="288">
      <contour>
        <pt x="384" y="288" on="1"/>
        <pt x="384" y="0" on="1"/>
        <pt x="384" y="-128" on="0"/>
        <pt x="259" y="-281" on="0"/>
        <pt x="144" y="-288" on="1"/>
        <pt x="144" y="-96" on="1"/>
        <pt x="189" y="-96" on="0"/>
        <pt x="238" y="-43" on="0"/>
        <pt x="240" y="0" on="1"/>
        <pt x="96" y="0" on="1"/>
        <pt x="96" y="288" on="1"/>
      </contour>
    </TTGlyph>
    <TTGlyph name="commaaccent" xMin="112" yMin="96" xMax="400" yMax="672">
      <contour>
        <pt x="400" y="672" on="1"/>
        <pt x="400" y="384" on="1"/>
        <pt x="400" y="256" on="0"/>
        <pt x="275" y="103" on="0"/>
        <pt x="160" y="96" on="1"/>
        <pt x="160" y="288" on="1"/>
        <pt x="205" y="288" on="0"/>
        <pt x="254" y="341" on="0"/>
        <pt x="256" y="384" on="1"/>
        <pt x="112" y="384" on="1"/>
        <pt x="112" y="672" on="1"/>
      </contour>
    </TTGlyph>
    <TTGlyph name="copyright" xMin="98" yMin="0" xMax="1387" yMax="1346">
      <contour>
        <pt x="764" y="391" on="1"/>
        <pt x="795" y="391" on="0"/>
        <pt x="838" y="429" on="0"/>
        <pt x="860" y="499" on="0"/>
        <pt x="869" y="558" on="0"/>
        <pt x="871" y="598" on="1"/>
        <pt x="1039" y="582" on="1"/>
        <pt x="1039" y="471" on="0"/>
        <pt x="955" y="309" on="0"/>
        <pt x="878" y="270" on="1"/>
        <pt x="825" y="242" on="0"/>
        <pt x="751" y="242" on="1"/>
        <pt x="686" y="242" on="0"/>
        <pt x="580" y="290" on="0"/>
        <pt x="510" y="374" on="0"/>
        <pt x="465" y="473" on="0"/>
        <pt x="452" y="533" on="1"/>
        <pt x="435" y="615" on="0"/>
        <pt x="435" y="689" on="1"/>
        <pt x="435" y="837" on="0"/>
        <pt x="546" y="1048" on="0"/>
        <pt x="650" y="1088" on="1"/>
        <pt x="696" y="1106" on="0"/>
        <pt x="756" y="1106" on="1"/>
        <pt x="857" y="1106" on="0"/>
        <pt x="990" y="981" on="0"/>
        <pt x="1019" y="887" on="1"/>
        <pt x="1038" y="827" on="0"/>
        <pt x="1038" y="763" on="1"/>
        <pt x="847" y="755" on="1"/>
        <pt x="847" y="812" on="0"/>
        <pt x="816" y="908" on="0"/>
        <pt x="786" y="931" on="1"/>
        <pt x="770" y="944" on="0"/>
        <pt x="744" y="944" on="1"/>
        <pt x="714" y="944" on="0"/>
        <pt x="671" y="909" on="0"/>
        <pt x="649" y="861" on="0"/>
        <pt x="636" y="785" on="0"/>
        <pt x="633" y="727" on="0"/>
        <pt x="633" y="689" on="1"/>
        <pt x="633" y="649" on="0"/>
        <pt x="635" y="594" on="0"/>
        <pt x="643" y="517" on="0"/>
        <pt x="660" y="465" on="0"/>
        <pt x="688" y="416" on="0"/>
        <pt x="734" y="391" on="0"/>
      </contour>
      <contour>
        <pt x="231" y="673" on="1"/>
        <pt x="231" y="451" on="0"/>
        <pt x="382" y="291" on="1"/>
        <pt x="533" y="133" on="0"/>
        <pt x="743" y="133" on="1"/>
        <pt x="853" y="133" on="0"/>
        <pt x="1037" y="221" on="0"/>
        <pt x="1104" y="291" on="1"/>
        <pt x="1254" y="448" on="0"/>
        <pt x="1254" y="673" on="1"/>
        <pt x="1254" y="896" on="0"/>
        <pt x="1104" y="1055" on="1"/>
        <pt x="955" y="1213" on="0"/>
        <pt x="743" y="1213" on="1"/>
        <pt x="533" y="1213" on="0"/>
        <pt x="231" y="897" on="0"/>
      </contour>
      <contour>
        <pt x="98" y="673" on="1"/>
        <pt x="98" y="955" on="0"/>
        <pt x="287" y="1149" on="1"/>
        <pt x="478" y="1346" on="0"/>
        <pt x="743" y="1346" on="1"/>
        <pt x="1007" y="1346" on="0"/>
        <pt x="1198" y="1149" on="1"/>
        <pt x="1387" y="953" on="0"/>
        <pt x="1387" y="673" on="1"/>
        <pt x="1387" y="391" on="0"/>
        <pt x="1198" y="197" on="1"/>
        <pt x="1007" y="0" on="0"/>
        <pt x="743" y="0" on="1"/>
        <pt x="478" y="0" on="0"/>
        <pt x="287" y="197" on="1"/>
        <pt x="98" y="393" on="0"/>
      </contour>
    </TTGlyph>
    <TTGlyph name="currency" xMin="125" yMin="447" xMax="1165" yMax="1387">
      <contour>
        <pt x="820" y="482" on="0"/>
        <pt x="468" y="482" on="0"/>
        <pt x="358" y="568" on="1"/>
        <pt x="220" y="447" on="1"/>
        <pt x="125" y="556" on="1"/>
        <pt x="265" y="679" on="1"/>
        <pt x="213" y="778" on="0"/>
        <pt x="213" y="912" on="1"/>
        <pt x="213" y="1051" on="0"/>
        <pt x="269" y="1151" on="1"/>
        <pt x="125" y="1278" on="1"/>
        <pt x="220" y="1387" on="1"/>
        <pt x="363" y="1261" on="1"/>
        <pt x="472" y="1343" on="0"/>
        <pt x="645" y="1343" on="1"/>
        <pt x="816" y="1343" on="0"/>
        <pt x="926" y="1260" on="1"/>
        <pt x="1070" y="1387" on="1"/>
        <pt x="1165" y="1278" on="1"/>
        <pt x="1020" y="1150" on="1"/>
        <pt x="1075" y="1049" on="0"/>
        <pt x="1075" y="912" on="1"/>
        <pt x="1075" y="779" on="0"/>
        <pt x="1023" y="680" on="1"/>
        <pt x="1165" y="556" on="1"/>
        <pt x="1070" y="447" on="1"/>
        <pt x="931" y="569" on="1"/>
      </contour>
      <contour>
        <pt x="644" y="698" on="1"/>
        <pt x="835" y="698" on="0"/>
        <pt x="835" y="912" on="1"/>
        <pt x="835" y="1127" on="0"/>
        <pt x="453" y="1127" on="0"/>
        <pt x="453" y="912" on="1"/>
        <pt x="453" y="698" on="0"/>
      </contour>
    </TTGlyph>
    <TTGlyph name="d" xMin="62" yMin="-27" xMax="928" yMax="1536">
      <contour>
        <pt x="640" y="144" on="1"/>
        <pt x="618" y="64" on="0"/>
        <pt x="492" y="-27" on="0"/>
        <pt x="393" y="-27" on="1"/>
        <pt x="321" y="-27" on="0"/>
        <pt x="211" y="26" on="0"/>
        <pt x="141" y="123" on="0"/>
        <pt x="98" y="234" on="0"/>
        <pt x="84" y="306" on="1"/>
        <pt x="62" y="417" on="0"/>
        <pt x="62" y="576" on="1"/>
        <pt x="62" y="731" on="0"/>
        <pt x="93" y="953" on="0"/>
        <pt x="136" y="1031" on="1"/>
        <pt x="210" y="1167" on="0"/>
        <pt x="379" y="1167" on="1"/>
        <pt x="464" y="1167" on="0"/>
        <pt x="559" y="1083" on="1"/>
        <pt x="605" y="1043" on="0"/>
        <pt x="640" y="1000" on="1"/>
        <pt x="640" y="1500" on="1"/>
        <pt x="928" y="1536" on="1"/>
        <pt x="928" y="12" on="1"/>
        <pt x="710" y="-12" on="1"/>
      </contour>
      <contour>
        <pt x="500" y="956" on="1"/>
        <pt x="478" y="956" on="0"/>
        <pt x="440" y="945" on="0"/>
        <pt x="412" y="924" on="0"/>
        <pt x="389" y="895" on="0"/>
        <pt x="374" y="859" on="0"/>
        <pt x="362" y="818" on="0"/>
        <pt x="356" y="772" on="0"/>
        <pt x="351" y="724" on="0"/>
        <pt x="351" y="675" on="0"/>
        <pt x="349" y="625" on="0"/>
        <pt x="350" y="601" on="1"/>
        <pt x="350" y="584" on="0"/>
        <pt x="350" y="576" on="1"/>
        <pt x="350" y="502" on="0"/>
        <pt x="352" y="429" on="0"/>
        <pt x="363" y="313" on="0"/>
        <pt x="393" y="237" on="0"/>
        <pt x="417" y="211" on="1"/>
        <pt x="447" y="179" on="0"/>
        <pt x="500" y="179" on="1"/>
        <pt x="556" y="179" on="0"/>
        <pt x="613" y="263" on="0"/>
        <pt x="628" y="332" on="1"/>
        <pt x="640" y="390" on="0"/>
        <pt x="640" y="480" on="1"/>
        <pt x="640" y="864" on="1"/>
        <pt x="599" y="915" on="0"/>
        <pt x="551" y="942" on="1"/>
        <pt x="527" y="956" on="0"/>
      </contour>
    </TTGlyph>
    <TTGlyph name="dagger" xMin="-96" yMin="180" xMax="576" yMax="1440">
      <contour>
        <pt x="120" y="1152" on="1"/>
        <pt x="120" y="1428" on="1"/>
        <pt x="360" y="1440" on="1"/>
        <pt x="360" y="1152" on="1"/>
        <pt x="576" y="1152" on="1"/>
        <pt x="564" y="960" on="1"/>
        <pt x="360" y="960" on="1"/>
        <pt x="360" y="192" on="1"/>
        <pt x="120" y="180" on="1"/>
        <pt x="120" y="960" on="1"/>
        <pt x="-96" y="960" on="1"/>
        <pt x="-84" y="1152" on="1"/>
      </contour>
    </TTGlyph>
    <TTGlyph name="daggerdbl" xMin="-96" yMin="180" xMax="576" yMax="1440">
      <contour>
        <pt x="120" y="1152" on="1"/>
        <pt x="120" y="1428" on="1"/>
        <pt x="360" y="1440" on="1"/>
        <pt x="360" y="1152" on="1"/>
        <pt x="576" y="1152" on="1"/>
        <pt x="564" y="960" on="1"/>
        <pt x="360" y="960" on="1"/>
        <pt x="360" y="672" on="1"/>
        <pt x="576" y="672" on="1"/>
        <pt x="564" y="480" on="1"/>
        <pt x="360" y="480" on="1"/>
        <pt x="360" y="192" on="1"/>
        <pt x="120" y="180" on="1"/>
        <pt x="120" y="480" on="1"/>
        <pt x="-96" y="480" on="1"/>
        <pt x="-84" y="672" on="1"/>
        <pt x="120" y="672" on="1"/>
        <pt x="120" y="960" on="1"/>
        <pt x="-96" y="960" on="1"/>
        <pt x="-84" y="1152" on="1"/>
      </contour>
    </TTGlyph>
    <TTGlyph name="dcaron" xMin="62" yMin="-27" xMax="1453" yMax="1536">
      <component glyphName="d" x="0" y="0" flags="0x1004"/>
      <component glyphName="quoteright" x="1069" y="0" flags="0x1004"/>
    </TTGlyph>
    <TTGlyph name="dcroat" xMin="62" yMin="-27" xMax="928" yMax="1536">
      <component glyphName="d" x="0" y="0" flags="0x1204"/>
      <component glyphName="hyphen" x="246" y="0" flags="0x1004"/>
    </TTGlyph>
    <TTGlyph name="degree" xMin="136" yMin="387" xMax="920" yMax="1151">
      <contour>
        <pt x="136" y="769" on="1"/>
        <pt x="136" y="903" on="0"/>
        <pt x="255" y="1081" on="0"/>
        <pt x="361" y="1122" on="1"/>
        <pt x="437" y="1151" on="0"/>
        <pt x="537" y="1151" on="1"/>
        <pt x="674" y="1151" on="0"/>
        <pt x="856" y="1029" on="0"/>
        <pt x="895" y="921" on="1"/>
        <pt x="920" y="852" on="0"/>
        <pt x="920" y="769" on="1"/>
        <pt x="920" y="636" on="0"/>
        <pt x="804" y="457" on="0"/>
        <pt x="702" y="416" on="1"/>
        <pt x="629" y="387" on="0"/>
        <pt x="537" y="387" on="1"/>
        <pt x="349" y="387" on="0"/>
        <pt x="136" y="587" on="0"/>
      </contour>
      <contour>
        <pt x="536" y="579" on="1"/>
        <pt x="612" y="579" on="0"/>
        <pt x="671" y="679" on="0"/>
        <pt x="671" y="859" on="0"/>
        <pt x="612" y="959" on="0"/>
        <pt x="536" y="959" on="1"/>
        <pt x="451" y="959" on="0"/>
        <pt x="384" y="863" on="0"/>
        <pt x="384" y="675" on="0"/>
        <pt x="451" y="579" on="0"/>
      </contour>
    </TTGlyph>
    <TTGlyph name="dieresis" xMin="0" yMin="1248" xMax="768" yMax="1536">
      <contour>
        <pt x="288" y="1536" on="1"/>
        <pt x="288" y="1248" on="1"/>
        <pt x="0" y="1248" on="1"/>
        <pt x="0" y="1536" on="1"/>
      </contour>
      <contour>
        <pt x="768" y="1536" on="1"/>
        <pt x="768" y="1248" on="1"/>
        <pt x="480" y="1248" on="1"/>
        <pt x="480" y="1536" on="1"/>
      </contour>
    </TTGlyph>
    <TTGlyph name="divide" xMin="-96" yMin="-12" xMax="574" yMax="960">
      <contour>
        <pt x="384" y="288" on="1"/>
        <pt x="384" y="0" on="1"/>
        <pt x="96" y="-12" on="1"/>
        <pt x="96" y="288" on="1"/>
      </contour>
      <contour>
        <pt x="384" y="960" on="1"/>
        <pt x="384" y="672" on="1"/>
        <pt x="96" y="672" on="1"/>
        <pt x="96" y="960" on="1"/>
      </contour>
      <contour>
        <pt x="-96" y="576" on="1"/>
        <pt x="574" y="576" on="1"/>
        <pt x="574" y="384" on="1"/>
        <pt x="-96" y="384" on="1"/>
      </contour>
    </TTGlyph>
    <TTGlyph name="dollar" xMin="118" yMin="-96" xMax="1058" yMax="1632">
      <contour>
        <pt x="528" y="29" on="1"/>
        <pt x="421" y="41" on="0"/>
        <pt x="252" y="154" on="0"/>
        <pt x="150" y="309" on="0"/>
        <pt x="118" y="410" on="1"/>
        <pt x="342" y="529" on="1"/>
        <pt x="349" y="518" on="0"/>
        <pt x="385" y="457" on="0"/>
        <pt x="403" y="428" on="0"/>
        <pt x="439" y="377" on="0"/>
        <pt x="467" y="347" on="0"/>
        <pt x="507" y="313" on="0"/>
        <pt x="528" y="302" on="1"/>
        <pt x="528" y="657" on="1"/>
        <pt x="381" y="744" on="1"/>
        <pt x="303" y="791" on="0"/>
        <pt x="198" y="898" on="0"/>
        <pt x="172" y="972" on="1"/>
        <pt x="155" y="1021" on="0"/>
        <pt x="155" y="1076" on="1"/>
        <pt x="155" y="1209" on="0"/>
        <pt x="278" y="1402" on="0"/>
        <pt x="378" y="1454" on="1"/>
        <pt x="444" y="1489" on="0"/>
        <pt x="528" y="1501" on="1"/>
        <pt x="528" y="1632" on="1"/>
        <pt x="672" y="1632" on="1"/>
        <pt x="672" y="1501" on="1"/>
        <pt x="801" y="1483" on="0"/>
        <pt x="971" y="1322" on="0"/>
        <pt x="1013" y="1194" on="1"/>
        <pt x="779" y="1079" on="1"/>
        <pt x="775" y="1087" on="0"/>
        <pt x="755" y="1132" on="0"/>
        <pt x="746" y="1153" on="0"/>
        <pt x="725" y="1190" on="0"/>
        <pt x="709" y="1212" on="0"/>
        <pt x="685" y="1237" on="0"/>
        <pt x="672" y="1245" on="1"/>
        <pt x="672" y="899" on="1"/>
        <pt x="789" y="831" on="1"/>
        <pt x="936" y="745" on="0"/>
        <pt x="1004" y="643" on="1"/>
        <pt x="1052" y="570" on="0"/>
        <pt x="1058" y="481" on="1"/>
        <pt x="1058" y="340" on="0"/>
        <pt x="931" y="138" on="0"/>
        <pt x="826" y="82" on="1"/>
        <pt x="758" y="46" on="0"/>
        <pt x="672" y="32" on="1"/>
        <pt x="672" y="-96" on="1"/>
        <pt x="528" y="-96" on="1"/>
      </contour>
      <contour>
        <pt x="528" y="1255" on="1"/>
        <pt x="489" y="1239" on="0"/>
        <pt x="447" y="1161" on="0"/>
        <pt x="447" y="1107" on="1"/>
        <pt x="447" y="1037" on="0"/>
        <pt x="528" y="984" on="1"/>
      </contour>
      <contour>
        <pt x="672" y="296" on="1"/>
        <pt x="706" y="314" on="0"/>
        <pt x="752" y="389" on="0"/>
        <pt x="752" y="434" on="1"/>
        <pt x="752" y="513" on="0"/>
        <pt x="672" y="571" on="1"/>
      </contour>
    </TTGlyph>
    <TTGlyph name="dotaccent" xMin="0" yMin="1248" xMax="288" yMax="1536">
      <contour>
        <pt x="288" y="1536" on="1"/>
        <pt x="288" y="1248" on="1"/>
        <pt x="0" y="1248" on="1"/>
        <pt x="0" y="1536" on="1"/>
      </contour>
    </TTGlyph>
    <TTGlyph name="dotlessi" xMin="143" yMin="-12" xMax="431" yMax="1152">
      <contour>
        <pt x="143" y="1128" on="1"/>
        <pt x="431" y="1152" on="1"/>
        <pt x="431" y="12" on="1"/>
        <pt x="143" y="-12" on="1"/>
      </contour>
    </TTGlyph>
    <TTGlyph name="dotlessj" xMin="46" yMin="-288" xMax="493" yMax="1152">
      <contour>
        <pt x="238" y="-288" on="1"/>
        <pt x="157" y="-288" on="0"/>
        <pt x="46" y="-269" on="1"/>
        <pt x="46" y="-96" on="1"/>
        <pt x="119" y="-96" on="0"/>
        <pt x="194" y="-65" on="0"/>
        <pt x="201" y="-16" on="1"/>
        <pt x="205" y="9" on="0"/>
        <pt x="205" y="54" on="1"/>
        <pt x="205" y="1128" on="1"/>
        <pt x="493" y="1152" on="1"/>
        <pt x="493" y="54" on="1"/>
        <pt x="493" y="3" on="0"/>
        <pt x="492" y="-46" on="0"/>
        <pt x="486" y="-125" on="0"/>
        <pt x="473" y="-168" on="0"/>
        <pt x="450" y="-220" on="0"/>
        <pt x="412" y="-253" on="0"/>
        <pt x="386" y="-265" on="1"/>
        <pt x="334" y="-288" on="0"/>
      </contour>
    </TTGlyph>
    <TTGlyph name="e" xMin="104" yMin="-27" xMax="949" yMax="1167">
      <contour>
        <pt x="949" y="570" on="1"/>
        <pt x="941" y="543" on="0"/>
        <pt x="941" y="536" on="1"/>
        <pt x="391" y="536" on="1"/>
        <pt x="391" y="315" on="0"/>
        <pt x="465" y="220" on="1"/>
        <pt x="492" y="185" on="0"/>
        <pt x="531" y="185" on="1"/>
        <pt x="588" y="185" on="0"/>
        <pt x="642" y="273" on="1"/>
        <pt x="646" y="279" on="0"/>
        <pt x="691" y="373" on="1"/>
        <pt x="909" y="290" on="1"/>
        <pt x="818" y="-27" on="0"/>
        <pt x="526" y="-27" on="1"/>
        <pt x="441" y="-27" on="0"/>
        <pt x="304" y="28" on="0"/>
        <pt x="210" y="129" on="0"/>
        <pt x="149" y="253" on="0"/>
        <pt x="130" y="329" on="1"/>
        <pt x="104" y="434" on="0"/>
        <pt x="104" y="570" on="1"/>
        <pt x="104" y="771" on="0"/>
        <pt x="225" y="1058" on="0"/>
        <pt x="347" y="1124" on="1"/>
        <pt x="427" y="1167" on="0"/>
        <pt x="536" y="1167" on="1"/>
        <pt x="735" y="1167" on="0"/>
        <pt x="845" y="1001" on="1"/>
        <pt x="949" y="843" on="0"/>
      </contour>
      <contour>
        <pt x="666" y="702" on="1"/>
        <pt x="666" y="890" on="0"/>
        <pt x="594" y="948" on="1"/>
        <pt x="568" y="969" on="0"/>
        <pt x="531" y="969" on="1"/>
        <pt x="476" y="969" on="0"/>
        <pt x="434" y="892" on="1"/>
        <pt x="391" y="813" on="0"/>
        <pt x="391" y="702" on="1"/>
      </contour>
    </TTGlyph>
    <TTGlyph name="eacute" xMin="104" yMin="-27" xMax="949" yMax="1632">
      <component glyphName="e" x="0" y="0" flags="0x1204"/>
      <component glyphName="acute" x="39" y="0" flags="0x1004"/>
    </TTGlyph>
    <TTGlyph name="ebreve" xMin="88" yMin="-27" xMax="952" yMax="1728">
      <component glyphName="e" x="0" y="0" flags="0x1204"/>
      <component glyphName="breve" x="-8" y="0" flags="0x1004"/>
    </TTGlyph>
    <TTGlyph name="ecaron" xMin="104" yMin="-27" xMax="949" yMax="1769">
      <component glyphName="caron" x="8" y="41" flags="0x1004"/>
      <component glyphName="e" x="0" y="0" flags="0x1204"/>
    </TTGlyph>
    <TTGlyph name="ecircumflex" xMin="104" yMin="-27" xMax="949" yMax="1728">
      <component glyphName="e" x="0" y="0" flags="0x1204"/>
      <component glyphName="circumflex" x="-8" y="0" flags="0x1004"/>
    </TTGlyph>
    <TTGlyph name="edieresis" xMin="104" yMin="-27" xMax="949" yMax="1536">
      <component glyphName="e" x="0" y="0" flags="0x1204"/>
      <component glyphName="dieresis" x="135" y="0" flags="0x1004"/>
    </TTGlyph>
    <TTGlyph name="edotaccent" xMin="104" yMin="-27" xMax="949" yMax="1536">
      <component glyphName="e" x="0" y="0" flags="0x1204"/>
      <component glyphName="dotaccent" x="375" y="0" flags="0x1004"/>
    </TTGlyph>
    <TTGlyph name="egrave" xMin="104" yMin="-27" xMax="949" yMax="1632">
      <component glyphName="e" x="0" y="0" flags="0x1204"/>
      <component glyphName="grave" x="39" y="0" flags="0x1004"/>
    </TTGlyph>
    <TTGlyph name="eight" xMin="100" yMin="-27" xMax="1051" yMax="1546">
      <contour>
        <pt x="356" y="778" on="1"/>
        <pt x="257" y="836" on="0"/>
        <pt x="145" y="1000" on="0"/>
        <pt x="145" y="1122" on="1"/>
        <pt x="145" y="1269" on="0"/>
        <pt x="293" y="1472" on="0"/>
        <pt x="414" y="1516" on="1"/>
        <pt x="495" y="1546" on="0"/>
        <pt x="586" y="1546" on="1"/>
        <pt x="718" y="1546" on="0"/>
        <pt x="914" y="1431" on="0"/>
        <pt x="962" y="1334" on="1"/>
        <pt x="996" y="1266" on="0"/>
        <pt x="996" y="1178" on="1"/>
        <pt x="996" y="1019" on="0"/>
        <pt x="861" y="896" on="1"/>
        <pt x="821" y="859" on="0"/>
        <pt x="776" y="832" on="1"/>
        <pt x="870" y="774" on="0"/>
        <pt x="997" y="652" on="0"/>
        <pt x="1029" y="568" on="1"/>
        <pt x="1051" y="512" on="0"/>
        <pt x="1051" y="440" on="1"/>
        <pt x="1051" y="273" on="0"/>
        <pt x="884" y="52" on="0"/>
        <pt x="746" y="4" on="1"/>
        <pt x="655" y="-27" on="0"/>
        <pt x="560" y="-27" on="1"/>
        <pt x="415" y="-27" on="0"/>
        <pt x="197" y="94" on="0"/>
        <pt x="141" y="196" on="1"/>
        <pt x="100" y="272" on="0"/>
        <pt x="100" y="371" on="1"/>
        <pt x="100" y="634" on="0"/>
      </contour>
      <contour>
        <pt x="571" y="198" on="1"/>
        <pt x="659" y="198" on="0"/>
        <pt x="763" y="288" on="0"/>
        <pt x="763" y="373" on="1"/>
        <pt x="763" y="496" on="0"/>
        <pt x="648" y="593" on="1"/>
        <pt x="599" y="635" on="0"/>
        <pt x="533" y="667" on="1"/>
        <pt x="453" y="605" on="0"/>
        <pt x="410" y="510" on="1"/>
        <pt x="388" y="462" on="0"/>
        <pt x="388" y="398" on="1"/>
        <pt x="388" y="303" on="0"/>
        <pt x="481" y="198" on="0"/>
      </contour>
      <contour>
        <pt x="582" y="1298" on="1"/>
        <pt x="516" y="1298" on="0"/>
        <pt x="425" y="1225" on="0"/>
        <pt x="425" y="1165" on="1"/>
        <pt x="425" y="1123" on="0"/>
        <pt x="452" y="1051" on="0"/>
        <pt x="505" y="996" on="0"/>
        <pt x="552" y="960" on="0"/>
        <pt x="585" y="939" on="1"/>
        <pt x="672" y="992" on="0"/>
        <pt x="724" y="1070" on="1"/>
        <pt x="750" y="1110" on="0"/>
        <pt x="750" y="1155" on="1"/>
        <pt x="750" y="1222" on="0"/>
        <pt x="655" y="1298" on="0"/>
      </contour>
    </TTGlyph>
    <TTGlyph name="ellipsis" xMin="96" yMin="-12" xMax="1528" yMax="288">
      <contour>
        <pt x="384" y="288" on="1"/>
        <pt x="384" y="12" on="1"/>
        <pt x="96" y="-12" on="1"/>
        <pt x="96" y="288" on="1"/>
      </contour>
      <contour>
        <pt x="956" y="288" on="1"/>
        <pt x="956" y="12" on="1"/>
        <pt x="668" y="-12" on="1"/>
        <pt x="668" y="288" on="1"/>
      </contour>
      <contour>
        <pt x="1528" y="288" on="1"/>
        <pt x="1528" y="12" on="1"/>
        <pt x="1240" y="-12" on="1"/>
        <pt x="1240" y="288" on="1"/>
      </contour>
    </TTGlyph>
    <TTGlyph name="emacron" xMin="104" yMin="-27" xMax="949" yMax="1440">
      <component glyphName="e" x="0" y="0" flags="0x1204"/>
      <component glyphName="macron" x="39" y="0" flags="0x1004"/>
    </TTGlyph>
    <TTGlyph name="emdash" xMin="0" yMin="480" xMax="1152" yMax="718">
      <contour>
        <pt x="0" y="718" on="1"/>
        <pt x="1152" y="718" on="1"/>
        <pt x="1152" y="480" on="1"/>
        <pt x="0" y="480" on="1"/>
      </contour>
    </TTGlyph>
    <TTGlyph name="endash" xMin="0" yMin="480" xMax="576" yMax="718">
      <contour>
        <pt x="0" y="718" on="1"/>
        <pt x="576" y="718" on="1"/>
        <pt x="576" y="480" on="1"/>
        <pt x="0" y="480" on="1"/>
      </contour>
    </TTGlyph>
    <TTGlyph name="eng" xMin="142" yMin="-288" xMax="1006" yMax="1167">
      <contour>
        <pt x="751" y="-288" on="1"/>
        <pt x="670" y="-288" on="0"/>
        <pt x="559" y="-269" on="1"/>
        <pt x="559" y="-96" on="1"/>
        <pt x="632" y="-96" on="0"/>
        <pt x="707" y="-65" on="0"/>
        <pt x="714" y="-16" on="1"/>
        <pt x="718" y="9" on="0"/>
        <pt x="718" y="54" on="1"/>
        <pt x="718" y="769" on="1"/>
        <pt x="718" y="922" on="0"/>
        <pt x="613" y="922" on="1"/>
        <pt x="575" y="922" on="0"/>
        <pt x="528" y="897" on="1"/>
        <pt x="469" y="866" on="0"/>
        <pt x="430" y="842" on="1"/>
        <pt x="430" y="12" on="1"/>
        <pt x="142" y="-12" on="1"/>
        <pt x="142" y="1128" on="1"/>
        <pt x="430" y="1152" on="1"/>
        <pt x="430" y="1005" on="1"/>
        <pt x="517" y="1081" on="0"/>
        <pt x="601" y="1124" on="1"/>
        <pt x="686" y="1167" on="0"/>
        <pt x="760" y="1167" on="1"/>
        <pt x="847" y="1167" on="0"/>
        <pt x="962" y="1073" on="0"/>
        <pt x="988" y="997" on="1"/>
        <pt x="1006" y="943" on="0"/>
        <pt x="1006" y="876" on="1"/>
        <pt x="1006" y="54" on="1"/>
        <pt x="1006" y="5" on="0"/>
        <pt x="1005" y="-47" on="0"/>
        <pt x="999" y="-125" on="0"/>
        <pt x="985" y="-169" on="0"/>
        <pt x="962" y="-220" on="0"/>
        <pt x="924" y="-253" on="0"/>
        <pt x="898" y="-265" on="1"/>
        <pt x="846" y="-288" on="0"/>
      </contour>
    </TTGlyph>
    <TTGlyph name="eogonek" xMin="104" yMin="-385" xMax="949" yMax="1167">
      <component glyphName="e" x="0" y="0" flags="0x1204"/>
      <component glyphName="ogonek" x="324" y="0" flags="0x1004"/>
    </TTGlyph>
    <TTGlyph name="equal" xMin="0" yMin="288" xMax="576" yMax="910">
      <contour>
        <pt x="0" y="526" on="1"/>
        <pt x="576" y="526" on="1"/>
        <pt x="576" y="288" on="1"/>
        <pt x="0" y="288" on="1"/>
      </contour>
      <contour>
        <pt x="0" y="910" on="1"/>
        <pt x="576" y="910" on="1"/>
        <pt x="576" y="672" on="1"/>
        <pt x="0" y="672" on="1"/>
      </contour>
    </TTGlyph>
    <TTGlyph name="eth" xMin="44" yMin="-32" xMax="1059" yMax="1568">
      <contour>
        <pt x="439" y="936" on="1"/>
        <pt x="503" y="936" on="0"/>
        <pt x="630" y="890" on="0"/>
        <pt x="675" y="856" on="1"/>
        <pt x="673" y="942" on="0"/>
        <pt x="663" y="1059" on="0"/>
        <pt x="636" y="1197" on="0"/>
        <pt x="580" y="1294" on="0"/>
        <pt x="538" y="1322" on="1"/>
        <pt x="500" y="1346" on="0"/>
        <pt x="449" y="1346" on="1"/>
        <pt x="344" y="1346" on="0"/>
        <pt x="207" y="1250" on="1"/>
        <pt x="172" y="1226" on="0"/>
        <pt x="152" y="1207" on="1"/>
        <pt x="44" y="1393" on="1"/>
        <pt x="105" y="1444" on="0"/>
        <pt x="182" y="1498" on="0"/>
        <pt x="309" y="1554" on="0"/>
        <pt x="378" y="1562" on="1"/>
        <pt x="432" y="1568" on="0"/>
        <pt x="500" y="1568" on="1"/>
        <pt x="659" y="1568" on="0"/>
        <pt x="772" y="1436" on="1"/>
        <pt x="867" y="1325" on="0"/>
        <pt x="968" y="980" on="0"/>
        <pt x="968" y="774" on="1"/>
        <pt x="968" y="636" on="0"/>
        <pt x="943" y="411" on="0"/>
        <pt x="884" y="197" on="0"/>
        <pt x="769" y="42" on="0"/>
        <pt x="686" y="2" on="1"/>
        <pt x="615" y="-32" on="0"/>
        <pt x="523" y="-32" on="1"/>
        <pt x="340" y="-32" on="0"/>
        <pt x="214" y="118" on="1"/>
        <pt x="160" y="181" on="0"/>
        <pt x="95" y="354" on="0"/>
        <pt x="95" y="452" on="1"/>
        <pt x="95" y="601" on="0"/>
        <pt x="202" y="836" on="0"/>
        <pt x="296" y="896" on="1"/>
        <pt x="358" y="936" on="0"/>
      </contour>
      <contour>
        <pt x="384" y="447" on="1"/>
        <pt x="384" y="354" on="0"/>
        <pt x="457" y="230" on="0"/>
        <pt x="536" y="230" on="1"/>
        <pt x="567" y="230" on="0"/>
        <pt x="615" y="256" on="0"/>
        <pt x="645" y="306" on="0"/>
        <pt x="664" y="361" on="0"/>
        <pt x="672" y="438" on="0"/>
        <pt x="675" y="497" on="0"/>
        <pt x="675" y="536" on="1"/>
        <pt x="675" y="608" on="1"/>
        <pt x="675" y="612" on="0"/>
        <pt x="674" y="629" on="0"/>
        <pt x="674" y="633" on="1"/>
        <pt x="673" y="638" on="0"/>
        <pt x="673" y="649" on="1"/>
        <pt x="598" y="692" on="0"/>
        <pt x="540" y="692" on="1"/>
        <pt x="483" y="692" on="0"/>
        <pt x="410" y="617" on="0"/>
        <pt x="384" y="513" on="0"/>
      </contour>
      <contour>
        <pt x="381" y="1202" on="1"/>
        <pt x="995" y="1391" on="1"/>
        <pt x="1059" y="1210" on="1"/>
        <pt x="445" y="1021" on="1"/>
      </contour>
    </TTGlyph>
    <TTGlyph name="exclam" xMin="140" yMin="-12" xMax="428" yMax="1536">
      <contour>
        <pt x="140" y="1536" on="1"/>
        <pt x="428" y="1536" on="1"/>
        <pt x="381" y="448" on="1"/>
        <pt x="189" y="448" on="1"/>
      </contour>
      <contour>
        <pt x="140" y="-12" on="1"/>
        <pt x="140" y="300" on="1"/>
        <pt x="428" y="300" on="1"/>
        <pt x="428" y="0" on="1"/>
      </contour>
    </TTGlyph>
    <TTGlyph name="exclamdown" xMin="140" yMin="-12" xMax="428" yMax="1536">
      <component glyphName="exclam" x="0" y="1524" scalex="1.0" scaley="-1.0" flags="0x1004"/>
    </TTGlyph>
    <TTGlyph name="f" xMin="57" yMin="-12" xMax="690" yMax="1546">
      <contour>
        <pt x="617" y="1344" on="1"/>
        <pt x="542" y="1344" on="0"/>
        <pt x="487" y="1258" on="0"/>
        <pt x="487" y="1173" on="1"/>
        <pt x="487" y="1152" on="1"/>
        <pt x="690" y="1152" on="1"/>
        <pt x="678" y="936" on="1"/>
        <pt x="487" y="936" on="1"/>
        <pt x="487" y="12" on="1"/>
        <pt x="199" y="-12" on="1"/>
        <pt x="199" y="936" on="1"/>
        <pt x="57" y="936" on="1"/>
        <pt x="69" y="1152" on="1"/>
        <pt x="199" y="1152" on="1"/>
        <pt x="199" y="1174" on="1"/>
        <pt x="199" y="1356" on="0"/>
        <pt x="238" y="1430" on="1"/>
        <pt x="299" y="1546" on="0"/>
        <pt x="485" y="1546" on="1"/>
        <pt x="612" y="1546" on="0"/>
        <pt x="680" y="1516" on="1"/>
        <pt x="680" y="1344" on="1"/>
      </contour>
    </TTGlyph>
    <TTGlyph name="f_f" xMin="57" yMin="-12" xMax="1444" yMax="1546">
      <component glyphName="f" x="0" y="0" flags="0x1004"/>
      <component glyphName="f" x="754" y="0" flags="0x1004"/>
    </TTGlyph>
    <TTGlyph name="f_f_i" xMin="57" yMin="-12" xMax="1939" yMax="1600">
      <component glyphName="f" x="0" y="0" flags="0x1004"/>
      <component glyphName="f" x="754" y="0" flags="0x1004"/>
      <component glyphName="i" x="1508" y="0" flags="0x1004"/>
    </TTGlyph>
    <TTGlyph name="f_f_l" xMin="57" yMin="-12" xMax="1938" yMax="1546">
      <component glyphName="f" x="0" y="0" flags="0x1004"/>
      <component glyphName="f" x="754" y="0" flags="0x1004"/>
      <component glyphName="l" x="1508" y="0" flags="0x1004"/>
    </TTGlyph>
    <TTGlyph name="fi" xMin="87" yMin="-12" xMax="1215" yMax="1600">
      <contour>
        <pt x="647" y="1344" on="1"/>
        <pt x="572" y="1344" on="0"/>
        <pt x="517" y="1258" on="0"/>
        <pt x="517" y="1173" on="1"/>
        <pt x="517" y="1152" on="1"/>
        <pt x="1215" y="1152" on="1"/>
        <pt x="1215" y="12" on="1"/>
        <pt x="927" y="-12" on="1"/>
        <pt x="927" y="915" on="1"/>
        <pt x="517" y="915" on="1"/>
        <pt x="517" y="12" on="1"/>
        <pt x="229" y="-12" on="1"/>
        <pt x="229" y="917" on="1"/>
        <pt x="87" y="917" on="1"/>
        <pt x="111" y="1152" on="1"/>
        <pt x="229" y="1152" on="1"/>
        <pt x="229" y="1174" on="1"/>
        <pt x="229" y="1356" on="0"/>
        <pt x="268" y="1430" on="1"/>
        <pt x="329" y="1546" on="0"/>
        <pt x="515" y="1546" on="1"/>
        <pt x="642" y="1546" on="0"/>
        <pt x="710" y="1516" on="1"/>
        <pt x="710" y="1344" on="1"/>
      </contour>
      <contour>
        <pt x="1215" y="1600" on="1"/>
        <pt x="1215" y="1300" on="1"/>
        <pt x="927" y="1288" on="1"/>
        <pt x="927" y="1600" on="1"/>
      </contour>
    </TTGlyph>
    <TTGlyph name="five" xMin="103" yMin="-25" xMax="1008" yMax="1536">
      <contour>
        <pt x="409" y="938" on="1"/>
        <pt x="512" y="979" on="0"/>
        <pt x="608" y="979" on="1"/>
        <pt x="610" y="979" on="1"/>
        <pt x="780" y="979" on="0"/>
        <pt x="895" y="836" on="1"/>
        <pt x="1008" y="697" on="0"/>
        <pt x="1008" y="498" on="1"/>
        <pt x="1008" y="323" on="0"/>
        <pt x="859" y="73" on="0"/>
        <pt x="732" y="14" on="1"/>
        <pt x="648" y="-25" on="0"/>
        <pt x="547" y="-25" on="1"/>
        <pt x="417" y="-25" on="0"/>
        <pt x="224" y="92" on="0"/>
        <pt x="165" y="188" on="1"/>
        <pt x="123" y="254" on="0"/>
        <pt x="103" y="348" on="1"/>
        <pt x="334" y="434" on="1"/>
        <pt x="364" y="286" on="0"/>
        <pt x="468" y="248" on="1"/>
        <pt x="491" y="239" on="0"/>
        <pt x="520" y="239" on="1"/>
        <pt x="710" y="239" on="0"/>
        <pt x="710" y="493" on="1"/>
        <pt x="710" y="571" on="0"/>
        <pt x="656" y="694" on="0"/>
        <pt x="609" y="726" on="1"/>
        <pt x="574" y="749" on="0"/>
        <pt x="528" y="749" on="1"/>
        <pt x="430" y="749" on="0"/>
        <pt x="340" y="642" on="1"/>
        <pt x="126" y="731" on="1"/>
        <pt x="192" y="1536" on="1"/>
        <pt x="947" y="1536" on="1"/>
        <pt x="923" y="1296" on="1"/>
        <pt x="442" y="1296" on="1"/>
      </contour>
    </TTGlyph>
    <TTGlyph name="fl" xMin="90" yMin="-12" xMax="1218" yMax="1536">
      <contour>
        <pt x="610" y="1344" on="1"/>
        <pt x="580" y="1344" on="0"/>
        <pt x="541" y="1317" on="0"/>
        <pt x="525" y="1261" on="0"/>
        <pt x="520" y="1212" on="0"/>
        <pt x="520" y="1173" on="1"/>
        <pt x="520" y="1152" on="1"/>
        <pt x="711" y="1152" on="1"/>
        <pt x="687" y="915" on="1"/>
        <pt x="520" y="915" on="1"/>
        <pt x="520" y="12" on="1"/>
        <pt x="232" y="-12" on="1"/>
        <pt x="232" y="917" on="1"/>
        <pt x="90" y="917" on="1"/>
        <pt x="114" y="1152" on="1"/>
        <pt x="232" y="1152" on="1"/>
        <pt x="232" y="1174" on="1"/>
        <pt x="232" y="1298" on="0"/>
        <pt x="282" y="1445" on="0"/>
        <pt x="350" y="1484" on="1"/>
        <pt x="442" y="1536" on="0"/>
        <pt x="618" y="1536" on="1"/>
        <pt x="1218" y="1536" on="1"/>
        <pt x="1218" y="12" on="1"/>
        <pt x="930" y="-12" on="1"/>
        <pt x="930" y="1344" on="1"/>
      </contour>
    </TTGlyph>
    <TTGlyph name="florin" xMin="6" yMin="-394" xMax="680" yMax="1546">
      <contour>
        <pt x="617" y="1344" on="1"/>
        <pt x="542" y="1344" on="0"/>
        <pt x="487" y="1258" on="0"/>
        <pt x="487" y="1173" on="1"/>
        <pt x="487" y="864" on="1"/>
        <pt x="678" y="864" on="1"/>
        <pt x="678" y="627" on="1"/>
        <pt x="487" y="627" on="1"/>
        <pt x="487" y="-22" on="1"/>
        <pt x="487" y="-204" on="0"/>
        <pt x="448" y="-278" on="1"/>
        <pt x="387" y="-394" on="0"/>
        <pt x="201" y="-394" on="1"/>
        <pt x="65" y="-394" on="0"/>
        <pt x="6" y="-364" on="1"/>
        <pt x="6" y="-192" on="1"/>
        <pt x="69" y="-192" on="1"/>
        <pt x="144" y="-192" on="0"/>
        <pt x="199" y="-106" on="0"/>
        <pt x="199" y="-21" on="1"/>
        <pt x="199" y="629" on="1"/>
        <pt x="57" y="629" on="1"/>
        <pt x="57" y="864" on="1"/>
        <pt x="199" y="864" on="1"/>
        <pt x="199" y="1174" on="1"/>
        <pt x="199" y="1356" on="0"/>
        <pt x="238" y="1430" on="1"/>
        <pt x="299" y="1546" on="0"/>
        <pt x="485" y="1546" on="1"/>
        <pt x="612" y="1546" on="0"/>
        <pt x="680" y="1516" on="1"/>
        <pt x="680" y="1344" on="1"/>
      </contour>
    </TTGlyph>
    <TTGlyph name="four" xMin="35" yMin="-12" xMax="1038" yMax="1536">
      <contour>
        <pt x="558" y="384" on="1"/>
        <pt x="35" y="384" on="1"/>
        <pt x="35" y="614" on="1"/>
        <pt x="545" y="1536" on="1"/>
        <pt x="846" y="1536" on="1"/>
        <pt x="846" y="614" on="1"/>
        <pt x="1038" y="614" on="1"/>
        <pt x="1014" y="384" on="1"/>
        <pt x="846" y="384" on="1"/>
        <pt x="846" y="12" on="1"/>
        <pt x="558" y="-12" on="1"/>
      </contour>
      <contour>
        <pt x="558" y="614" on="1"/>
        <pt x="558" y="1153" on="1"/>
        <pt x="273" y="614" on="1"/>
      </contour>
    </TTGlyph>
    <TTGlyph name="foursuperior" xMin="-15" yMin="528" xMax="748" yMax="1536">
      <contour>
        <pt x="375" y="768" on="1"/>
        <pt x="-15" y="768" on="1"/>
        <pt x="-15" y="936" on="1"/>
        <pt x="337" y="1536" on="1"/>
        <pt x="623" y="1536" on="1"/>
        <pt x="623" y="946" on="1"/>
        <pt x="748" y="946" on="1"/>
        <pt x="732" y="768" on="1"/>
        <pt x="623" y="768" on="1"/>
        <pt x="623" y="544" on="1"/>
        <pt x="375" y="528" on="1"/>
      </contour>
      <contour>
        <pt x="375" y="946" on="1"/>
        <pt x="375" y="1287" on="1"/>
        <pt x="170" y="946" on="1"/>
      </contour>
    </TTGlyph>
    <TTGlyph name="fraction" xMin="61" yMin="0" xMax="562" yMax="1536">
      <contour>
        <pt x="262" y="1536" on="1"/>
        <pt x="562" y="1536" on="1"/>
        <pt x="361" y="0" on="1"/>
        <pt x="61" y="0" on="1"/>
      </contour>
    </TTGlyph>
    <TTGlyph name="g" xMin="96" yMin="-358" xMax="1153" yMax="1215">
      <contour>
        <pt x="497" y="457" on="1"/>
        <pt x="454" y="457" on="0"/>
        <pt x="422" y="427" on="0"/>
        <pt x="422" y="384" on="1"/>
        <pt x="422" y="355" on="0"/>
        <pt x="464" y="316" on="0"/>
        <pt x="494" y="312" on="1"/>
        <pt x="766" y="291" on="1"/>
        <pt x="883" y="282" on="0"/>
        <pt x="1046" y="188" on="0"/>
        <pt x="1082" y="104" on="1"/>
        <pt x="1105" y="52" on="0"/>
        <pt x="1105" y="-20" on="1"/>
        <pt x="1105" y="-85" on="0"/>
        <pt x="1057" y="-192" on="0"/>
        <pt x="979" y="-263" on="0"/>
        <pt x="869" y="-315" on="0"/>
        <pt x="757" y="-343" on="0"/>
        <pt x="692" y="-351" on="1"/>
        <pt x="636" y="-358" on="0"/>
        <pt x="578" y="-358" on="1"/>
        <pt x="230" y="-358" on="0"/>
        <pt x="128" y="-218" on="1"/>
        <pt x="96" y="-174" on="0"/>
        <pt x="96" y="-123" on="1"/>
        <pt x="96" y="-26" on="0"/>
        <pt x="197" y="48" on="1"/>
        <pt x="239" y="80" on="0"/>
        <pt x="298" y="103" on="1"/>
        <pt x="167" y="138" on="0"/>
        <pt x="134" y="217" on="1"/>
        <pt x="126" y="236" on="0"/>
        <pt x="126" y="256" on="1"/>
        <pt x="126" y="314" on="0"/>
        <pt x="185" y="400" on="0"/>
        <pt x="234" y="441" on="1"/>
        <pt x="281" y="481" on="0"/>
        <pt x="343" y="511" on="1"/>
        <pt x="159" y="620" on="0"/>
        <pt x="159" y="815" on="1"/>
        <pt x="159" y="978" on="0"/>
        <pt x="294" y="1078" on="1"/>
        <pt x="416" y="1167" on="0"/>
        <pt x="582" y="1167" on="1"/>
        <pt x="745" y="1167" on="0"/>
        <pt x="874" y="1081" on="1"/>
        <pt x="969" y="1170" on="0"/>
        <pt x="1044" y="1200" on="1"/>
        <pt x="1083" y="1215" on="0"/>
        <pt x="1122" y="1215" on="1"/>
        <pt x="1133" y="1215" on="0"/>
        <pt x="1153" y="1211" on="1"/>
        <pt x="1153" y="969" on="1"/>
        <pt x="1078" y="997" on="0"/>
        <pt x="1060" y="1002" on="1"/>
        <pt x="1039" y="1008" on="0"/>
        <pt x="1027" y="1008" on="1"/>
        <pt x="1007" y="1008" on="0"/>
        <pt x="971" y="991" on="1"/>
        <pt x="972" y="988" on="0"/>
        <pt x="984" y="957" on="0"/>
        <pt x="988" y="947" on="0"/>
        <pt x="998" y="918" on="0"/>
        <pt x="1002" y="904" on="0"/>
        <pt x="1010" y="877" on="0"/>
        <pt x="1012" y="857" on="0"/>
        <pt x="1015" y="832" on="0"/>
        <pt x="1015" y="820" on="1"/>
        <pt x="1015" y="682" on="0"/>
        <pt x="914" y="574" on="1"/>
        <pt x="800" y="453" on="0"/>
        <pt x="617" y="453" on="1"/>
        <pt x="595" y="453" on="0"/>
        <pt x="515" y="457" on="0"/>
      </contour>
      <contour>
        <pt x="449" y="80" on="1"/>
        <pt x="358" y="53" on="0"/>
        <pt x="358" y="-36" on="1"/>
        <pt x="358" y="-72" on="0"/>
        <pt x="404" y="-119" on="0"/>
        <pt x="489" y="-139" on="0"/>
        <pt x="562" y="-145" on="0"/>
        <pt x="613" y="-145" on="1"/>
        <pt x="672" y="-145" on="0"/>
        <pt x="763" y="-123" on="0"/>
        <pt x="825" y="-63" on="0"/>
        <pt x="825" y="-17" on="1"/>
        <pt x="825" y="80" on="0"/>
        <pt x="617" y="80" on="1"/>
      </contour>
      <contour>
        <pt x="580" y="993" on="1"/>
        <pt x="517" y="993" on="0"/>
        <pt x="447" y="896" on="0"/>
        <pt x="447" y="826" on="1"/>
        <pt x="447" y="628" on="0"/>
        <pt x="582" y="628" on="1"/>
        <pt x="648" y="628" on="0"/>
        <pt x="710" y="736" on="0"/>
        <pt x="710" y="820" on="1"/>
        <pt x="710" y="896" on="0"/>
        <pt x="645" y="993" on="0"/>
      </contour>
    </TTGlyph>
    <TTGlyph name="gbreve" xMin="96" yMin="-358" xMax="1153" yMax="1728">
      <component glyphName="g" x="0" y="0" flags="0x1204"/>
      <component glyphName="breve" x="103" y="0" flags="0x1004"/>
    </TTGlyph>
    <TTGlyph name="gcircumflex" xMin="96" yMin="-358" xMax="1153" yMax="1728">
      <component glyphName="g" x="0" y="0" flags="0x1204"/>
      <component glyphName="circumflex" x="103" y="0" flags="0x1004"/>
    </TTGlyph>
    <TTGlyph name="gcommaaccent" xMin="96" yMin="-358" xMax="1153" yMax="1920">
      <component glyphName="g" x="0" y="0" flags="0x1204"/>
      <component glyphName="quoteleft" x="366" y="384" flags="0x1004"/>
    </TTGlyph>
    <TTGlyph name="gdotaccent" xMin="96" yMin="-358" xMax="1153" yMax="1536">
      <component glyphName="g" x="0" y="0" flags="0x1204"/>
      <component glyphName="dotaccent" x="487" y="0" flags="0x1004"/>
    </TTGlyph>
    <TTGlyph name="germandbls" xMin="143" yMin="0" xMax="1146" yMax="1567">
      <contour>
        <pt x="812" y="858" on="1"/>
        <pt x="887" y="833" on="0"/>
        <pt x="995" y="777" on="0"/>
        <pt x="1094" y="688" on="0"/>
        <pt x="1146" y="557" on="0"/>
        <pt x="1146" y="471" on="1"/>
        <pt x="1146" y="370" on="0"/>
        <pt x="1086" y="212" on="0"/>
        <pt x="983" y="108" on="0"/>
        <pt x="832" y="39" on="0"/>
        <pt x="662" y="6" on="0"/>
        <pt x="559" y="2" on="1"/>
        <pt x="559" y="230" on="1"/>
        <pt x="571" y="230" on="1"/>
        <pt x="671" y="230" on="0"/>
        <pt x="809" y="305" on="0"/>
        <pt x="838" y="376" on="1"/>
        <pt x="855" y="419" on="0"/>
        <pt x="855" y="462" on="1"/>
        <pt x="855" y="547" on="0"/>
        <pt x="763" y="669" on="0"/>
        <pt x="691" y="700" on="1"/>
        <pt x="637" y="723" on="0"/>
        <pt x="570" y="723" on="1"/>
        <pt x="570" y="931" on="1"/>
        <pt x="719" y="979" on="0"/>
        <pt x="758" y="1094" on="1"/>
        <pt x="770" y="1127" on="0"/>
        <pt x="770" y="1160" on="1"/>
        <pt x="770" y="1220" on="0"/>
        <pt x="707" y="1308" on="0"/>
        <pt x="658" y="1330" on="1"/>
        <pt x="622" y="1345" on="0"/>
        <pt x="579" y="1345" on="1"/>
        <pt x="482" y="1345" on="0"/>
        <pt x="446" y="1216" on="1"/>
        <pt x="433" y="1169" on="0"/>
        <pt x="433" y="1111" on="1"/>
        <pt x="433" y="0" on="1"/>
        <pt x="143" y="0" on="1"/>
        <pt x="143" y="1056" on="1"/>
        <pt x="143" y="1238" on="0"/>
        <pt x="273" y="1489" on="0"/>
        <pt x="397" y="1538" on="1"/>
        <pt x="472" y="1567" on="0"/>
        <pt x="548" y="1567" on="1"/>
        <pt x="704" y="1567" on="0"/>
        <pt x="933" y="1442" on="0"/>
        <pt x="986" y="1333" on="1"/>
        <pt x="1019" y="1266" on="0"/>
        <pt x="1019" y="1192" on="1"/>
        <pt x="1019" y="1103" on="0"/>
        <pt x="921" y="931" on="0"/>
      </contour>
    </TTGlyph>
    <TTGlyph name="grave" xMin="192" yMin="1248" xMax="768" yMax="1632">
      <contour>
        <pt x="720" y="1248" on="1"/>
        <pt x="192" y="1344" on="1"/>
        <pt x="288" y="1632" on="1"/>
        <pt x="768" y="1392" on="1"/>
      </contour>
    </TTGlyph>
    <TTGlyph name="greater" xMin="280" yMin="89" xMax="1102" yMax="1064">
      <contour>
        <pt x="294" y="89" on="1"/>
        <pt x="280" y="432" on="1"/>
        <pt x="757" y="607" on="1"/>
        <pt x="306" y="803" on="1"/>
        <pt x="292" y="1064" on="1"/>
        <pt x="1102" y="704" on="1"/>
        <pt x="1102" y="439" on="1"/>
      </contour>
    </TTGlyph>
    <TTGlyph name="greaterequal" xMin="-155" yMin="473" xMax="667" yMax="1448">
      <contour>
        <pt x="-141" y="473" on="1"/>
        <pt x="-155" y="816" on="1"/>
        <pt x="322" y="991" on="1"/>
        <pt x="-129" y="1187" on="1"/>
        <pt x="-143" y="1448" on="1"/>
        <pt x="667" y="1088" on="1"/>
        <pt x="667" y="823" on="1"/>
      </contour>
      <contour>
        <pt x="-32" y="718" on="1"/>
        <pt x="544" y="718" on="1"/>
        <pt x="544" y="480" on="1"/>
        <pt x="-32" y="480" on="1"/>
      </contour>
    </TTGlyph>
    <TTGlyph name="guillemotleft" xMin="96" yMin="59" xMax="1194" yMax="1094">
      <contour>
        <pt x="96" y="439" on="1"/>
        <pt x="96" y="704" on="1"/>
        <pt x="606" y="1094" on="1"/>
        <pt x="592" y="833" on="1"/>
        <pt x="291" y="607" on="1"/>
        <pt x="618" y="402" on="1"/>
        <pt x="604" y="59" on="1"/>
      </contour>
      <contour>
        <pt x="672" y="439" on="1"/>
        <pt x="672" y="704" on="1"/>
        <pt x="1182" y="1094" on="1"/>
        <pt x="1168" y="833" on="1"/>
        <pt x="867" y="607" on="1"/>
        <pt x="1194" y="402" on="1"/>
        <pt x="1180" y="59" on="1"/>
      </contour>
    </TTGlyph>
    <TTGlyph name="guillemotright" xMin="96" yMin="59" xMax="1194" yMax="1094">
      <contour>
        <pt x="686" y="59" on="1"/>
        <pt x="672" y="402" on="1"/>
        <pt x="999" y="607" on="1"/>
        <pt x="698" y="833" on="1"/>
        <pt x="684" y="1094" on="1"/>
        <pt x="1194" y="704" on="1"/>
        <pt x="1194" y="439" on="1"/>
      </contour>
      <contour>
        <pt x="110" y="59" on="1"/>
        <pt x="96" y="402" on="1"/>
        <pt x="423" y="607" on="1"/>
        <pt x="122" y="833" on="1"/>
        <pt x="108" y="1094" on="1"/>
        <pt x="618" y="704" on="1"/>
        <pt x="618" y="439" on="1"/>
      </contour>
    </TTGlyph>
    <TTGlyph name="guilsinglleft" xMin="280" yMin="59" xMax="932" yMax="1094">
      <contour>
        <pt x="280" y="439" on="1"/>
        <pt x="280" y="704" on="1"/>
        <pt x="920" y="1094" on="1"/>
        <pt x="906" y="833" on="1"/>
        <pt x="525" y="607" on="1"/>
        <pt x="932" y="402" on="1"/>
        <pt x="918" y="59" on="1"/>
      </contour>
    </TTGlyph>
    <TTGlyph name="guilsinglright" xMin="280" yMin="59" xMax="932" yMax="1094">
      <contour>
        <pt x="294" y="59" on="1"/>
        <pt x="280" y="402" on="1"/>
        <pt x="687" y="607" on="1"/>
        <pt x="306" y="833" on="1"/>
        <pt x="292" y="1094" on="1"/>
        <pt x="932" y="704" on="1"/>
        <pt x="932" y="439" on="1"/>
      </contour>
    </TTGlyph>
    <TTGlyph name="h" xMin="142" yMin="-12" xMax="1006" yMax="1536">
      <contour>
        <pt x="718" y="773" on="1"/>
        <pt x="718" y="922" on="0"/>
        <pt x="618" y="922" on="1"/>
        <pt x="580" y="922" on="0"/>
        <pt x="488" y="878" on="0"/>
        <pt x="430" y="843" on="1"/>
        <pt x="430" y="12" on="1"/>
        <pt x="142" y="-12" on="1"/>
        <pt x="142" y="1500" on="1"/>
        <pt x="430" y="1536" on="1"/>
        <pt x="430" y="1005" on="1"/>
        <pt x="519" y="1089" on="0"/>
        <pt x="603" y="1128" on="1"/>
        <pt x="685" y="1167" on="0"/>
        <pt x="760" y="1167" on="1"/>
        <pt x="847" y="1167" on="0"/>
        <pt x="962" y="1073" on="0"/>
        <pt x="988" y="997" on="1"/>
        <pt x="1006" y="943" on="0"/>
        <pt x="1006" y="876" on="1"/>
        <pt x="1006" y="12" on="1"/>
        <pt x="718" y="-12" on="1"/>
      </contour>
    </TTGlyph>
    <TTGlyph name="hbar" xMin="142" yMin="-12" xMax="1006" yMax="1536">
      <component glyphName="h" x="0" y="0" flags="0x1204"/>
      <component glyphName="macron" x="60" y="0" flags="0x1004"/>
    </TTGlyph>
    <TTGlyph name="hcircumflex" xMin="142" yMin="-12" xMax="1006" yMax="2138">
      <component glyphName="circumflex" x="46" y="410" flags="0x1004"/>
      <component glyphName="h" x="0" y="0" flags="0x1204"/>
    </TTGlyph>
    <TTGlyph name="hungarumlaut" xMin="88" yMin="1150" xMax="1094" yMax="1728">
      <contour>
        <pt x="591" y="1248" on="1"/>
        <pt x="860" y="1728" on="1"/>
        <pt x="1094" y="1534" on="1"/>
        <pt x="710" y="1150" on="1"/>
      </contour>
      <contour>
        <pt x="88" y="1248" on="1"/>
        <pt x="357" y="1728" on="1"/>
        <pt x="591" y="1534" on="1"/>
        <pt x="207" y="1150" on="1"/>
      </contour>
    </TTGlyph>
    <TTGlyph name="hyphen" xMin="0" yMin="480" xMax="576" yMax="718">
      <contour>
        <pt x="0" y="718" on="1"/>
        <pt x="576" y="718" on="1"/>
        <pt x="576" y="480" on="1"/>
        <pt x="0" y="480" on="1"/>
      </contour>
    </TTGlyph>
    <TTGlyph name="i" xMin="143" yMin="-12" xMax="431" yMax="1600">
      <contour>
        <pt x="143" y="1128" on="1"/>
        <pt x="431" y="1152" on="1"/>
        <pt x="431" y="12" on="1"/>
        <pt x="143" y="-12" on="1"/>
      </contour>
      <contour>
        <pt x="431" y="1600" on="1"/>
        <pt x="431" y="1312" on="1"/>
        <pt x="143" y="1300" on="1"/>
        <pt x="143" y="1598" on="1"/>
      </contour>
    </TTGlyph>
    <TTGlyph name="iacute" xMin="-2" yMin="-12" xMax="574" yMax="1632">
      <component glyphName="dotlessi" x="0" y="0" flags="0x1204"/>
      <component glyphName="acute" x="-194" y="0" flags="0x1004"/>
    </TTGlyph>
    <TTGlyph name="iacute_jacute" xMin="-2" yMin="-12" xMax="574" yMax="1632">
      <component glyphName="dotlessi" x="0" y="0" flags="0x1204"/>
      <component glyphName="acute" x="-194" y="0" flags="0x1004"/>
    </TTGlyph>
    <TTGlyph name="ibreve" xMin="-1" yMin="-12" xMax="863" yMax="1769">
      <component glyphName="breve" x="-97" y="41" flags="0x1004"/>
      <component glyphName="dotlessi" x="0" y="0" flags="0x1204"/>
    </TTGlyph>
    <TTGlyph name="icircumflex" xMin="-50" yMin="-12" xMax="622" yMax="1728">
      <component glyphName="dotlessi" x="0" y="0" flags="0x1204"/>
      <component glyphName="circumflex" x="-242" y="0" flags="0x1004"/>
    </TTGlyph>
    <TTGlyph name="idieresis" xMin="-98" yMin="-12" xMax="670" yMax="1536">
      <component glyphName="dotlessi" x="0" y="0" flags="0x1204"/>
      <component glyphName="dieresis" x="-98" y="0" flags="0x1004"/>
    </TTGlyph>
    <TTGlyph name="igrave" xMin="-2" yMin="-12" xMax="574" yMax="1632">
      <component glyphName="dotlessi" x="0" y="0" flags="0x1204"/>
      <component glyphName="grave" x="-194" y="0" flags="0x1004"/>
    </TTGlyph>
    <TTGlyph name="ij" xMin="143" yMin="-288" xMax="1063" yMax="1600">
      <component glyphName="i" x="0" y="0" flags="0x1004"/>
      <component glyphName="j" x="570" y="0" flags="0x1004"/>
    </TTGlyph>
    <TTGlyph name="imacron" xMin="143" yMin="-12" xMax="719" yMax="1481">
      <component glyphName="macron" x="-49" y="41" flags="0x1004"/>
      <component glyphName="dotlessi" x="0" y="0" flags="0x1204"/>
    </TTGlyph>
    <TTGlyph name="integral" xMin="6" yMin="-394" xMax="680" yMax="1546">
      <contour>
        <pt x="617" y="1344" on="1"/>
        <pt x="542" y="1344" on="0"/>
        <pt x="487" y="1258" on="0"/>
        <pt x="487" y="1173" on="1"/>
        <pt x="487" y="-22" on="1"/>
        <pt x="487" y="-204" on="0"/>
        <pt x="448" y="-278" on="1"/>
        <pt x="387" y="-394" on="0"/>
        <pt x="201" y="-394" on="1"/>
        <pt x="65" y="-394" on="0"/>
        <pt x="6" y="-364" on="1"/>
        <pt x="6" y="-192" on="1"/>
        <pt x="69" y="-192" on="1"/>
        <pt x="144" y="-192" on="0"/>
        <pt x="199" y="-106" on="0"/>
        <pt x="199" y="-21" on="1"/>
        <pt x="199" y="1174" on="1"/>
        <pt x="199" y="1356" on="0"/>
        <pt x="238" y="1430" on="1"/>
        <pt x="299" y="1546" on="0"/>
        <pt x="485" y="1546" on="1"/>
        <pt x="612" y="1546" on="0"/>
        <pt x="680" y="1516" on="1"/>
        <pt x="680" y="1344" on="1"/>
      </contour>
    </TTGlyph>
    <TTGlyph name="iogonek" xMin="-17" yMin="-404" xMax="431" yMax="1600">
      <component glyphName="ogonek" x="-208" y="-18" flags="0x1004"/>
      <component glyphName="i" x="0" y="0" flags="0x1204"/>
    </TTGlyph>
    <TTGlyph name="itilde" xMin="112" yMin="-12" xMax="750" yMax="1596">
      <component glyphName="tilde" x="-14" y="59" flags="0x1004"/>
      <component glyphName="dotlessi" x="0" y="0" flags="0x1204"/>
    </TTGlyph>
    <TTGlyph name="j" xMin="46" yMin="-288" xMax="493" yMax="1600">
      <contour>
        <pt x="238" y="-288" on="1"/>
        <pt x="157" y="-288" on="0"/>
        <pt x="46" y="-269" on="1"/>
        <pt x="46" y="-96" on="1"/>
        <pt x="119" y="-96" on="0"/>
        <pt x="194" y="-65" on="0"/>
        <pt x="201" y="-16" on="1"/>
        <pt x="205" y="9" on="0"/>
        <pt x="205" y="54" on="1"/>
        <pt x="205" y="1128" on="1"/>
        <pt x="493" y="1152" on="1"/>
        <pt x="493" y="54" on="1"/>
        <pt x="493" y="3" on="0"/>
        <pt x="492" y="-46" on="0"/>
        <pt x="486" y="-125" on="0"/>
        <pt x="473" y="-168" on="0"/>
        <pt x="450" y="-220" on="0"/>
        <pt x="412" y="-253" on="0"/>
        <pt x="386" y="-265" on="1"/>
        <pt x="334" y="-288" on="0"/>
      </contour>
      <contour>
        <pt x="493" y="1600" on="1"/>
        <pt x="493" y="1312" on="1"/>
        <pt x="205" y="1300" on="1"/>
        <pt x="205" y="1598" on="1"/>
      </contour>
    </TTGlyph>
    <TTGlyph name="jcircumflex" xMin="46" yMin="-288" xMax="829" yMax="1769">
      <component glyphName="circumflex" x="-35" y="41" flags="0x1004"/>
      <component glyphName="dotlessj" x="0" y="0" flags="0x1204"/>
    </TTGlyph>
    <TTGlyph name="k" xMin="143" yMin="-27" xMax="1035" yMax="1536">
      <contour>
        <pt x="431" y="421" on="1"/>
        <pt x="431" y="0" on="1"/>
        <pt x="143" y="0" on="1"/>
        <pt x="143" y="1500" on="1"/>
        <pt x="431" y="1536" on="1"/>
        <pt x="431" y="775" on="1"/>
        <pt x="724" y="1152" on="1"/>
        <pt x="1035" y="1152" on="1"/>
        <pt x="711" y="738" on="1"/>
        <pt x="1012" y="60" on="1"/>
        <pt x="758" y="-27" on="1"/>
        <pt x="525" y="546" on="1"/>
      </contour>
    </TTGlyph>
    <TTGlyph name="kcommaaccent" xMin="143" yMin="-725" xMax="1035" yMax="1536">
      <component glyphName="comma" x="518" y="-437" flags="0x1004"/>
      <component glyphName="k" x="0" y="0" flags="0x1204"/>
    </TTGlyph>
    <TTGlyph name="l" xMin="142" yMin="-12" xMax="430" yMax="1536">
      <contour>
        <pt x="142" y="1500" on="1"/>
        <pt x="430" y="1536" on="1"/>
        <pt x="430" y="12" on="1"/>
        <pt x="142" y="-12" on="1"/>
      </contour>
    </TTGlyph>
    <TTGlyph name="lacute" xMin="142" yMin="-12" xMax="958" yMax="2042">
      <component glyphName="acute" x="190" y="410" flags="0x1004"/>
      <component glyphName="l" x="0" y="0" flags="0x1204"/>
    </TTGlyph>
    <TTGlyph name="lcaron" xMin="142" yMin="-12" xMax="901" yMax="1536">
      <component glyphName="comma" x="517" y="1248" flags="0x1004"/>
      <component glyphName="l" x="0" y="0" flags="0x1004"/>
    </TTGlyph>
    <TTGlyph name="lcommaaccent" xMin="-2" yMin="-710" xMax="430" yMax="1536">
      <component glyphName="comma" x="-98" y="-422" flags="0x1004"/>
      <component glyphName="l" x="0" y="0" flags="0x1204"/>
    </TTGlyph>
    <TTGlyph name="ldot" xMin="142" yMin="-12" xMax="857" yMax="1536">
      <component glyphName="periodcentered" x="569" y="0" flags="0x1004"/>
      <component glyphName="l" x="0" y="0" flags="0x1004"/>
    </TTGlyph>
    <TTGlyph name="less" xMin="280" yMin="89" xMax="1102" yMax="1064">
      <contour>
        <pt x="280" y="439" on="1"/>
        <pt x="280" y="704" on="1"/>
        <pt x="1090" y="1064" on="1"/>
        <pt x="1076" y="803" on="1"/>
        <pt x="625" y="607" on="1"/>
        <pt x="1102" y="432" on="1"/>
        <pt x="1088" y="89" on="1"/>
      </contour>
    </TTGlyph>
    <TTGlyph name="lessequal" xMin="-155" yMin="473" xMax="667" yMax="1448">
      <contour>
        <pt x="-155" y="823" on="1"/>
        <pt x="-155" y="1088" on="1"/>
        <pt x="655" y="1448" on="1"/>
        <pt x="641" y="1187" on="1"/>
        <pt x="190" y="991" on="1"/>
        <pt x="667" y="816" on="1"/>
        <pt x="653" y="473" on="1"/>
      </contour>
      <contour>
        <pt x="-32" y="480" on="1"/>
        <pt x="544" y="480" on="1"/>
        <pt x="544" y="718" on="1"/>
        <pt x="-32" y="718" on="1"/>
      </contour>
    </TTGlyph>
    <TTGlyph name="logicalnot" xMin="0" yMin="288" xMax="576" yMax="718">
      <contour>
        <pt x="0" y="718" on="1"/>
        <pt x="576" y="718" on="1"/>
        <pt x="576" y="288" on="1"/>
        <pt x="432" y="288" on="1"/>
        <pt x="432" y="480" on="1"/>
        <pt x="0" y="480" on="1"/>
      </contour>
    </TTGlyph>
    <TTGlyph name="lozenge" xMin="80" yMin="0" xMax="917" yMax="1440">
      <contour>
        <pt x="917" y="642" on="1"/>
        <pt x="635" y="0" on="1"/>
        <pt x="370" y="0" on="1"/>
        <pt x="80" y="642" on="1"/>
        <pt x="80" y="797" on="1"/>
        <pt x="370" y="1440" on="1"/>
        <pt x="635" y="1440" on="1"/>
        <pt x="917" y="797" on="1"/>
      </contour>
      <contour>
        <pt x="326" y="720" on="1"/>
        <pt x="491" y="321" on="1"/>
        <pt x="635" y="720" on="1"/>
        <pt x="491" y="1119" on="1"/>
      </contour>
    </TTGlyph>
    <TTGlyph name="lslash" xMin="0" yMin="-12" xMax="576" yMax="1536">
      <contour>
        <pt x="0" y="814" on="1"/>
        <pt x="576" y="960" on="1"/>
        <pt x="576" y="722" on="1"/>
        <pt x="0" y="576" on="1"/>
      </contour>
      <contour>
        <pt x="142" y="1500" on="1"/>
        <pt x="430" y="1536" on="1"/>
        <pt x="430" y="12" on="1"/>
        <pt x="142" y="-12" on="1"/>
      </contour>
    </TTGlyph>
    <TTGlyph name="m" xMin="142" yMin="-12" xMax="1390" yMax="1167">
      <contour>
        <pt x="1193" y="1167" on="1"/>
        <pt x="1243" y="1167" on="0"/>
        <pt x="1317" y="1127" on="0"/>
        <pt x="1358" y="1065" on="0"/>
        <pt x="1383" y="968" on="0"/>
        <pt x="1390" y="877" on="0"/>
        <pt x="1390" y="817" on="1"/>
        <pt x="1390" y="12" on="1"/>
        <pt x="1102" y="-12" on="1"/>
        <pt x="1102" y="802" on="1"/>
        <pt x="1102" y="833" on="0"/>
        <pt x="1092" y="883" on="0"/>
        <pt x="1065" y="921" on="0"/>
        <pt x="1043" y="921" on="1"/>
        <pt x="972" y="921" on="0"/>
        <pt x="910" y="839" on="1"/>
        <pt x="910" y="12" on="1"/>
        <pt x="622" y="-12" on="1"/>
        <pt x="622" y="804" on="1"/>
        <pt x="622" y="921" on="0"/>
        <pt x="573" y="921" on="1"/>
        <pt x="529" y="921" on="0"/>
        <pt x="474" y="880" on="1"/>
        <pt x="450" y="862" on="0"/>
        <pt x="430" y="839" on="1"/>
        <pt x="430" y="12" on="1"/>
        <pt x="142" y="-12" on="1"/>
        <pt x="142" y="1128" on="1"/>
        <pt x="430" y="1152" on="1"/>
        <pt x="430" y="1005" on="1"/>
        <pt x="567" y="1167" on="0"/>
        <pt x="727" y="1167" on="1"/>
        <pt x="799" y="1167" on="0"/>
        <pt x="878" y="1072" on="0"/>
        <pt x="897" y="988" on="1"/>
        <pt x="961" y="1072" on="0"/>
        <pt x="1030" y="1119" on="1"/>
        <pt x="1100" y="1167" on="0"/>
      </contour>
    </TTGlyph>
    <TTGlyph name="macron" xMin="192" yMin="1248" xMax="768" yMax="1440">
      <contour>
        <pt x="192" y="1440" on="1"/>
        <pt x="768" y="1440" on="1"/>
        <pt x="768" y="1248" on="1"/>
        <pt x="192" y="1248" on="1"/>
      </contour>
    </TTGlyph>
    <TTGlyph name="minus" xMin="0" yMin="480" xMax="576" yMax="718">
      <contour>
        <pt x="0" y="718" on="1"/>
        <pt x="576" y="718" on="1"/>
        <pt x="576" y="480" on="1"/>
        <pt x="0" y="480" on="1"/>
      </contour>
    </TTGlyph>
    <TTGlyph name="mu" xMin="138" yMin="-204" xMax="1002" yMax="1152">
      <contour>
        <pt x="714" y="135" on="1"/>
        <pt x="585" y="43" on="0"/>
        <pt x="484" y="43" on="1"/>
        <pt x="453" y="43" on="0"/>
        <pt x="426" y="46" on="1"/>
        <pt x="426" y="-192" on="1"/>
        <pt x="138" y="-204" on="1"/>
        <pt x="138" y="1128" on="1"/>
        <pt x="426" y="1152" on="1"/>
        <pt x="426" y="381" on="1"/>
        <pt x="426" y="308" on="0"/>
        <pt x="468" y="228" on="0"/>
        <pt x="521" y="228" on="1"/>
        <pt x="530" y="228" on="0"/>
        <pt x="548" y="230" on="0"/>
        <pt x="567" y="235" on="0"/>
        <pt x="580" y="239" on="0"/>
        <pt x="601" y="249" on="0"/>
        <pt x="610" y="253" on="0"/>
        <pt x="632" y="266" on="0"/>
        <pt x="638" y="270" on="0"/>
        <pt x="661" y="284" on="0"/>
        <pt x="662" y="285" on="1"/>
        <pt x="670" y="290" on="0"/>
        <pt x="705" y="312" on="0"/>
        <pt x="714" y="318" on="1"/>
        <pt x="714" y="1128" on="1"/>
        <pt x="1002" y="1152" on="1"/>
        <pt x="1002" y="12" on="1"/>
        <pt x="714" y="-12" on="1"/>
      </contour>
    </TTGlyph>
    <TTGlyph name="multiply" xMin="-71" yMin="193" xMax="644" yMax="908">
      <contour>
        <pt x="285" y="720" on="1"/>
        <pt x="473" y="908" on="1"/>
        <pt x="641" y="739" on="1"/>
        <pt x="453" y="552" on="1"/>
        <pt x="644" y="362" on="1"/>
        <pt x="475" y="193" on="1"/>
        <pt x="285" y="384" on="1"/>
        <pt x="98" y="196" on="1"/>
        <pt x="-71" y="364" on="1"/>
        <pt x="117" y="552" on="1"/>
        <pt x="-68" y="736" on="1"/>
        <pt x="101" y="905" on="1"/>
      </contour>
    </TTGlyph>
    <TTGlyph name="n" xMin="142" yMin="-12" xMax="1006" yMax="1167">
      <contour>
        <pt x="718" y="769" on="1"/>
        <pt x="718" y="922" on="0"/>
        <pt x="613" y="922" on="1"/>
        <pt x="575" y="922" on="0"/>
        <pt x="528" y="897" on="1"/>
        <pt x="469" y="866" on="0"/>
        <pt x="430" y="842" on="1"/>
        <pt x="430" y="12" on="1"/>
        <pt x="142" y="-12" on="1"/>
        <pt x="142" y="1128" on="1"/>
        <pt x="430" y="1152" on="1"/>
        <pt x="430" y="1005" on="1"/>
        <pt x="517" y="1081" on="0"/>
        <pt x="601" y="1124" on="1"/>
        <pt x="686" y="1167" on="0"/>
        <pt x="760" y="1167" on="1"/>
        <pt x="847" y="1167" on="0"/>
        <pt x="962" y="1073" on="0"/>
        <pt x="988" y="997" on="1"/>
        <pt x="1006" y="943" on="0"/>
        <pt x="1006" y="876" on="1"/>
        <pt x="1006" y="12" on="1"/>
        <pt x="718" y="-12" on="1"/>
      </contour>
    </TTGlyph>
    <TTGlyph name="nacute" xMin="142" yMin="-12" xMax="1102" yMax="1673">
      <component glyphName="acute" x="334" y="41" flags="0x1004"/>
      <component glyphName="n" x="0" y="0" flags="0x1204"/>
    </TTGlyph>
    <TTGlyph name="napostrophe" xMin="142" yMin="-12" xMax="1006" yMax="1167">
      <component glyphName="n" x="0" y="0" flags="0x1204"/>
    </TTGlyph>
    <TTGlyph name="ncaron" xMin="142" yMin="-12" xMax="1006" yMax="1769">
      <component glyphName="caron" x="46" y="41" flags="0x1004"/>
      <component glyphName="n" x="0" y="0" flags="0x1204"/>
    </TTGlyph>
    <TTGlyph name="ncommaaccent" xMin="142" yMin="-710" xMax="1006" yMax="1167">
      <component glyphName="comma" x="190" y="-422" flags="0x1004"/>
      <component glyphName="n" x="0" y="0" flags="0x1204"/>
    </TTGlyph>
    <TTGlyph name="nine" xMin="95" yMin="-27" xMax="968" yMax="1546">
      <contour>
        <pt x="675" y="663" on="1"/>
        <pt x="630" y="630" on="0"/>
        <pt x="504" y="585" on="0"/>
        <pt x="439" y="585" on="1"/>
        <pt x="286" y="585" on="0"/>
        <pt x="188" y="714" on="1"/>
        <pt x="95" y="836" on="0"/>
        <pt x="95" y="1007" on="1"/>
        <pt x="95" y="1175" on="0"/>
        <pt x="234" y="1434" on="0"/>
        <pt x="349" y="1500" on="1"/>
        <pt x="430" y="1546" on="0"/>
        <pt x="523" y="1546" on="1"/>
        <pt x="619" y="1546" on="0"/>
        <pt x="766" y="1478" on="0"/>
        <pt x="860" y="1353" on="0"/>
        <pt x="918" y="1211" on="0"/>
        <pt x="936" y="1120" on="1"/>
        <pt x="968" y="964" on="0"/>
        <pt x="968" y="745" on="1"/>
        <pt x="968" y="544" on="0"/>
        <pt x="861" y="205" on="0"/>
        <pt x="763" y="100" on="1"/>
        <pt x="645" y="-27" on="0"/>
        <pt x="480" y="-27" on="1"/>
        <pt x="274" y="-27" on="0"/>
        <pt x="179" y="186" on="1"/>
        <pt x="148" y="253" on="0"/>
        <pt x="136" y="345" on="1"/>
        <pt x="360" y="397" on="1"/>
        <pt x="366" y="370" on="0"/>
        <pt x="368" y="357" on="0"/>
        <pt x="381" y="308" on="0"/>
        <pt x="389" y="292" on="0"/>
        <pt x="405" y="255" on="0"/>
        <pt x="423" y="241" on="0"/>
        <pt x="448" y="220" on="0"/>
        <pt x="480" y="213" on="0"/>
        <pt x="499" y="213" on="1"/>
        <pt x="535" y="213" on="0"/>
        <pt x="591" y="248" on="0"/>
        <pt x="624" y="298" on="0"/>
        <pt x="649" y="375" on="0"/>
        <pt x="660" y="437" on="0"/>
        <pt x="665" y="477" on="1"/>
        <pt x="670" y="522" on="0"/>
      </contour>
      <contour>
        <pt x="674" y="886" on="1"/>
        <pt x="674" y="890" on="0"/>
        <pt x="675" y="907" on="0"/>
        <pt x="675" y="911" on="1"/>
        <pt x="675" y="983" on="1"/>
        <pt x="675" y="1212" on="0"/>
        <pt x="598" y="1270" on="1"/>
        <pt x="573" y="1289" on="0"/>
        <pt x="536" y="1289" on="1"/>
        <pt x="493" y="1289" on="0"/>
        <pt x="431" y="1246" on="0"/>
        <pt x="399" y="1172" on="0"/>
        <pt x="384" y="1090" on="0"/>
        <pt x="384" y="1042" on="1"/>
        <pt x="384" y="948" on="0"/>
        <pt x="460" y="827" on="0"/>
        <pt x="540" y="827" on="1"/>
        <pt x="605" y="827" on="0"/>
        <pt x="673" y="870" on="1"/>
        <pt x="673" y="881" on="0"/>
      </contour>
    </TTGlyph>
    <TTGlyph name="notequal" xMin="0" yMin="288" xMax="576" yMax="910">
      <component glyphName="equal" x="0" y="0" flags="0x1204"/>
    </TTGlyph>
    <TTGlyph name="ntilde" xMin="142" yMin="-12" xMax="1006" yMax="1537">
      <component glyphName="n" x="0" y="0" flags="0x1204"/>
      <component glyphName="tilde" x="142" y="0" flags="0x1004"/>
    </TTGlyph>
    <TTGlyph name="numbersign" xMin="87" yMin="0" xMax="1242" yMax="1536">
      <contour>
        <pt x="135" y="1198" on="1"/>
        <pt x="342" y="1198" on="1"/>
        <pt x="387" y="1536" on="1"/>
        <pt x="687" y="1536" on="1"/>
        <pt x="642" y="1198" on="1"/>
        <pt x="828" y="1198" on="1"/>
        <pt x="873" y="1536" on="1"/>
        <pt x="1173" y="1536" on="1"/>
        <pt x="1128" y="1198" on="1"/>
        <pt x="1242" y="1198" on="1"/>
        <pt x="1242" y="960" on="1"/>
        <pt x="1097" y="960" on="1"/>
        <pt x="1053" y="622" on="1"/>
        <pt x="1194" y="622" on="1"/>
        <pt x="1194" y="384" on="1"/>
        <pt x="1022" y="384" on="1"/>
        <pt x="972" y="0" on="1"/>
        <pt x="672" y="0" on="1"/>
        <pt x="722" y="384" on="1"/>
        <pt x="536" y="384" on="1"/>
        <pt x="486" y="0" on="1"/>
        <pt x="186" y="0" on="1"/>
        <pt x="236" y="384" on="1"/>
        <pt x="87" y="384" on="1"/>
        <pt x="87" y="622" on="1"/>
        <pt x="267" y="622" on="1"/>
        <pt x="311" y="960" on="1"/>
        <pt x="135" y="960" on="1"/>
      </contour>
      <contour>
        <pt x="567" y="622" on="1"/>
        <pt x="753" y="622" on="1"/>
        <pt x="797" y="960" on="1"/>
        <pt x="611" y="960" on="1"/>
      </contour>
    </TTGlyph>
    <TTGlyph name="o" xMin="105" yMin="-27" xMax="969" yMax="1167">
      <contour>
        <pt x="537" y="-27" on="1"/>
        <pt x="450" y="-27" on="0"/>
        <pt x="310" y="29" on="0"/>
        <pt x="214" y="130" on="0"/>
        <pt x="151" y="255" on="0"/>
        <pt x="132" y="332" on="1"/>
        <pt x="105" y="443" on="0"/>
        <pt x="105" y="577" on="1"/>
        <pt x="105" y="774" on="0"/>
        <pt x="227" y="1059" on="0"/>
        <pt x="348" y="1124" on="1"/>
        <pt x="428" y="1167" on="0"/>
        <pt x="537" y="1167" on="1"/>
        <pt x="623" y="1167" on="0"/>
        <pt x="762" y="1112" on="0"/>
        <pt x="858" y="1012" on="0"/>
        <pt x="922" y="889" on="0"/>
        <pt x="941" y="814" on="1"/>
        <pt x="969" y="708" on="0"/>
        <pt x="969" y="577" on="1"/>
        <pt x="969" y="375" on="0"/>
        <pt x="846" y="85" on="0"/>
        <pt x="723" y="18" on="1"/>
        <pt x="642" y="-27" on="0"/>
      </contour>
      <contour>
        <pt x="535" y="187" on="1"/>
        <pt x="561" y="187" on="0"/>
        <pt x="604" y="205" on="0"/>
        <pt x="634" y="246" on="0"/>
        <pt x="656" y="286" on="0"/>
        <pt x="669" y="354" on="0"/>
        <pt x="676" y="401" on="0"/>
        <pt x="679" y="482" on="0"/>
        <pt x="680" y="524" on="0"/>
        <pt x="680" y="563" on="1"/>
        <pt x="680" y="572" on="0"/>
        <pt x="680" y="577" on="1"/>
        <pt x="680" y="645" on="0"/>
        <pt x="676" y="732" on="0"/>
        <pt x="661" y="845" on="0"/>
        <pt x="625" y="923" on="0"/>
        <pt x="596" y="945" on="1"/>
        <pt x="573" y="964" on="0"/>
        <pt x="536" y="964" on="1"/>
        <pt x="510" y="964" on="0"/>
        <pt x="467" y="946" on="0"/>
        <pt x="438" y="907" on="0"/>
        <pt x="417" y="869" on="0"/>
        <pt x="404" y="802" on="0"/>
        <pt x="396" y="756" on="0"/>
        <pt x="393" y="675" on="0"/>
        <pt x="393" y="636" on="0"/>
        <pt x="393" y="596" on="1"/>
        <pt x="393" y="583" on="0"/>
        <pt x="393" y="577" on="1"/>
        <pt x="393" y="504" on="0"/>
        <pt x="396" y="424" on="0"/>
        <pt x="410" y="305" on="0"/>
        <pt x="445" y="228" on="0"/>
        <pt x="474" y="206" on="1"/>
        <pt x="497" y="187" on="0"/>
      </contour>
    </TTGlyph>
    <TTGlyph name="oacute" xMin="105" yMin="-27" xMax="969" yMax="1632">
      <component glyphName="o" x="0" y="0" flags="0x1204"/>
      <component glyphName="acute" x="56" y="0" flags="0x1004"/>
    </TTGlyph>
    <TTGlyph name="obreve" xMin="105" yMin="-27" xMax="969" yMax="1769">
      <component glyphName="breve" x="9" y="41" flags="0x1004"/>
      <component glyphName="o" x="0" y="0" flags="0x1204"/>
    </TTGlyph>
    <TTGlyph name="ocircumflex" xMin="105" yMin="-27" xMax="969" yMax="1728">
      <component glyphName="o" x="0" y="0" flags="0x1204"/>
      <component glyphName="circumflex" x="8" y="0" flags="0x1004"/>
    </TTGlyph>
    <TTGlyph name="odieresis" xMin="105" yMin="-27" xMax="969" yMax="1536">
      <component glyphName="o" x="0" y="0" flags="0x1204"/>
      <component glyphName="dieresis" x="152" y="0" flags="0x1004"/>
    </TTGlyph>
    <TTGlyph name="oe" xMin="119" yMin="-27" xMax="1539" yMax="1167">
      <contour>
        <pt x="1539" y="570" on="1"/>
        <pt x="1531" y="543" on="0"/>
        <pt x="1531" y="536" on="1"/>
        <pt x="981" y="536" on="1"/>
        <pt x="981" y="315" on="0"/>
        <pt x="1055" y="220" on="1"/>
        <pt x="1082" y="185" on="0"/>
        <pt x="1121" y="185" on="1"/>
        <pt x="1178" y="185" on="0"/>
        <pt x="1232" y="273" on="1"/>
        <pt x="1236" y="279" on="0"/>
        <pt x="1281" y="373" on="1"/>
        <pt x="1499" y="290" on="1"/>
        <pt x="1408" y="-27" on="0"/>
        <pt x="1116" y="-27" on="1"/>
        <pt x="1020" y="-27" on="0"/>
        <pt x="892" y="57" on="0"/>
        <pt x="840" y="132" on="1"/>
        <pt x="791" y="61" on="0"/>
        <pt x="645" y="-27" on="0"/>
        <pt x="551" y="-27" on="1"/>
        <pt x="464" y="-27" on="0"/>
        <pt x="324" y="29" on="0"/>
        <pt x="228" y="130" on="0"/>
        <pt x="165" y="255" on="0"/>
        <pt x="146" y="332" on="1"/>
        <pt x="119" y="443" on="0"/>
        <pt x="119" y="577" on="1"/>
        <pt x="119" y="774" on="0"/>
        <pt x="241" y="1059" on="0"/>
        <pt x="362" y="1124" on="1"/>
        <pt x="442" y="1167" on="0"/>
        <pt x="551" y="1167" on="1"/>
        <pt x="646" y="1167" on="0"/>
        <pt x="794" y="1072" on="0"/>
        <pt x="842" y="997" on="1"/>
        <pt x="895" y="1078" on="0"/>
        <pt x="1027" y="1167" on="0"/>
        <pt x="1126" y="1167" on="1"/>
        <pt x="1325" y="1167" on="0"/>
        <pt x="1435" y="1001" on="1"/>
        <pt x="1539" y="843" on="0"/>
      </contour>
      <contour>
        <pt x="549" y="187" on="1"/>
        <pt x="575" y="187" on="0"/>
        <pt x="618" y="205" on="0"/>
        <pt x="648" y="246" on="0"/>
        <pt x="670" y="286" on="0"/>
        <pt x="683" y="354" on="0"/>
        <pt x="690" y="401" on="0"/>
        <pt x="693" y="482" on="0"/>
        <pt x="694" y="524" on="0"/>
        <pt x="694" y="563" on="1"/>
        <pt x="694" y="572" on="0"/>
        <pt x="694" y="577" on="1"/>
        <pt x="694" y="645" on="0"/>
        <pt x="690" y="732" on="0"/>
        <pt x="675" y="845" on="0"/>
        <pt x="639" y="923" on="0"/>
        <pt x="610" y="945" on="1"/>
        <pt x="587" y="964" on="0"/>
        <pt x="550" y="964" on="1"/>
        <pt x="524" y="964" on="0"/>
        <pt x="481" y="946" on="0"/>
        <pt x="452" y="907" on="0"/>
        <pt x="431" y="869" on="0"/>
        <pt x="418" y="802" on="0"/>
        <pt x="410" y="756" on="0"/>
        <pt x="407" y="675" on="0"/>
        <pt x="407" y="636" on="0"/>
        <pt x="407" y="596" on="1"/>
        <pt x="407" y="583" on="0"/>
        <pt x="407" y="577" on="1"/>
        <pt x="407" y="504" on="0"/>
        <pt x="410" y="424" on="0"/>
        <pt x="424" y="305" on="0"/>
        <pt x="459" y="228" on="0"/>
        <pt x="488" y="206" on="1"/>
        <pt x="511" y="187" on="0"/>
      </contour>
      <contour>
        <pt x="981" y="702" on="1"/>
        <pt x="1256" y="702" on="1"/>
        <pt x="1256" y="890" on="0"/>
        <pt x="1184" y="948" on="1"/>
        <pt x="1158" y="969" on="0"/>
        <pt x="1121" y="969" on="1"/>
        <pt x="1066" y="969" on="0"/>
        <pt x="1024" y="892" on="1"/>
        <pt x="981" y="813" on="0"/>
      </contour>
    </TTGlyph>
    <TTGlyph name="ogonek" xMin="191" yMin="-385" xMax="625" yMax="20">
      <contour>
        <pt x="625" y="-321" on="1"/>
        <pt x="597" y="-351" on="0"/>
        <pt x="488" y="-385" on="0"/>
        <pt x="427" y="-385" on="1"/>
        <pt x="271" y="-385" on="0"/>
        <pt x="212" y="-294" on="1"/>
        <pt x="191" y="-262" on="0"/>
        <pt x="191" y="-218" on="1"/>
        <pt x="191" y="-190" on="0"/>
        <pt x="208" y="-148" on="1"/>
        <pt x="270" y="20" on="1"/>
        <pt x="432" y="20" on="1"/>
        <pt x="402" y="-101" on="1"/>
        <pt x="397" y="-121" on="0"/>
        <pt x="397" y="-130" on="1"/>
        <pt x="397" y="-191" on="0"/>
        <pt x="476" y="-191" on="1"/>
        <pt x="549" y="-191" on="0"/>
        <pt x="625" y="-156" on="1"/>
      </contour>
    </TTGlyph>
    <TTGlyph name="ograve" xMin="105" yMin="-27" xMax="969" yMax="1632">
      <component glyphName="o" x="0" y="0" flags="0x1204"/>
      <component glyphName="grave" x="56" y="0" flags="0x1004"/>
    </TTGlyph>
    <TTGlyph name="ohungarumlaut" xMin="105" yMin="-27" xMax="1173" yMax="1867">
      <component glyphName="hungarumlaut" x="78" y="139" flags="0x1004"/>
      <component glyphName="o" x="0" y="0" flags="0x1204"/>
    </TTGlyph>
    <TTGlyph name="omacron" xMin="105" yMin="-27" xMax="969" yMax="1481">
      <component glyphName="macron" x="57" y="41" flags="0x1004"/>
      <component glyphName="o" x="0" y="0" flags="0x1204"/>
    </TTGlyph>
    <TTGlyph name="one" xMin="105" yMin="0" xMax="802" yMax="1536">
      <contour>
        <pt x="315" y="1132" on="1"/>
        <pt x="158" y="1116" on="0"/>
        <pt x="131" y="1116" on="1"/>
        <pt x="105" y="1116" on="1"/>
        <pt x="105" y="1331" on="1"/>
        <pt x="454" y="1536" on="1"/>
        <pt x="603" y="1536" on="1"/>
        <pt x="603" y="251" on="1"/>
        <pt x="802" y="251" on="1"/>
        <pt x="790" y="0" on="1"/>
        <pt x="118" y="0" on="1"/>
        <pt x="118" y="251" on="1"/>
        <pt x="315" y="251" on="1"/>
      </contour>
    </TTGlyph>
    <TTGlyph name="onehalf" xMin="96" yMin="0" xMax="1918" yMax="1536">
      <contour>
        <pt x="1056" y="1536" on="1"/>
        <pt x="1344" y="1536" on="1"/>
        <pt x="960" y="0" on="1"/>
        <pt x="672" y="0" on="1"/>
      </contour>
      <contour>
        <pt x="109" y="768" on="1"/>
        <pt x="288" y="768" on="1"/>
        <pt x="288" y="1206" on="1"/>
        <pt x="226" y="1198" on="1"/>
        <pt x="149" y="1190" on="0"/>
        <pt x="122" y="1190" on="1"/>
        <pt x="96" y="1190" on="1"/>
        <pt x="96" y="1331" on="1"/>
        <pt x="427" y="1536" on="1"/>
        <pt x="528" y="1536" on="1"/>
        <pt x="528" y="768" on="1"/>
        <pt x="715" y="768" on="1"/>
        <pt x="703" y="576" on="1"/>
        <pt x="109" y="576" on="1"/>
      </contour>
      <contour>
        <pt x="1633" y="710" on="1"/>
        <pt x="1633" y="748" on="0"/>
        <pt x="1602" y="802" on="0"/>
        <pt x="1572" y="802" on="1"/>
        <pt x="1505" y="802" on="0"/>
        <pt x="1490" y="665" on="1"/>
        <pt x="1251" y="745" on="1"/>
        <pt x="1271" y="827" on="0"/>
        <pt x="1388" y="944" on="0"/>
        <pt x="1470" y="972" on="1"/>
        <pt x="1530" y="992" on="0"/>
        <pt x="1598" y="992" on="1"/>
        <pt x="1746" y="992" on="0"/>
        <pt x="1918" y="848" on="0"/>
        <pt x="1918" y="708" on="1"/>
        <pt x="1918" y="583" on="0"/>
        <pt x="1801" y="432" on="1"/>
        <pt x="1711" y="316" on="0"/>
        <pt x="1567" y="192" on="1"/>
        <pt x="1871" y="192" on="1"/>
        <pt x="1871" y="156" on="0"/>
        <pt x="1855" y="36" on="0"/>
        <pt x="1855" y="0" on="1"/>
        <pt x="1251" y="0" on="1"/>
        <pt x="1251" y="173" on="1"/>
        <pt x="1290" y="218" on="0"/>
        <pt x="1459" y="393" on="0"/>
        <pt x="1498" y="437" on="1"/>
        <pt x="1581" y="532" on="0"/>
        <pt x="1615" y="618" on="1"/>
        <pt x="1633" y="663" on="0"/>
      </contour>
    </TTGlyph>
    <TTGlyph name="onequarter" xMin="96" yMin="-48" xMax="1918" yMax="1536">
      <contour>
        <pt x="1056" y="1536" on="1"/>
        <pt x="1344" y="1536" on="1"/>
        <pt x="960" y="0" on="1"/>
        <pt x="672" y="0" on="1"/>
      </contour>
      <contour>
        <pt x="109" y="768" on="1"/>
        <pt x="288" y="768" on="1"/>
        <pt x="288" y="1206" on="1"/>
        <pt x="226" y="1198" on="1"/>
        <pt x="149" y="1190" on="0"/>
        <pt x="122" y="1190" on="1"/>
        <pt x="96" y="1190" on="1"/>
        <pt x="96" y="1331" on="1"/>
        <pt x="427" y="1536" on="1"/>
        <pt x="528" y="1536" on="1"/>
        <pt x="528" y="768" on="1"/>
        <pt x="715" y="768" on="1"/>
        <pt x="703" y="576" on="1"/>
        <pt x="109" y="576" on="1"/>
      </contour>
      <contour>
        <pt x="1545" y="192" on="1"/>
        <pt x="1155" y="192" on="1"/>
        <pt x="1155" y="360" on="1"/>
        <pt x="1507" y="960" on="1"/>
        <pt x="1793" y="960" on="1"/>
        <pt x="1793" y="370" on="1"/>
        <pt x="1918" y="370" on="1"/>
        <pt x="1902" y="192" on="1"/>
        <pt x="1793" y="192" on="1"/>
        <pt x="1793" y="-32" on="1"/>
        <pt x="1545" y="-48" on="1"/>
      </contour>
      <contour>
        <pt x="1545" y="370" on="1"/>
        <pt x="1545" y="711" on="1"/>
        <pt x="1340" y="370" on="1"/>
      </contour>
    </TTGlyph>
    <TTGlyph name="onesuperior" xMin="96" yMin="576" xMax="715" yMax="1536">
      <contour>
        <pt x="109" y="768" on="1"/>
        <pt x="288" y="768" on="1"/>
        <pt x="288" y="1206" on="1"/>
        <pt x="226" y="1198" on="1"/>
        <pt x="149" y="1190" on="0"/>
        <pt x="122" y="1190" on="1"/>
        <pt x="96" y="1190" on="1"/>
        <pt x="96" y="1331" on="1"/>
        <pt x="427" y="1536" on="1"/>
        <pt x="528" y="1536" on="1"/>
        <pt x="528" y="768" on="1"/>
        <pt x="715" y="768" on="1"/>
        <pt x="703" y="576" on="1"/>
        <pt x="109" y="576" on="1"/>
      </contour>
    </TTGlyph>
    <TTGlyph name="ordfeminine" xMin="101" yMin="288" xMax="709" yMax="1167">
      <contour>
        <pt x="687" y="468" on="1"/>
        <pt x="687" y="391" on="0"/>
        <pt x="709" y="317" on="1"/>
        <pt x="503" y="299" on="1"/>
        <pt x="480" y="403" on="1"/>
        <pt x="443" y="331" on="0"/>
        <pt x="348" y="298" on="1"/>
        <pt x="316" y="288" on="0"/>
        <pt x="293" y="288" on="1"/>
        <pt x="199" y="288" on="0"/>
        <pt x="101" y="440" on="0"/>
        <pt x="101" y="549" on="1"/>
        <pt x="101" y="827" on="0"/>
        <pt x="475" y="853" on="1"/>
        <pt x="475" y="947" on="0"/>
        <pt x="463" y="976" on="1"/>
        <pt x="448" y="1012" on="0"/>
        <pt x="413" y="1012" on="1"/>
        <pt x="349" y="1012" on="0"/>
        <pt x="337" y="916" on="1"/>
        <pt x="131" y="952" on="1"/>
        <pt x="144" y="1057" on="0"/>
        <pt x="292" y="1167" on="0"/>
        <pt x="413" y="1167" on="1"/>
        <pt x="543" y="1167" on="0"/>
        <pt x="687" y="1033" on="0"/>
        <pt x="687" y="907" on="1"/>
      </contour>
      <contour>
        <pt x="475" y="726" on="1"/>
        <pt x="309" y="726" on="0"/>
        <pt x="309" y="552" on="1"/>
        <pt x="309" y="440" on="0"/>
        <pt x="393" y="440" on="1"/>
        <pt x="430" y="440" on="0"/>
        <pt x="475" y="490" on="1"/>
      </contour>
    </TTGlyph>
    <TTGlyph name="ordmasculine" xMin="145" yMin="363" xMax="929" yMax="1167">
      <contour>
        <pt x="535" y="557" on="1"/>
        <pt x="608" y="557" on="0"/>
        <pt x="680" y="682" on="0"/>
        <pt x="680" y="769" on="1"/>
        <pt x="680" y="835" on="0"/>
        <pt x="638" y="939" on="0"/>
        <pt x="599" y="966" on="1"/>
        <pt x="572" y="984" on="0"/>
        <pt x="536" y="984" on="1"/>
        <pt x="464" y="984" on="0"/>
        <pt x="392" y="859" on="0"/>
        <pt x="392" y="771" on="1"/>
        <pt x="392" y="706" on="0"/>
        <pt x="434" y="604" on="0"/>
        <pt x="472" y="577" on="1"/>
        <pt x="498" y="559" on="0"/>
      </contour>
      <contour>
        <pt x="537" y="363" on="1"/>
        <pt x="349" y="363" on="0"/>
        <pt x="145" y="576" on="0"/>
        <pt x="145" y="767" on="1"/>
        <pt x="145" y="906" on="0"/>
        <pt x="261" y="1094" on="0"/>
        <pt x="366" y="1137" on="1"/>
        <pt x="440" y="1167" on="0"/>
        <pt x="537" y="1167" on="1"/>
        <pt x="679" y="1167" on="0"/>
        <pt x="864" y="1040" on="0"/>
        <pt x="904" y="927" on="1"/>
        <pt x="929" y="855" on="0"/>
        <pt x="929" y="767" on="1"/>
        <pt x="929" y="626" on="0"/>
        <pt x="812" y="437" on="0"/>
        <pt x="706" y="393" on="1"/>
        <pt x="632" y="363" on="0"/>
      </contour>
    </TTGlyph>
    <TTGlyph name="oslash" xMin="90" yMin="-31" xMax="1018" yMax="1167">
      <contour>
        <pt x="537" y="1167" on="1"/>
        <pt x="737" y="1167" on="0"/>
        <pt x="854" y="1007" on="1"/>
        <pt x="941" y="1117" on="1"/>
        <pt x="1018" y="1049" on="1"/>
        <pt x="908" y="910" on="1"/>
        <pt x="969" y="772" on="0"/>
        <pt x="969" y="577" on="1"/>
        <pt x="969" y="375" on="0"/>
        <pt x="846" y="85" on="0"/>
        <pt x="723" y="18" on="1"/>
        <pt x="642" y="-27" on="0"/>
        <pt x="537" y="-27" on="1"/>
        <pt x="367" y="-27" on="0"/>
        <pt x="258" y="85" on="1"/>
        <pt x="167" y="-31" on="1"/>
        <pt x="90" y="37" on="1"/>
        <pt x="195" y="170" on="1"/>
        <pt x="105" y="326" on="0"/>
        <pt x="105" y="577" on="1"/>
        <pt x="105" y="774" on="0"/>
        <pt x="227" y="1059" on="0"/>
        <pt x="348" y="1124" on="1"/>
        <pt x="428" y="1167" on="0"/>
      </contour>
      <contour>
        <pt x="670" y="773" on="1"/>
        <pt x="646" y="964" on="0"/>
        <pt x="536" y="964" on="1"/>
        <pt x="510" y="964" on="0"/>
        <pt x="467" y="946" on="0"/>
        <pt x="438" y="907" on="0"/>
        <pt x="417" y="869" on="0"/>
        <pt x="404" y="802" on="0"/>
        <pt x="396" y="756" on="0"/>
        <pt x="393" y="675" on="0"/>
        <pt x="393" y="636" on="0"/>
        <pt x="393" y="596" on="1"/>
        <pt x="393" y="583" on="0"/>
        <pt x="393" y="577" on="1"/>
        <pt x="393" y="474" on="0"/>
        <pt x="397" y="426" on="1"/>
      </contour>
      <contour>
        <pt x="420" y="290" on="1"/>
        <pt x="454" y="187" on="0"/>
        <pt x="535" y="187" on="1"/>
        <pt x="561" y="187" on="0"/>
        <pt x="604" y="205" on="0"/>
        <pt x="634" y="246" on="0"/>
        <pt x="656" y="286" on="0"/>
        <pt x="669" y="354" on="0"/>
        <pt x="676" y="401" on="0"/>
        <pt x="679" y="482" on="0"/>
        <pt x="680" y="524" on="0"/>
        <pt x="680" y="563" on="1"/>
        <pt x="680" y="572" on="0"/>
        <pt x="680" y="577" on="1"/>
        <pt x="680" y="620" on="1"/>
      </contour>
    </TTGlyph>
    <TTGlyph name="oslashacute" xMin="90" yMin="-31" xMax="1082" yMax="1673">
      <component glyphName="acute" x="314" y="41" flags="0x1004"/>
      <component glyphName="oslash" x="0" y="0" flags="0x1204"/>
    </TTGlyph>
    <TTGlyph name="otilde" xMin="105" yMin="-27" xMax="969" yMax="1537">
      <component glyphName="o" x="0" y="0" flags="0x1204"/>
      <component glyphName="tilde" x="92" y="0" flags="0x1004"/>
    </TTGlyph>
    <TTGlyph name="p" xMin="143" yMin="-358" xMax="979" yMax="1167">
      <contour>
        <pt x="143" y="1128" on="1"/>
        <pt x="431" y="1152" on="1"/>
        <pt x="431" y="1041" on="1"/>
        <pt x="518" y="1128" on="0"/>
        <pt x="605" y="1156" on="1"/>
        <pt x="641" y="1167" on="0"/>
        <pt x="675" y="1167" on="1"/>
        <pt x="747" y="1167" on="0"/>
        <pt x="854" y="1125" on="0"/>
        <pt x="919" y="1031" on="0"/>
        <pt x="958" y="939" on="0"/>
        <pt x="975" y="780" on="0"/>
        <pt x="979" y="670" on="0"/>
        <pt x="979" y="576" on="1"/>
        <pt x="979" y="492" on="0"/>
        <pt x="971" y="362" on="0"/>
        <pt x="947" y="221" on="0"/>
        <pt x="907" y="117" on="0"/>
        <pt x="836" y="28" on="0"/>
        <pt x="788" y="2" on="1"/>
        <pt x="734" y="-27" on="0"/>
        <pt x="653" y="-27" on="1"/>
        <pt x="560" y="-27" on="0"/>
        <pt x="487" y="36" on="1"/>
        <pt x="453" y="64" on="0"/>
        <pt x="431" y="99" on="1"/>
        <pt x="431" y="-302" on="1"/>
        <pt x="143" y="-358" on="1"/>
      </contour>
      <contour>
        <pt x="431" y="285" on="1"/>
        <pt x="474" y="193" on="0"/>
        <pt x="556" y="193" on="1"/>
        <pt x="583" y="193" on="0"/>
        <pt x="625" y="216" on="0"/>
        <pt x="650" y="249" on="0"/>
        <pt x="668" y="303" on="0"/>
        <pt x="677" y="349" on="0"/>
        <pt x="681" y="382" on="1"/>
        <pt x="691" y="453" on="0"/>
        <pt x="691" y="576" on="1"/>
        <pt x="691" y="785" on="0"/>
        <pt x="656" y="876" on="1"/>
        <pt x="624" y="960" on="0"/>
        <pt x="554" y="960" on="1"/>
        <pt x="487" y="960" on="0"/>
        <pt x="431" y="880" on="1"/>
      </contour>
    </TTGlyph>
    <TTGlyph name="paragraph" xMin="69" yMin="0" xMax="1117" yMax="1537">
      <contour>
        <pt x="357" y="801" on="1"/>
        <pt x="221" y="838" on="0"/>
        <pt x="69" y="999" on="0"/>
        <pt x="69" y="1145" on="1"/>
        <pt x="69" y="1209" on="0"/>
        <pt x="101" y="1314" on="0"/>
        <pt x="146" y="1390" on="0"/>
        <pt x="235" y="1450" on="0"/>
        <pt x="308" y="1488" on="0"/>
        <pt x="441" y="1515" on="0"/>
        <pt x="529" y="1528" on="0"/>
        <pt x="690" y="1535" on="0"/>
        <pt x="779" y="1536" on="0"/>
        <pt x="866" y="1536" on="1"/>
        <pt x="876" y="1536" on="0"/>
        <pt x="881" y="1536" on="1"/>
        <pt x="1117" y="1536" on="1"/>
        <pt x="1117" y="1288" on="1"/>
        <pt x="973" y="1288" on="1"/>
        <pt x="973" y="0" on="1"/>
        <pt x="741" y="0" on="1"/>
        <pt x="741" y="764" on="1"/>
        <pt x="649" y="764" on="0"/>
        <pt x="589" y="770" on="1"/>
        <pt x="589" y="0" on="1"/>
        <pt x="357" y="0" on="1"/>
      </contour>
    </TTGlyph>
    <TTGlyph name="parenleft" xMin="96" yMin="-76" xMax="661" yMax="1563">
      <contour>
        <pt x="661" y="-76" on="1"/>
        <pt x="302" y="-46" on="0"/>
        <pt x="158" y="364" on="1"/>
        <pt x="96" y="542" on="0"/>
        <pt x="96" y="745" on="1"/>
        <pt x="96" y="968" on="0"/>
        <pt x="228" y="1325" on="0"/>
        <pt x="348" y="1435" on="1"/>
        <pt x="483" y="1558" on="0"/>
        <pt x="661" y="1563" on="1"/>
        <pt x="661" y="1380" on="1"/>
        <pt x="531" y="1355" on="0"/>
        <pt x="454" y="1162" on="1"/>
        <pt x="384" y="985" on="0"/>
        <pt x="384" y="745" on="1"/>
        <pt x="384" y="563" on="0"/>
        <pt x="461" y="260" on="0"/>
        <pt x="540" y="175" on="1"/>
        <pt x="593" y="119" on="0"/>
        <pt x="661" y="113" on="1"/>
      </contour>
    </TTGlyph>
    <TTGlyph name="parenright" xMin="96" yMin="-76" xMax="661" yMax="1563">
      <contour>
        <pt x="96" y="113" on="1"/>
        <pt x="227" y="124" on="0"/>
        <pt x="304" y="319" on="1"/>
        <pt x="373" y="496" on="0"/>
        <pt x="373" y="745" on="1"/>
        <pt x="373" y="923" on="0"/>
        <pt x="295" y="1220" on="0"/>
        <pt x="217" y="1308" on="1"/>
        <pt x="164" y="1367" on="0"/>
        <pt x="96" y="1380" on="1"/>
        <pt x="96" y="1563" on="1"/>
        <pt x="362" y="1554" on="0"/>
        <pt x="518" y="1301" on="1"/>
        <pt x="661" y="1070" on="0"/>
        <pt x="661" y="745" on="1"/>
        <pt x="661" y="429" on="0"/>
        <pt x="522" y="198" on="1"/>
        <pt x="371" y="-53" on="0"/>
        <pt x="96" y="-76" on="1"/>
      </contour>
    </TTGlyph>
    <TTGlyph name="percent" xMin="76" yMin="-1" xMax="2078" yMax="1536">
      <contour>
        <pt x="466" y="926" on="1"/>
        <pt x="539" y="926" on="0"/>
        <pt x="611" y="1051" on="0"/>
        <pt x="611" y="1138" on="1"/>
        <pt x="611" y="1204" on="0"/>
        <pt x="569" y="1307" on="0"/>
        <pt x="530" y="1334" on="1"/>
        <pt x="501" y="1353" on="0"/>
        <pt x="467" y="1353" on="1"/>
        <pt x="395" y="1353" on="0"/>
        <pt x="323" y="1228" on="0"/>
        <pt x="323" y="1140" on="1"/>
        <pt x="323" y="1075" on="0"/>
        <pt x="366" y="973" on="0"/>
        <pt x="404" y="946" on="1"/>
        <pt x="430" y="928" on="0"/>
      </contour>
      <contour>
        <pt x="468" y="732" on="1"/>
        <pt x="280" y="732" on="0"/>
        <pt x="76" y="945" on="0"/>
        <pt x="76" y="1136" on="1"/>
        <pt x="76" y="1276" on="0"/>
        <pt x="191" y="1463" on="0"/>
        <pt x="296" y="1506" on="1"/>
        <pt x="370" y="1536" on="0"/>
        <pt x="468" y="1536" on="1"/>
        <pt x="610" y="1536" on="0"/>
        <pt x="794" y="1409" on="0"/>
        <pt x="834" y="1296" on="1"/>
        <pt x="860" y="1221" on="0"/>
        <pt x="860" y="1136" on="1"/>
        <pt x="860" y="995" on="0"/>
        <pt x="743" y="806" on="0"/>
        <pt x="637" y="762" on="1"/>
        <pt x="564" y="732" on="0"/>
      </contour>
      <contour>
        <pt x="1684" y="193" on="1"/>
        <pt x="1757" y="193" on="0"/>
        <pt x="1829" y="318" on="0"/>
        <pt x="1829" y="405" on="1"/>
        <pt x="1829" y="471" on="0"/>
        <pt x="1787" y="575" on="0"/>
        <pt x="1748" y="602" on="1"/>
        <pt x="1721" y="620" on="0"/>
        <pt x="1685" y="620" on="1"/>
        <pt x="1613" y="620" on="0"/>
        <pt x="1541" y="495" on="0"/>
        <pt x="1541" y="407" on="1"/>
        <pt x="1541" y="342" on="0"/>
        <pt x="1584" y="240" on="0"/>
        <pt x="1622" y="213" on="1"/>
        <pt x="1648" y="195" on="0"/>
      </contour>
      <contour>
        <pt x="1686" y="-1" on="1"/>
        <pt x="1498" y="-1" on="0"/>
        <pt x="1294" y="212" on="0"/>
        <pt x="1294" y="403" on="1"/>
        <pt x="1294" y="543" on="0"/>
        <pt x="1409" y="730" on="0"/>
        <pt x="1514" y="773" on="1"/>
        <pt x="1588" y="803" on="0"/>
        <pt x="1686" y="803" on="1"/>
        <pt x="1828" y="803" on="0"/>
        <pt x="2012" y="676" on="0"/>
        <pt x="2052" y="563" on="1"/>
        <pt x="2078" y="488" on="0"/>
        <pt x="2078" y="403" on="1"/>
        <pt x="2078" y="262" on="0"/>
        <pt x="1961" y="73" on="0"/>
        <pt x="1855" y="29" on="1"/>
        <pt x="1781" y="-1" on="0"/>
      </contour>
      <contour>
        <pt x="1125" y="1536" on="1"/>
        <pt x="1401" y="1536" on="1"/>
        <pt x="1008" y="0" on="1"/>
        <pt x="732" y="0" on="1"/>
      </contour>
    </TTGlyph>
    <TTGlyph name="period" xMin="96" yMin="-12" xMax="384" yMax="288">
      <contour>
        <pt x="384" y="288" on="1"/>
        <pt x="384" y="12" on="1"/>
        <pt x="96" y="-12" on="1"/>
        <pt x="96" y="288" on="1"/>
      </contour>
    </TTGlyph>
    <TTGlyph name="periodcentered" xMin="0" yMin="480" xMax="288" yMax="768">
      <contour>
        <pt x="288" y="768" on="1"/>
        <pt x="288" y="480" on="1"/>
        <pt x="0" y="480" on="1"/>
        <pt x="0" y="768" on="1"/>
      </contour>
    </TTGlyph>
    <TTGlyph name="perthousand" xMin="94" yMin="-1" xMax="2997" yMax="1536">
      <contour>
        <pt x="484" y="926" on="1"/>
        <pt x="557" y="926" on="0"/>
        <pt x="629" y="1051" on="0"/>
        <pt x="629" y="1138" on="1"/>
        <pt x="629" y="1204" on="0"/>
        <pt x="587" y="1307" on="0"/>
        <pt x="548" y="1334" on="1"/>
        <pt x="519" y="1353" on="0"/>
        <pt x="485" y="1353" on="1"/>
        <pt x="413" y="1353" on="0"/>
        <pt x="341" y="1228" on="0"/>
        <pt x="341" y="1140" on="1"/>
        <pt x="341" y="1075" on="0"/>
        <pt x="384" y="973" on="0"/>
        <pt x="422" y="946" on="1"/>
        <pt x="448" y="928" on="0"/>
      </contour>
      <contour>
        <pt x="486" y="732" on="1"/>
        <pt x="298" y="732" on="0"/>
        <pt x="94" y="945" on="0"/>
        <pt x="94" y="1136" on="1"/>
        <pt x="94" y="1276" on="0"/>
        <pt x="209" y="1463" on="0"/>
        <pt x="314" y="1506" on="1"/>
        <pt x="387" y="1536" on="0"/>
        <pt x="486" y="1536" on="1"/>
        <pt x="628" y="1536" on="0"/>
        <pt x="812" y="1409" on="0"/>
        <pt x="852" y="1296" on="1"/>
        <pt x="878" y="1221" on="0"/>
        <pt x="878" y="1136" on="1"/>
        <pt x="878" y="995" on="0"/>
        <pt x="761" y="806" on="0"/>
        <pt x="655" y="762" on="1"/>
        <pt x="581" y="732" on="0"/>
      </contour>
      <contour>
        <pt x="2603" y="193" on="1"/>
        <pt x="2676" y="193" on="0"/>
        <pt x="2748" y="318" on="0"/>
        <pt x="2748" y="405" on="1"/>
        <pt x="2748" y="471" on="0"/>
        <pt x="2706" y="575" on="0"/>
        <pt x="2667" y="602" on="1"/>
        <pt x="2640" y="620" on="0"/>
        <pt x="2604" y="620" on="1"/>
        <pt x="2532" y="620" on="0"/>
        <pt x="2460" y="495" on="0"/>
        <pt x="2460" y="407" on="1"/>
        <pt x="2460" y="342" on="0"/>
        <pt x="2502" y="240" on="0"/>
        <pt x="2540" y="213" on="1"/>
        <pt x="2566" y="195" on="0"/>
      </contour>
      <contour>
        <pt x="2605" y="-1" on="1"/>
        <pt x="2417" y="-1" on="0"/>
        <pt x="2213" y="212" on="0"/>
        <pt x="2213" y="403" on="1"/>
        <pt x="2213" y="542" on="0"/>
        <pt x="2329" y="730" on="0"/>
        <pt x="2434" y="773" on="1"/>
        <pt x="2508" y="803" on="0"/>
        <pt x="2605" y="803" on="1"/>
        <pt x="2747" y="803" on="0"/>
        <pt x="2932" y="676" on="0"/>
        <pt x="2972" y="563" on="1"/>
        <pt x="2997" y="491" on="0"/>
        <pt x="2997" y="403" on="1"/>
        <pt x="2997" y="262" on="0"/>
        <pt x="2880" y="73" on="0"/>
        <pt x="2774" y="29" on="1"/>
        <pt x="2700" y="-1" on="0"/>
      </contour>
      <contour>
        <pt x="1143" y="1536" on="1"/>
        <pt x="1419" y="1536" on="1"/>
        <pt x="1026" y="0" on="1"/>
        <pt x="750" y="0" on="1"/>
      </contour>
      <contour>
        <pt x="1702" y="193" on="1"/>
        <pt x="1775" y="193" on="0"/>
        <pt x="1847" y="318" on="0"/>
        <pt x="1847" y="405" on="1"/>
        <pt x="1847" y="471" on="0"/>
        <pt x="1805" y="575" on="0"/>
        <pt x="1766" y="602" on="1"/>
        <pt x="1739" y="620" on="0"/>
        <pt x="1703" y="620" on="1"/>
        <pt x="1631" y="620" on="0"/>
        <pt x="1559" y="495" on="0"/>
        <pt x="1559" y="407" on="1"/>
        <pt x="1559" y="342" on="0"/>
        <pt x="1602" y="240" on="0"/>
        <pt x="1640" y="213" on="1"/>
        <pt x="1666" y="195" on="0"/>
      </contour>
      <contour>
        <pt x="1704" y="-1" on="1"/>
        <pt x="1516" y="-1" on="0"/>
        <pt x="1312" y="212" on="0"/>
        <pt x="1312" y="403" on="1"/>
        <pt x="1312" y="543" on="0"/>
        <pt x="1427" y="730" on="0"/>
        <pt x="1532" y="773" on="1"/>
        <pt x="1606" y="803" on="0"/>
        <pt x="1704" y="803" on="1"/>
        <pt x="1846" y="803" on="0"/>
        <pt x="2030" y="676" on="0"/>
        <pt x="2070" y="563" on="1"/>
        <pt x="2096" y="488" on="0"/>
        <pt x="2096" y="403" on="1"/>
        <pt x="2096" y="262" on="0"/>
        <pt x="1979" y="73" on="0"/>
        <pt x="1873" y="29" on="1"/>
        <pt x="1800" y="-1" on="0"/>
      </contour>
    </TTGlyph>
    <TTGlyph name="pi" xMin="-3" yMin="-12" xMax="573" yMax="1440">
      <contour>
        <pt x="143" y="1128" on="1"/>
        <pt x="431" y="1152" on="1"/>
        <pt x="431" y="12" on="1"/>
        <pt x="143" y="-12" on="1"/>
      </contour>
      <contour>
        <pt x="-3" y="1440" on="1"/>
        <pt x="573" y="1440" on="1"/>
        <pt x="573" y="1248" on="1"/>
        <pt x="-3" y="1248" on="1"/>
      </contour>
      <contour>
        <pt x="141" y="1128" on="1"/>
        <pt x="429" y="1152" on="1"/>
        <pt x="429" y="12" on="1"/>
        <pt x="141" y="-12" on="1"/>
      </contour>
    </TTGlyph>
    <TTGlyph name="plus" xMin="-67" yMin="20" xMax="651" yMax="738">
      <contour>
        <pt x="411" y="260" on="1"/>
        <pt x="411" y="20" on="1"/>
        <pt x="173" y="20" on="1"/>
        <pt x="173" y="260" on="1"/>
        <pt x="-67" y="260" on="1"/>
        <pt x="-67" y="498" on="1"/>
        <pt x="173" y="498" on="1"/>
        <pt x="173" y="738" on="1"/>
        <pt x="411" y="738" on="1"/>
        <pt x="411" y="498" on="1"/>
        <pt x="651" y="498" on="1"/>
        <pt x="651" y="260" on="1"/>
      </contour>
    </TTGlyph>
    <TTGlyph name="plusminus" xMin="-67" yMin="1" xMax="651" yMax="1054">
      <contour>
        <pt x="411" y="576" on="1"/>
        <pt x="411" y="336" on="1"/>
        <pt x="173" y="336" on="1"/>
        <pt x="173" y="576" on="1"/>
        <pt x="-67" y="576" on="1"/>
        <pt x="-67" y="814" on="1"/>
        <pt x="173" y="814" on="1"/>
        <pt x="173" y="1054" on="1"/>
        <pt x="411" y="1054" on="1"/>
        <pt x="411" y="814" on="1"/>
        <pt x="651" y="814" on="1"/>
        <pt x="651" y="576" on="1"/>
      </contour>
      <contour>
        <pt x="0" y="239" on="1"/>
        <pt x="576" y="239" on="1"/>
        <pt x="576" y="1" on="1"/>
        <pt x="0" y="1" on="1"/>
      </contour>
    </TTGlyph>
    <TTGlyph name="product" xMin="143" yMin="-12" xMax="1031" yMax="1512">
      <contour>
        <pt x="731" y="1238" on="1"/>
        <pt x="443" y="1238" on="1"/>
        <pt x="443" y="12" on="1"/>
        <pt x="143" y="-12" on="1"/>
        <pt x="143" y="1512" on="1"/>
        <pt x="1031" y="1512" on="1"/>
        <pt x="1031" y="12" on="1"/>
        <pt x="731" y="-12" on="1"/>
      </contour>
    </TTGlyph>
    <TTGlyph name="q" xMin="81" yMin="-358" xMax="897" yMax="1167">
      <contour>
        <pt x="897" y="-322" on="1"/>
        <pt x="609" y="-358" on="1"/>
        <pt x="609" y="99" on="1"/>
        <pt x="564" y="30" on="0"/>
        <pt x="484" y="-8" on="1"/>
        <pt x="443" y="-27" on="0"/>
        <pt x="387" y="-27" on="1"/>
        <pt x="328" y="-27" on="0"/>
        <pt x="234" y="12" on="0"/>
        <pt x="170" y="73" on="0"/>
        <pt x="124" y="171" on="0"/>
        <pt x="99" y="268" on="0"/>
        <pt x="85" y="400" on="0"/>
        <pt x="81" y="506" on="0"/>
        <pt x="81" y="576" on="1"/>
        <pt x="81" y="654" on="0"/>
        <pt x="83" y="741" on="0"/>
        <pt x="91" y="876" on="0"/>
        <pt x="112" y="960" on="0"/>
        <pt x="146" y="1055" on="0"/>
        <pt x="202" y="1119" on="0"/>
        <pt x="240" y="1140" on="1"/>
        <pt x="289" y="1167" on="0"/>
        <pt x="365" y="1167" on="1"/>
        <pt x="417" y="1167" on="0"/>
        <pt x="515" y="1124" on="0"/>
        <pt x="572" y="1078" on="0"/>
        <pt x="609" y="1041" on="1"/>
        <pt x="657" y="1152" on="1"/>
        <pt x="897" y="1128" on="1"/>
      </contour>
      <contour>
        <pt x="609" y="880" on="1"/>
        <pt x="564" y="960" on="0"/>
        <pt x="506" y="960" on="1"/>
        <pt x="472" y="960" on="0"/>
        <pt x="424" y="926" on="0"/>
        <pt x="397" y="860" on="0"/>
        <pt x="384" y="802" on="0"/>
        <pt x="378" y="758" on="1"/>
        <pt x="369" y="684" on="0"/>
        <pt x="369" y="576" on="1"/>
        <pt x="369" y="354" on="0"/>
        <pt x="402" y="265" on="1"/>
        <pt x="416" y="229" on="0"/>
        <pt x="451" y="193" on="0"/>
        <pt x="484" y="193" on="1"/>
        <pt x="566" y="193" on="0"/>
        <pt x="609" y="285" on="1"/>
      </contour>
    </TTGlyph>
    <TTGlyph name="question" xMin="82" yMin="-12" xMax="868" yMax="1546">
      <contour>
        <pt x="579" y="1105" on="1"/>
        <pt x="579" y="1318" on="0"/>
        <pt x="463" y="1318" on="1"/>
        <pt x="433" y="1318" on="0"/>
        <pt x="393" y="1288" on="0"/>
        <pt x="370" y="1218" on="0"/>
        <pt x="363" y="1180" on="0"/>
        <pt x="357" y="1135" on="1"/>
        <pt x="356" y="1126" on="0"/>
        <pt x="355" y="1121" on="1"/>
        <pt x="82" y="1133" on="1"/>
        <pt x="86" y="1272" on="0"/>
        <pt x="211" y="1471" on="0"/>
        <pt x="316" y="1516" on="1"/>
        <pt x="386" y="1546" on="0"/>
        <pt x="470" y="1546" on="1"/>
        <pt x="618" y="1546" on="0"/>
        <pt x="806" y="1388" on="0"/>
        <pt x="844" y="1258" on="1"/>
        <pt x="868" y="1177" on="0"/>
        <pt x="868" y="1095" on="1"/>
        <pt x="868" y="864" on="0"/>
        <pt x="741" y="762" on="1"/>
        <pt x="724" y="748" on="0"/>
        <pt x="594" y="658" on="1"/>
        <pt x="467" y="572" on="0"/>
        <pt x="467" y="396" on="1"/>
        <pt x="467" y="384" on="1"/>
        <pt x="227" y="384" on="1"/>
        <pt x="202" y="660" on="0"/>
        <pt x="316" y="770" on="1"/>
        <pt x="361" y="813" on="0"/>
        <pt x="454" y="868" on="1"/>
        <pt x="579" y="940" on="0"/>
      </contour>
      <contour>
        <pt x="202" y="288" on="1"/>
        <pt x="202" y="-12" on="1"/>
        <pt x="490" y="0" on="1"/>
        <pt x="490" y="288" on="1"/>
      </contour>
    </TTGlyph>
    <TTGlyph name="questiondown" xMin="82" yMin="-12" xMax="869" yMax="1546">
      <component glyphName="question" x="950" y="1534" scale="-1.0" flags="0x1004"/>
    </TTGlyph>
    <TTGlyph name="quotedbl" xMin="126" yMin="948" xMax="798" yMax="1536">
      <contour>
        <pt x="414" y="1536" on="1"/>
        <pt x="366" y="960" on="1"/>
        <pt x="174" y="948" on="1"/>
        <pt x="126" y="1536" on="1"/>
      </contour>
      <contour>
        <pt x="798" y="1536" on="1"/>
        <pt x="750" y="960" on="1"/>
        <pt x="558" y="948" on="1"/>
        <pt x="510" y="1536" on="1"/>
      </contour>
    </TTGlyph>
    <TTGlyph name="quotedblbase" xMin="96" yMin="-288" xMax="768" yMax="288">
      <contour>
        <pt x="768" y="288" on="1"/>
        <pt x="768" y="0" on="1"/>
        <pt x="768" y="-128" on="0"/>
        <pt x="643" y="-281" on="0"/>
        <pt x="528" y="-288" on="1"/>
        <pt x="528" y="-96" on="1"/>
        <pt x="573" y="-96" on="0"/>
        <pt x="622" y="-43" on="0"/>
        <pt x="624" y="0" on="1"/>
        <pt x="480" y="0" on="1"/>
        <pt x="480" y="288" on="1"/>
      </contour>
      <contour>
        <pt x="384" y="288" on="1"/>
        <pt x="384" y="0" on="1"/>
        <pt x="384" y="-128" on="0"/>
        <pt x="259" y="-281" on="0"/>
        <pt x="144" y="-288" on="1"/>
        <pt x="144" y="-96" on="1"/>
        <pt x="189" y="-96" on="0"/>
        <pt x="238" y="-43" on="0"/>
        <pt x="240" y="0" on="1"/>
        <pt x="96" y="0" on="1"/>
        <pt x="96" y="288" on="1"/>
      </contour>
    </TTGlyph>
    <TTGlyph name="quotedblleft" xMin="96" yMin="948" xMax="768" yMax="1536">
      <contour>
        <pt x="96" y="948" on="1"/>
        <pt x="96" y="1248" on="1"/>
        <pt x="96" y="1427" on="0"/>
        <pt x="216" y="1500" on="1"/>
        <pt x="268" y="1532" on="0"/>
        <pt x="336" y="1536" on="1"/>
        <pt x="336" y="1344" on="1"/>
        <pt x="291" y="1344" on="0"/>
        <pt x="242" y="1291" on="0"/>
        <pt x="240" y="1248" on="1"/>
        <pt x="384" y="1248" on="1"/>
        <pt x="384" y="960" on="1"/>
      </contour>
      <contour>
        <pt x="480" y="948" on="1"/>
        <pt x="480" y="1248" on="1"/>
        <pt x="480" y="1427" on="0"/>
        <pt x="600" y="1500" on="1"/>
        <pt x="652" y="1532" on="0"/>
        <pt x="720" y="1536" on="1"/>
        <pt x="720" y="1344" on="1"/>
        <pt x="675" y="1344" on="0"/>
        <pt x="626" y="1291" on="0"/>
        <pt x="624" y="1248" on="1"/>
        <pt x="768" y="1248" on="1"/>
        <pt x="768" y="960" on="1"/>
      </contour>
    </TTGlyph>
</ttFont>
